<mxfile host="65bd71144e">
    <diagram id="HIP3nbAZw_EuaXWnEj3U" name="Page-1">
        <mxGraphModel dx="1761" dy="593" grid="1" gridSize="10" guides="1" tooltips="1" connect="1" arrows="1" fold="1" page="1" pageScale="1" pageWidth="850" pageHeight="1100" background="#FFFFFF" math="0" shadow="0">
            <root>
                <mxCell id="0"/>
                <mxCell id="1" parent="0"/>
                <mxCell id="7" value="&lt;font color=&quot;#ffffff&quot;&gt;&lt;span style=&quot;font-size: 37px;&quot;&gt;Spin a Wheel!&lt;/span&gt;&lt;/font&gt;" style="swimlane;whiteSpace=wrap;html=1;startSize=80;fillColor=#000000;strokeColor=#000000;" parent="1" vertex="1">
                    <mxGeometry x="-29" y="40" width="1240" height="770" as="geometry"/>
                </mxCell>
                <mxCell id="20" value="&lt;font color=&quot;#000000&quot;&gt;&lt;span style=&quot;font-size: 22px;&quot;&gt;Value: 1&lt;/span&gt;&lt;/font&gt;" style="text;html=1;strokeColor=none;fillColor=none;align=center;verticalAlign=middle;whiteSpace=wrap;rounded=0;" parent="7" vertex="1">
                    <mxGeometry x="437.5" y="630" width="365" height="30" as="geometry"/>
                </mxCell>
                <mxCell id="21" value="" style="shape=image;verticalLabelPosition=bottom;labelBackgroundColor=default;verticalAlign=top;aspect=fixed;imageAspect=0;image=data:image/png,iVBORw0KGgoAAAANSUhEUgAAAgAAAAIACAYAAAD0eNT6AAAACXBIWXMAAAsTAAALEwEAmpwYAAAgAElEQVR4nOx9B5Be1ZHus721tW/37dZ6a10Y5LS218t7ZgGDEQanNex67TW2cQSRczA5RxuRBQgRFVBAgAIIlEeaGeU0ylkoj3LOKIM0oV+d/95zT3ef7nPvCEkzI52uOjV/uPf+9z+I/+v++uvu//W/okWLFi1atGjRokWLFi1atGjRokWLFi1atGjRokWLFi1atGjRokWLFi1atGjRokWLFi1atGjRokWLFi1atGjRokWLFi1atGjRokWLFi1atGjRokWLFi1atGjRokWLFi1atGjRokWLFi1atGjRokWLFi1atGjRokWLFi1atGjRokWLFi1atGjRokWLFi1atGjRokWLFi1atGjRokWLFi1atGjRokWLFi1atGjRokWLFi1atGjRokWLFi1atGjRokWLFi1atGjRokWLFi1atGjRokWLFi1atGjRokU7QgYAnwGAzwHAXwPA3wLA3wPA5wHgCwBwIgB8CQC+CgBfB4BvAsC3AODfAODkdP1b+to302O+mp5zYnqNz6fX/Nv0M8xnfSb+B40WLVq0aNEOs6Ug+79T8G2RAnVLAPgvAPgjANwIAA8CQGuz9tfsf3bb/m0vr9uzoePKnSvfXLxtaa/52xZ8MHfzvIEzNs4aOmPjzMqp66eNnLxhyphJ66eMq1o3cULVuklVVeurqiasN38nTjBr4vpJ4yZvmDJ66sapI2dsnFE5c9PsIfO2zhuwYNuC9xfvWNpz+UfL31y3Z0OHrfu3v2Q+M72HG9N7+q/0Hk9O7/nz6Xf4XPwHEi1atGjRoiUA/9kUHE2E/a8AcC4A/AYAbrGgvn3/9pdW7VzVzQC5AXAD2GNWj509fOWIpeXLK9YNWla2Y8DSgfv7Lulf33dJf/hgST/ou6Rf6W/yuL+68t4vstLPqR9QPXDfwOqy7UOXV6wdsWrk4rGrx840jsSMTTOHLNq+pPea3Ws67T6w+/n0u/0m/a7/mn53swefjf8ookWLFi3aMWUA8FcA8A8A8DUA+F4aKZci9517VryxYtfKt+ZsmlM2ef2UCaNWjZ5fsWLYmkHVg3dZUG8oICNgzpwB+hoBb+i3pH9pNfSz+HnJ8wGl1Td77N3bwUHVZdsqVg5bNmb1uBnTNkwfvmDrwvfW71nfvg7qHk735nvpXpk9+6vG/u8XLVq0aNGi5RoA/A0AfBEAzgCA3wHAo1BX9zh8vKwj7JzQr37LwPH1G3ssqFvXadPSFd1qLVgGoutPFbWHmYB+IqDnOQP2felY6wC4JTsN/HVzj+8v7guGRRi2csTS8WurJs3ePHfg6t1r36ipq3ks3csz0r39m/hPMVq0aNGiNZqlYrgTAOBMAGhVou0Pbm0Lu6b2rt86ZHTdxp4L6tZ13FK3ul193eq2YFd9+nf9ig5B0C4K9oWi98XJtTD44uv3K3BukWMxwOeBv8AOiJ9n3htcXbZ1xOrRH07ZMG3Ekh3V7+yt2dsm3fMz0/8Gfx3/V4gWLVq0aEdKZf93qUr+ZwDwMBzY8Xzdrqm9YeugsXUbui+tX/ParrrVL0J4GfB/seQE7Fr1SiGQ56AprYZQ9pimLwLoRRmIIvdR9F6L6BcGV5dtN07BtI0zKlftXt2l9N8k+W/zzfS/VaxSiBYtWrRohwT4f5+q2X9biu4/XtoRdowYWr+p99z6de235YO9Bfy2ogNgHvdTaHgdQAcEHYBDzeUX/XwenUuR/eFwAEJOkL4vA2rKV1SuMpUMplrh45qPn07/252c/reMDkG0aNGiRVPz96YG/oIS4O9b2Ll+29AR9RveXlK35pX9dWvaQd3qdgjM7WP+uh75c8dg2NI+nxos5Tw8Be1DFfqF7gWzCfgzqQiQOizy/RaP/BvmRPQDU5VQtX5S1ZKPqnvU1NU8kf63Nf+No44gWrRo0Y7zMrx/TkvS7ob9K16v315ZUb/xrUV1a17a70fveFnQ18Bfe51er6q6Z4PAT4qGcx2Aw8QUSLoEH9ypCNA/ThYH5n3u4diXvkv711WuGLZi6sZpI9fsWdep9N88+W9v/g3EMsRo0aJFOw6Ee6bE7EKo+/gp2DWpT/3Gd2fWr319h0/bW7DWnICGLOwQuGvPXf4WAjlf/CeKAQUavihYakxAEWFfQ6+vRfwhh8Benz4/MvsysHrwrtGrx8w2DY4O1B14qvRvIvm3EQWF0aJFi3YMUfsmD3wVfLL6FdheUVm/odtynpuvX/PiIQB/u0/lBCxb0SUIpg0Bag6Mh6PRj/YZkm6ALpsGKJy/L3zPR2hf6oetGF49a9OsoR998tGLpX8ryb+ZmCqIFi1atOZkaXe5b5da1O5b9AZsHTiufn3HjXpOXhPvSUsCf43uD3/OppVyKWAootVA0tTR91r4Lrw9vwd0m9cd3pjTBdrP6gSvzmwPL894FdpNfxnaTnsJ2k5rB89PbQvPTTHrBXhu6gul58l6sXTMS9NfgVdmvAavz+oAHWZ1Kl3LXPPtD98pfcYHyr25qB6De5h9kJmB/odtX4r2U8CfWb68Ys20DdNGbNm/7ZW0zbH5t/S/G/vfdbRo0aJF0+l9M9TmOtgzv0v95n4T69datT5V3+vA7F7Hx7rHxcr8wk6Gcxb2rnqVCOUwaJr13qI+0P3Dt6HD7E7w4rSX4JnJbeDPE1rDA2MfhrtG3ws3D78Nrqu8Ea4cejVcPPgyaDX4Mrik7HK4aPClpXVx2WWl1+2y79tlXzPH2XPwMa3s++lfe6x5fvmQq+DayhvgpuG3wp2j7ob7xz5UurenJz9butcOszrCm/PegvcWvV8oqqeswYDgvkjOhXwd+hmh/gqa82GEhNM3TB9u2jKX/m0l/8ZimiBatGjRmoCQ7ysAcDF8vLRD/ZYB4+vXtd+qA7MczVP6nwK/DP4NdQZ0J6HHh91LkbaJxA2A3j36frh5+K1wxdBr4JKyK0rLB+XLs/eSdbkH7BcPutQBPAJ//Be/nzkNCOxbpdeyr2erzDkC2bHMUcCfdcXQq+GmYbfC3aPvg0cnPAZtpjxf+s7GueFsQpEyR9pymB9DKxO86yiljFoqATsNlSuGrZy1afbQdAjSxem/vSggjBYtWrSjZQDwTwBwPhzc3LZ+29Dh9es6ri9CucsiP/caZQhC0X8DhYGrnofapfdB7cJroHbur6B2xg+hZvIpUDPhJLh/6IUIMBnID07A34G+fd8tHKlzB8CCMgdqaXGmADsGFuytI5C9NuhS4pjwz8Hv4ft07yXf7/rKm0rOwWNVT5RSFV3mdoM+iz9QwZm3UJYid7W/QUAsWHQZh2DEqpELF25f2Ccd3HS++TcZfwGiRYsW7chR/KeUyrd2jv+gfkP3JRJgH4pqX2MADuV6tSuehLolt0LthxdB7czzoGbKqXBwfIsS2EurXeVPRdodg7AW6UvAi1/jqyg4cwZAXKmDod235mTQ+9TPMw7GjZU3l1ILJvXRflZH6LXgXQbycqR/KEJByVkocs6ApYP2TFhbNXnd7qy00PwbjSmCaNGiRfu0ltZpXwD7Fnes3/z+lLo1L+8rDshFmvT47EDiWBQ8fundUDu/FdTM+AnUTP5/KbCfiEC+hecAHByfvG6O6zX8B2IUTil5Cvgh0M0DZBt5Sw4F1whkzkSaTjCgzOl96kT4jol1FIo6ABmDobAT11bcCPeOeQCemfxcSZxoygSLCA3zqxF0h0JKTUhsQsXyyjWzN80pqzMDoJKmQ/8cfwGiRYsWreEjdE0Z1t31O0YPrF/fZdWh1+M3xAEIU/y1K56G2kW3QM2cC6FmakuomfBlBPgnwsHxyaIgbx2AFsw5SByA0aPOFCNsTLdLIKnR/xpL4AO3od990MepBX4NLhKUUhJWn0CA2zgQyBHA53EWI3MAmIBR25dLBl8Ot424o5Q+MLqC3gv7FChT1LQFNL2gHctfx/0LzBqwdOAn49ZWTVvnGg6Zf8txtHG0aNGiaZYOcflRqV5/S7+q+rUv721o9H5oToIM/rUr20Dt4lugds4voWbqdzJAd6D+JUbpf6n0OgV/9zhzAMZ/MXMaFow5WQW7BOguESN8CeB9MM/TAEgOQJi+z3M+sAPg3vedDf7YExuWXXrI+3LLiNvhsarH4bWZ7bMqhEIlhgUrA7RjJe3BsJXDV8zftqBvqhX4kfk3Hn8BokWLFi01APgCAPwedk1/p37D2wvDFHxeGV/bBrIALN9ffQ/Uzvs91E47GwF8AtYU7FvAwfR96wy4v5jqp+fw62wb9zUx527z4FppngTQcpStOwFGZCgxBJqGwDkBNML3gDgTLzqmgTsFEu2v6QU+7b7cNuJOeHLSM9B5TteC/Qhou+Li+gEqTsRr8LIhO6ZsmDp674H9ZpTx782/+fgDEC1atON54t5XAeBm2DF6YN26Tut0oC4q0JOn7+m0fluoW/kM1C68Fupm/SfUTPomAugTEWBj2t5F9i63n/xNHIIvMbofAz6+tj3vS3D9kFYIKP1o/NKyK8X3JHrcRtE4xy7l1C1AS44BuRaKwu17PE/v3zMVFyaOhnM2tPuh13NljodzX66puB4eHPtIqdnRu4v6HFIFQKiXQAEGoW7c2gnTN+zZ2KH0bz/5fyBOKowWLdpxU7t/MtR93Lp+25AR9Wtf/ehQ8vGaY+Bq9wPnL/8L1M6/DGqmncOic7sokFMa/0sp0NPnpWOqvozSAC5NkLzPz0/OMevR8gvVvLof3erKf3ueCH4ppZ6BboktkPUBesqBAjl9/4qMUcDPLVC7NIBLEyTv8/OvyEl3HN59uWP0XdBm6gulDoqSsE+rCOCtjyXWQBYWJs8HzR4K0wbO27VoTvUwAHg01QnEngLRokU79gwAPgcAp8KB7c/Xb+k/oX5Nu499EJeidqkW33X2c++9wI7Dj9tB3bJHk9K8aWcJeXz+3AI0BWz3OmYIuAOBRYFUC0A/z6UBXqv8qQd+nHYXVfGsGQ+myF13v0sS8Gfn8hSAlMf3n+OI3AE2bljk2IdwKoIzBtyxwOmEo7Uvt4y4o9TJ8K0P3xHV/zg9wJsS+WOQ5amI9vG48skwt+tSmNNlCSzqs2LlppnbbU+BU83/K439/2u0aNGiHS5F/xlwcOOLsPn9yXWrX6xrSERfnBUQnAQT6X/YCmqmftej8V2Ejp4bcDZRfNWXSRTPj5XofJfvT0R+tULaIGMAyLVawAcjfkiobjG/H6jpF/PmAuD7x7gUgFYFYBsSmSjeUu6+6t9X80s5fZtSkKN7n+rnKYCjuS9/GnE7PDv5OXhnfg+1qZAE8kVKD/svGASzuy0ugb9bS2Fh7xXr10/dOiB1BM6IlQPRokVr5sC/oV395j5T61e/gAR5ecNz8hT9gfdXPgu1C66E2ulGxHci1FZpIj4D2vZ1975T8Z+UgjiP5pGSP1Pz4884sXRebfbZmCGQ/p4I40efKdLrHKhUMR/uAChQ4OR6NjoWjsfpAR9UkUCQ6QK4kh+3FCYAnUbg5rO11AO+lpZ2ONr7csfIu+CFqS/Cuwsbphnop2gHRo2c4IG/WXNLf5fA/F7LN6+btGVwdASiRYvWHHP8p5ba9G5+f4oD/jxF/qGU8DlHoHbxn6B21nleFF7Lyu6ylUXpFLhLTkEK7rUTvigAPXMARCeAAz8VD3JHZMmY/6uK3ULAppXvqcCO2/imVLgkmPPK79K2v1hPIM0OwA6A5ASEvoMUudMqgqaxL/eNfag0YTED+sX9ELjjx7J40KyZby9gDoBbJi1g14Jey7cgR8CkBqJGIFq0aE1W1X8y1Ox+1tTw161uG6D689ryFlzLHobauRdCzeSTvSgcgzqP8qVufWbRiF0Hdam8DzMEVDQoOQCYBWgBu8Z/zQMsDxQFkZ4GdBIwe0uYFMiBNbu2MBkwRLlr0b0G0hILoAF5U9kXM4Xx8YlPlQYaNYQVGDFuTJb7t3858ONlGYENLjVgxIKxaiBatGhNw9JSpgfrtw4aXb+63SefDvSRol9xBmoXXQ+1042CH+fZOVjLtD89XhLwcSDnXf1ce1+i9CfATo/xHQPfmbh56EUquHGwwq9L0axEzRcBbq0CIESd+wDudwT0ryE3E9LuqanvixnN/PL0V9X8P04FTHt3ruoAzOm6pLS819PHRiOwcca2983/a+b/ucb+/z5atGjHsaUNfK6HHSPK6te+tvPQRH2+eE8c8mMEffN+C7WTvoUiew7oHPB53T3XBEhOgvy67wToy7YEdsp/7nD4TEXr8l/mR6sp9R6MXFGpn0aXc6Eez31LYBgS2oVpfHQN0hJYp+hDn9WU9+Wa8uvhiYlPwTvze4oiwIpJI1XqP1vMAZDWoj4rV2xdsOOd0v97saFQtGjRGqFl74Wwa0rvZBSvls9vSPMedw4p51t6Z5rbD1H6kigvBXx83vgT0uPSv2JaQHcAXETvro01BnYOgM4u+IJBe98dh50XBFwMZjYKzqOucU7eB03315TE2dI4DKQaMPvgzpoO8Vw66lAoOQ08Ctfuuznti5li2Gl2Z8IKTOo7MxX86eCOqf+8tXTA6gW7Vu0zDYUujC2Go0WLdjSU/efCx0s71G3ovliK4Olo3SKKfi4ATEV9C6+D2mktiSrfAadP10tRtRd1c3Ff8ByJLfAdC+pMsHJAdE7pWgHB4ICR54i0tfTY0egUiCRKPS+qJmAYiKTJfTCQlQAUg6ZGxVvAzhMMNud9MYOK2k1/GYbMqEiAu3M+sJccgRxHAVcQLB+6duqB3TWmxfC5sXQwWrRoh90A4BtQ9/FT9Vs+mOR32uO0/QvBiN+n+NP3Vr0AtfMvQWN1BTFdCUQ53R/K9zMgztUJSEN7uLAPfT5jEvCoX6+SwDgLOPJHnztp1GlitKoJ2rhIzvbGlyJUDUTJsSiKls7jpX4X50TzUsRsS/J4JUGpKQ+6tnefx8C+tLu9C4y4YwrMfoPX/3PKHz3OdRaQVqDb0k9Wj9kwIhUKfiP+BEaLFu1TGwB8HgCugR0jB9eteXlPqC+/7cyHHQQZ7NlrK5+A2rm/gZqJ/5IAJq6nz5T5UrQulPgx0E0en6CI/7gwLwHxWhGkneAwSwPgUkCSgvArEbJ0geeIJGvF2G+JEWYGpGnXOguIVvAmnUPOw89x+V7p8SW5AjxC0Zf5IH2xEH3jUkBMtXsrTRWQFsUKZd+c9+Xat2+Gt88ug7dalkGPHwyFypsmwYxXF+YAu12CYxBY83su37Rx5lbTVfAa8/9u/AmMFi3aodL9P4Z9CzvXb+i6IgTq8vMCQsAVraF2zgVpe1xO0Z+Q0et+3j+l3j0HQBPm4WoBjar39QQOtAWnI/1cc6+ucRB1Bsi52XPkPKD3949vIdLcPhV9iaPXhXG5NpqWInCNSreRuRQJy/fhAzV5PwVmB+rMGUDn2ucWVCVnobnvS+vbXiiB/9ulNaTkDLxzzhAov3YiTHtpQQDki+sB+FrSb9XCPWv3vVb6fxjgr+JPYLRo0QoZAHzNUIn1m/tN0pX7Bcr7mHOQ6QOMon/OL0RgViN9RukbsPVz+RLtb0G8Rb4+IH1sWYHaKqs/wO9/yasEcOLAUNmhYx+IeNA4BqnW4NYhv1cBSItoPWAqDf2hUbdEb9uIGXfKk8COU+ic7ndjef1ufVYcqIEtp/Bpr/5L/THAzXBfruh3DXT/4cAS6Gfre+kyDsHZZTD0mgkw7aX5ASEgZQM0fYDnLHReAitHbBibpgW+Fn/+okWLphoA/C0A/LF+58T369a+voN27eMd/EIlfXkRP6bdhbp4JpZLANLV1PtleBLg04je7wjorumuFxrla++Vj/zFkwEd2+CnFtDne9UKyXqq4n/E5jl2cbGcAUhLvYvtbQVg45Er73zH6XwO7hIgSi176TAheg6/lv18STTIz2lu+/LII8+Uov13vucif/PYPrdOgFnl11XB9Jf1LoEh0A8xBQt6LNuyadb2d83/2+b/8fgTGC1aNGIAcArUbH++flOPuWJEv0Zr4StH/gT8Vz4JtXN/LYj3MHCiCNpTy1uwDlUDUPqe0/WYzvf79OOUgCQC5M4AuufSCGDdocGLphN8IWPX4T/xokkc7XpAxwDRgpBUX89z8SJtzfr0SwDMaXQJ2M3fZHBQGLhJ5C9E+pLj0Nz2pdN/93Hgb4D/XPcY/8Wr4vqJMON1oxEoRv9jxiDkCCwdtGbOJzsOPG/+X48/f9GiRTPA/w9GMFS/bdTgujUv7T+0nvwaE/AC1M77PdRUfZUAqwNC3kWPAi3txIcjbeoAaKV3FGRDKQV7DXtN/jmaxkCaEiiNCNZKFanDMWTk2RlQ4S56oZw1jrRDQBfKpWvUOX6MlfXaORQU5Ta/GMi1kjyPJUiBuLnty71P/pkAewnsv5c6AoIDYF83y4gFh908CWa/kV8xUNQBMGte9+r96yZuKUtFgv8QfwKjRTtODQBOM2N66ze8s/DwAL8D/9r5l0PNpG+xsbi+6M411uEArrXr1cC2iBAw9D5PRWjdBTH4a/cnNw5y+gJcEeDenz763xHA+BGsFEnzsjct+lWj75z35bx+CHj1+6PXUNrxonHBHIib2768+pu3KfgzZ4CkArA2wKYGWpZB7/MqYNRdUwnYi+Bu2ggX0AVYZ2Fx35VL9qzf/4r5DWjs36Fo0aIdRQOAvweA6+p3lKL+Ar37cfle+NjaRTdC7dTThSg6nLdPwDEUwVOw9Zr0SMp78fNCQr08J0H6DjRN4c8DSB+TKgD5s9aM/aYPiGg8rxSpeqDEIlFJeS8BXQjQ88BQAk/8lzsA+DGuAgh9VnPbl9vb3e9R+1m+P/3LHQD8uFQ1cLZzEt7/nxEw7pGZh1QRoK6uS2vXjN1cYX4LzG9C/BGOFu0YNwD4NtTseK5+Y48Pi1P5OvBnA3uq74faGT/IlPmiCE4tp/Pz4RpVny0m7MNVAXROgANmfTJgyFmRhIehayTfmU8WLLIvByecmIFiqIGNRkljQCV18lb9jurtMTBrE/BCoCw14QldIzuWR+HpvWlRvwTazWFfXri0MwV+uxQG4J2zEROQlgsmTgByDFqWwYA/jIHJz8w9rI7Aog9WLt2zfq9hA77d2L9P0aJFOwIGAH8DABfD7onv1699dXdDaX03mc+IAa0g0DTxeQYp+3FrXASWODonjXNsb/4UvLEIkFcCIKeBNtVxAIpBVy7T09IB0sAeyQHwc/q2QoFWB0iVCMX25c6hv0E96BOQsiDD+9fj/DgWrnmgqArw5Na5IZCX3pNy+laJj6sD8P3a4+x3xfeAo3PaUKh57MvNne+Qaf6WCdCXXjPVALY6II32MUPw1lmWBUCvpcscO/SaKpjZflFW7sd1AfpSywtr1o7fNKT0GwHwN/FHOFq0Y2tcb+v6Te9Pk8v18sr6pPfbQu2Cy6Fm4tdzqHYK+rxZjkjfSx32+Lno+vIQnnCELh8jlQoWSV9ILMKJh7QvbSr+m5TFYZpa6rDndbLDoCUM4cmN0JVompfEFaHppWg5j2rn39NrItQM9uWZG171qX+N/hfYAZE1QA5A0lRoCPT8UTmMLOkDQiCf5wSwSoH+q+d/svPAc3HccLRozdwA4LMAcF7d3gVd69d12uB37pPy/Ljcj3f1S9fSu6B22llKmVwO+BHanwOsi6wlqjyJ/OUaerycPgB/tgNneSQwr07An22rFVxjID/NwED9EPflreE/9gCW19J7VHkpwtVr6LMlNNAhVLagZMfRNI/ynSqfKvYlcJVaArcq4BRg2r857MvVPW/MInwi6MMUvxTVC4AfcgocG1AG/S4cBROfnBMU/vkOgO4EfNi9evfGGaV2wueZ35DG/h2LFi1aAw0A/hEA7obtlZVa3/58YR8f1vMcovu16NYfdBPM5ZPImUbUjrrnqn9cQSD0AhAi9EQjgNsLyz38aWpBSgFwMNfr/g9lXypHtfQiZx/kaJMbv9lOfn4++5tFybaNrtLDH1HoUgqAg3mw7l8Aef6+9Lg57Evru17wS/wQmEt1/2LUjwDeExHyx+l1TSOh2Z0W++BvKgS6BpoGoffwWjZ03eTSbwjAP8Yf4GjRmokBwMlQt+/pROinD+4hY3wDw3rMe7WLboCaySf7FL1AodMSN+k1B5o+wGPBnaPt3XFfCkb/YkoBifCcGE8WJdbmTQ8kcwAsO3DSYduX2aNP8cBKUtG711yuPRTlStR5AmBs5G2qrOcAjXP3CUDKtL0FRd4gh1PxhEJHpX/Sa7yEsKnuy2X9r4Q3fzhApO0tC4CdAkrp+8yAZQ1sqoC/xksIzfN3/7MSxj08kwC6Lf2zzoDfalhfC3otX7tz5Z4O5jelsX/XokWLFjAA+BwA/Bx2z32rfl37bbnK/Yzut8I+LPBLy/qWt4baWefrUa2QOzegRurfs8hXquXHTkAoohfa64plf7w5EL8HrWbfKfcPpnS/E/YlCzcmovdy+PZl47hveGAXUtxLdLhU3iZF5Dz61j7LiuUuGZzQ/U7Ylyx+XSlvLuX5aRQtzRfQvn/T3JdHHn3KiftMCoBF+ASwFdqfpAPOpmkEXBWg9RGwrw2+dFywrbCcFpDfn9tlae26qi2DS78tAJ+LP8LRojXNjn5312+rGFasqU+Bmv4FV0HNxK8FQE5fcnc+rZEPb7qj5fjDQj6/MY/sSEhNfKTGP1j5X+zah2dfrhzil8VJdHgIoKTcugR4ITB0tLpOxRe5dpGl3Y+Uamiq+9LxZ+/6oCzR/i0bsAQhoVdCKKUczi6Dnj8YCqPumSaCf1EWwB2zFJaVrZmRpgRiB8Fo0ZqKAcDXE5V/7zm2Ba8+kleu73eswIvJtL6ZP1a798nRrhxtS/3vqdiOg60GjvQYN4JXYgJSoZ9XSXACE+/J38tWFWBWwHdEjty+3F/+GxGcJHBUAczWvPNa9rLLBcX8JUS8pwn1iHpeiJylOn6NBdCibWkuABbbNR6E+54AACAASURBVNV9ueeZR/16fu4AaEI/RfBHNQCoYgALC01poeZwpMcPvGhMaewwTwvIDABjAtjzBb1WrN21Zt/r5jensX/3okU7rg0APgMA34d9yzvUr3tjvTqFL6eZD3YASlF/qXc/Bb1Qlz4SHXuNeDQgpA4AzfPziB/fhx95693/tOhcisLlzzAOgE/3H9l9aVf53160KeW6paiXAJPS5U6LzvOiZJH+Vu6jaJc+3ohHcxC4A9DU9uWV33UnDoAm9nur5WBZ3e8dxyoHNAeBOQB43gB+recPy0U2oGHlg9k6uGHalr6l3x6AzzT272C0aMedAcBfA8ClsHPiB3VrXj5AAb345L6M7l/xBNTMOA8NxdEAVQOwALDlRsgWMGl6gI7/lQbv0M/yKXvuTMgCQjp0iOsTEtr+aO5LrxE/YmDIaXD5ua96lyl7HzTDQjkJXDEboEX3eeCvAX4ec9DU9uW2V+6nAB/oACgq/4u8XoQ5sI+RA8AdgsGXjIMZry3MTQFoA4bw6yuGrR9f+g0C+OvG/j2MFu24MQD4PAA8Vrt18FgZ7BvmANQuvAFqJv0rASeuhvcBMhTN4tdQu960/h6P5qXLZwRoRQDutkeXFe2VBHyZaM9do/R3wpcZg8AZBfxZ0ntHZ19GjjyTAJ8U+XKgwtPvfDX8FSWhWmlldfv2GmZ0bz7QBaN9FFVrACsDuP8ajviz+ns8mrcJ7ssLV7wRAHHU4Y/R9K4LYMAZEASCJZYhYwhYMyGFEcDPe59XWZorgLUAvEqAlA6mj7OSwW7OIVjSb9XCugN1T5rfpMb+XYwW7Zg3APhaku/vNY8CPgZ92swnBP41s3+R0x2PAmP+lDyWhyfHSjl+C/y0CRCP4B0YWwfAAX32uOrL2ftUxZ86Cdnj0P2fpDAIR29f5o/5fxnASdGrBMQO6Byg2ceXll2ZvU9V/Ckglo7Xo2T+uUVEdRyUQwwAzsPjY6Ucf1Pblxu63CaO9g1F/gSUQwwABnx0rNRfwAI/FwJq6QhTpVB+bZVfGpgCvFQ26DkJqRMwv8eyzTuX7+lofpsa+/cxWrRj1gDgTPhk3ct167qs1fP9kvAP1/2nq/o+qClN7ZNBioKuLWGjESytpfevY6Nldxyn8S3wIZBOwR/T/jg1QHv8S04C78bHI3smFpTEgypdf3T2Zdu4rzPw0lTo4Z70HGilWnx7rJf7FkRyGl0vvs4a5FixnHo8/sz0OE7jOwek6ezL0ze/mt/GlzMCXmSf6gJU2n8IOQ7T+qQaIJ0tIIoC01HD/L0PfjECJj0zt3BfAFlAaMSCSw5unLHddA88s7F/J6NFOxbFfj+DvXPfql/7+i45mue0v9wAqNTDf/5lQs97bWFqnoOwT+Nzhb8Dc0eTl8Cu6sslSr5Icx/986gj4FP2SdRPtQUnhlcT2Zdrh7QqlIPmQCyBmEjLZzX9vnJfWrznfeheJKZA/QxF4e9o/ATQTbRuKPmiufmjsS9X9rqe1e2Hc/0iU6CVBSoKf5I+MIB+7pBk2fbDoXvQPu/ssmymgAjuQjdBcXVeAqtHbRhe+q2K4sBo0Q6b2O+q+o/GDCyW37fR/guoHDBdq56H2ln/iYbunCCI6hTgIxG1O4dO5pMjZjy214Efzd1roKrn0fHr9hq0oyA/J7mPpB2wmykggHQT2JeHy3+dAZ0EqiEFOwVQR2NLUbMF4aTlrSl78zveuaE7l3j0u+YQ4IianIMm82lMAh7b646jufumsC9/uef5JDI/S6DfFYcAd/2j0Xqazw8yCemIYHxtG9Wbv9YBkJwNTV+AXi+7fHwJxLH4Twb8pckEwtIUQv/95UPWTjW/WVEcGC3apzAA+D8A8ODahUOW5QO/xACg59X3Qs2U01iUyvPcGExd/txR3DZ6lYCWj9zFY3htFM4jXv75LpdPI3cq6uPCP1+5j6+L2QUu0uP30nT25dXKnyLAQjlrFKG6Tnxc8e4ATqudx1E0F+lJoMjz8j6Yuvw5B2erA/AV9zwKxwAvl/dR4V/j7cslA66Arv/RT+3xT0b+2rG/DJytDsBr6oNEe9lxFuCZoE9iFUrHnZOwA+Zvli6wHQpROgA7D+bx+z8fAZOenuvR/eEeAr6zsLjvqkV1dfCw+Q2LIBAtWgMNAL5gxH6LZo9droM/b+HbTpziV7vgSqGhDRbhSe14uYgOg6kPjkn0iiNlLLqTOunx5j4GDHE+PDmXTu6jaQF7fV8vwMSB9j5QLX7WSKiJ7kuf4T/IwMzkxDmA4Ql1HpWNxGs0L05FcPZavBa/tISImEbYvrKeOwEWTDWwxb0CsOhOdjJ8hX9j7stDf37Cy+XjiJws5gTYSF1r4IN7BZReM2Cu5Pa54t9c25zPgT2rHJCYgPT62AEZde+0nBkC4YZBpaZBvZev3bt5fzvzWxYBIFq0ggYAXzHgXzlqzcLe/ZfBzInDmNgvFO23TZv6pPn+Ob9Qcuo4h+5T3X5pGytfCw2+Eel7LSeeRv6k5p9XBmipAHM8zq1zMSG6jgH/1Jmwnf6a8r6MG3VGFsXyqFqKzDlgYiEdj3otcFqQy0ATd/oTaHQaqWvUOgVgLLLTBgJJ9L2WhnCORePuS/v/6e1T61jZ31Ip+RMGBWkDgUT6XtEKZI4FFvrxygAlFWDexwJD6zSUX1Ml9wUo3jAIPnx72Y4dy3a/YX7TIgBEi5ZjZurW7t0Hni8bvmqVAX+7Fkwb1LC+/itaQ820c4QWuxjYpOhTmsbnjsvy1jaaFoHOdr5zeXYKuvw8C+QckHE0TiPz8JJq8hl70MT3ZemYkzPA8sA4fY0DrQbeEkDnHcejfe1afmTOmIM0n2+jackBMH/t5L0M8FmjIa4paMx9ufvZhyngC1G5F5l7Yr4kn287/kkOgNMMOOeBNxrimgLyfqY7SF/zWgmHl7le/9+Ohukv6UOFxJSA7RmQrnldl36ydd6OHnGiYLRoAQOAMzZu3vd6v6ErtmDwN+vdActgxew+AQcAMQRLboeDE08Wyu041W2BT4pu+bl5Snp2fbUUr+ii1/Vr5+VcPVXXSxUDLZrFvuwa/1U1EidApQzG0crgeHSNo3oJ1KXPxeDrpwH8fL+koOfX10rxiq6juS8v/yFp+8tBFYOvlwZAFLs4G0Ch50V2oCGLsxFCGaKUjsCr908qoKr1bA/kGzJUyAgGN0zbZtoHnxFBIFo0Zqav9vJVO7t9ULZ8twT+ZpnHG+b3UPr4J+Bfu+AKgQ7XQI/XsGNhHj/P5r0lsKQUOW2bq1HtUpTNrx1yCniawM+p+zX9zWtfbhp6kahOD4KzIJrzQI9Fuz4dLjsDGpjK5/mjgkNOQJESwyDTcJT25dbX7tVpdQamRGTH9AAiSAd7ARSL2MUSw5BTwNIEotYgTTPYWQJaY6AizsDaqk1DzG9dBIBo0VIDgPMXV3/Us8+gZQcs0FvgTx5XZ6/1G7wQdizpIrf0nXuhQFtTFb0mVKMAylXqHOhk2prW48tRsFSzT/P/0uJRdkLvawI6nxlo0Sz35bHyXwUjVh5lF1HzS48p2FMVva6Wl/ruS0p8P7fP6Xw9+tai9ssbbV9euLqT2FBHAlBSnseV+EJun9P5nnMgAD55Tbgv1UGwGgN2XSl9gR9XXD9RFwcKfQKkksLVozeMML95EQCiHdeWNvj5xbxF2983IG8jfewEcAfAvFdeMQs+XvEaAv8XoHbmT1JgksCPq9Y5Ze6DZ9ZH3+u9L9HvOFKWKHF3rA+GnJan958cJ99/fmWBfa957kuHyv8UgBaDGFXdF4mW6WNfpS+p+f0lXTMFSaTk51oC+bncV0C6Z6kC4Wjuy41v3kZL+vgSpvDZkjus5OfiPvE5E/NJVL0nEsSlfVKVAS9JLMAieOWF6UCh2aUeAAIbIEX+zDEwj1cO3zDW/PbFhkHRjmfw/83sD7cNwDQ/dQIS4OdOgXk8euTkJOpf/hjUTjsrAZEM6DiN7sDHb04j0eyhyNoHr2J5clvHH6K+nXCPDwGi9f/pMR548wi/RbPel37Dz8nAR45gccTthHG43E2OZFPgLNXO+zQ6AW9eBifQ7CFg1UCd35dPz9NeABqIH819eeqWl1njnpzce4ieV0A9Vz/AegFoIC5+PmYisGAQlQHyzyeOiOkpkB7T91cjYVq7+UIPgOIVAisq1leZ38DoBEQ7rgwAPgsAf5wxZ2sZj/x9J0BiBJI1rGwQ1Ez+vxkFTQERg5AkTpPy6Zyidnl2rGz359r7dLasmJeofj/6psDJJwA6yp2q9iWAbt77MmnU6YHolU+6wzl3vRzOAaRUF5+eg3r2S3l7XrqHVwa6SPGPnYi8XH9enj4/qj8y+3Lle9fRnv1S3p6X7rEJfcl7WPFfbHiQlFrQUhDquSj691IR2KHQHAfmKJi/7/5nJUxETYMaOj/ArGXl6yab30Lzm9jYv8vRoh0t8L942qwt5ZLQr+hq22EuXHjVMHjzxTsdxW2m4aGJeLLALQWc9DjeOIef53fek6huBGJ8Al96Ds2hO+CT8/40msaNgVy//LRjoJeLp85Cc96XFWO/5UWiPn3uptnZjnjmL8/Fc1A010j667uJeDwSx+Boj/Ma53jn0cdSCoBE36jxDj6HfkeZ6j+a+/KX+9vIkfq5KLJmnf+kSDpLCygK/OyYc9hwH9YBEEfmKvhzlgE1BrJzBLKOgUyjwJ2F0jXs3AH0Xo9zh8L4P8/yuwJ206cJcg1B2jr44ugERDsewL/VlJmbK6WIvij4P/XSLPjVFZXZ6t/+KkaVW3Ebj4Zddzzag9+ntP2cOX4uRcwIIFHHPRcZS3X+6FqlKFqOnLkTgL+P1y4YfT/8XnPcl/3jv5Q0pFEiZw52NOJlQJfOvaftcSmgy5G0O88/JhydaywBZgp4xz3e9EcD+6O9L13O6+sBZNZmF6n6i0TnoTJA7DTYHgHOWfCpfQ72yTkyo8CdAMIEcJGi+W7p98PvYUcHX3f0fdMJqEt5f00gWGICytZMM7+N0QmIdkxH/gb8e/Vzoj4s9OO5fyn//2ib6fDLyyvTVVFyAH595TAY+/bvUhBLo2OhXM1GoXzEbrJoW10v8s7OPykdlhOI2lGtOwU5B4wOCFugc07wAJQODsLXcrQ+B1KSPrARfTPdl1uG/C4ZRiMq5V2OG3fJw/l7jeq2EW5pwl5GebMyvjQ6l0bsysN0EOhmwJoM1AlF7bgHAL5n8p1TB8F+ZnLO0dmXBx57nEbDaXQujdglLX+FXvsZsJoa/7PCUTvtAYDAn3cCJG2E0+tKKYr0XkmrYSIK1LUDWeRvWQOhvHH47ZMLOQBaBUFkAqIdy4K/PyaRvwV32QkIMQEPPjWVRP7YCTBrzvvnq3S1X75GaWqrbM8AzdLsJCqmOWstf+9HwxQIfUEeL5mj77tueVwTgFsI03viZXvNdV+eqPgfvcbditu83Dcu4fNpfQrWMo3vl/UJ56cgjwfy0OhZKqcLR/Yc/EMMwNHal/a/7EkU/VxMxyPsDOTRQB4SPTMHIZS/l3QGodp+tWkQ6iLoaQJwC+HA9wqlN+z7FTe6MkES6adOQeYcdENlg8gRqB66dkqqCfhMY/9uR4t22NT+U2durvCjeh3weWrgnscmI+CvQCyAcwauuLEPrC470wcwVQHPQQsBI4mILT2uUeCcDm8hNNORjkmO8++Xq/Q5sNL39T4C1hnwKfvmsi9dh/0kAyYKbH7O3lfxy6DrXpMoe7nBjgTm5HMIje6i/1DuHl+PNxmSjsHH4fs9kvty5/MPeTl4KX8vKvetM4AdB6SkL1SOF2jdSz6LzR4wn0cAX6gqwN/BU/xLKQu2B9q+DL16ghft87w/cQbsa3accMW6ibE6INoxYabWdfqcLUOknL/MAuDXk7+3PVwFF1xWARdcXumtX9rH6fu339kZdo36BqHQLU3uaGc9/0wXHn0rASY/n6vg3XFyJz0ZCCnVz3PjqJ8+aatLV/b9xJ78zWdfykae7cAYUdrSsv30CaUuUOlSBM0j7tJx6bF5eXmaFnDpBI3y584FfnxxDmCLUf8R3Jd2f+zKwDdR8kvDeFQwx/X3kiMhdf/jj1vmALbYRthR/dKycwZIqkEZNiTOKgjsy+DLxheqDCBOAS4RHLZ+nPntbOzf72jRDtlMt6tZ87YNlEG+yKqGPz2Ygn9pOaDPXrNOQPrcsAGPPfJCBkp6dz2pbI7R30hp79fcy9dzgOaeyyN1OR0uldApQGxBPRu+gxwB3ms/e05ZguayL9NH/7tKk4tAh3PqKeiR11jePY+al8CagjN6jpX2rOY+dD0e2Uujhvn3l5yXw70vt7S/OwjsEvCK9DlS2vOa+9D1vHp+YdSwlyaQQFpxAiyoOwfAlSjyGQT2eW7KAn32wIvHqiLAjPpPUwFSF8FVozaOjB0DozVLM/2u5y3Y/gGN6qsLMgDJuvH+CVmEj0GeMwDJe+65cQJefvpRD/S8SFqkvO0xTCCHgI5S3lI0jyNvrKqnIO9N0PPO1SJxpqQXmQAb4TtngANuc9iXteO+kYEcjl5DoGojWinidRE+jnT1EkCNJvePpcJByQHQqHn83XA5ngfybLLgkd6XNte0L5anV1oBZ6CNhYOCA6BR8zjyJvX4HkNAJwvyc4OVA9I1RGcCOSPMEQnty8A/jpGrAFj+X2sjvHb8pqFxdkC0ZmVm4tWipTt7UeAPgz3O95sqgRvuHU8pfrwuSzQAWBOA2QCrCXir3W0KvZ4AVQK6OHr1lfd5+XdKXTva3VLpfrMdFMUT8OflcRz0+X36DALXDpTAmI0d1iL1provByecCJcwJbyct1bU854ozqnopfp8iV7HaQH+eZoToeXfMaVPBH023cCaEOEoHoM/B/XDvS/Xd/9TENzo2F29y18wate67pGSPkvBsyZEKIon4M9AXXNUxPRC9rlUO4DZAu8aBfal/+9GZ62DtWmCEvgnry2F9VO39I9TBKM1CzMzr6tX7nzz3QHVNaFaf03816t/NVx/zzgi8sORPlf+mxJAs6xz4KoDkucDO14uUNCIHg/S1VJum0fTUvScHEPz8Fokz4GTR9B6xM4ZAhp92zy9/Qwf0JvLvtxd/jsPREMRe1hIl0ToFgR1QHfUPKbHQzQ+f09yEIIROsrDa8f5+oAjsy9P3vqSmu/GIJ2BY4jGl3L+zEEIpwNQHl47jusDFPGf+FkhgaGt+UdMxKHsS//fjobZb+R3BhTnB3ReApvnbutlflsb+/c9WjTVAOAr6zbua99n8PK9Ug2/rfXXGv8Y8DeRfymiZ2BugZ/+9Rc+xzoJ49/+FQIiDFY4ktboaylaDg23EYAuJ6/uImv7vtSxDw/KofeWn9fnwO0+vznsy3MVP0/Byi/Zw5F2kVx+KFKWgJOU5qURMwf+/NSBPvRHcgDy9AbumpcdkX25os+18Pa5LpIVgZMAXXosA8Ncipz3EZBy+MgByNMbZNe07wsle/izCuXyAwxCQ/fFOAEGzHPHBkt9BLotPbCjendn8xsbIShakzMA+MJHOz9p22/Iim1ak588+t+Af0bpMxC3r1mhn1leJYDIFlTChVeWw7wPfsw64EkA6RrnOAqbt8WVKG4McOi5oMDHdL8eUcsATiYIkgY9llKnlDsFWl3Z39T35a3hP1bz2x7VjnLvlubGJXRY8R7Km2tOgtY4B9fQaz0GOAvAwVmsTGDVB5KDcrj35dH7n8lV9mtUuNc4h48EFmrpPRaAgbOowGfVByIQh+7Zvo81CSn9T0oL8WeF9AQF92XAH8f444OVdsHcCZj3VvXOvZv2v2R+axv79z5atMwA4P/U1cHjAytWrS0q8OPd/25KBX886jf0vn3NdwpcOgA7AdJ1rrypN6wdejoppfPFdhzEbAOcpPmNK3njNHseiKPIl+T8aaRtH9PP0MAZf66fRqAgyil6jd5vmvtSOaqlSH1LgEg63uWcwyn6ELBy4Zwf/TsRoO2iZ6/JafY8EMeMANEHCMcfiX3pfP77hKIPAasnnJPy+lb8lzYFstfkNHsuiCNGgOT8pV4BQkpAAmfyuXnnsNTFoe5LSRjYVa4EUHsHpE7Awl4r1tcdqHvS/OZGCIrW6AYAfw0AD5aPXL24FOWTVr5c/Cc/N6V+Ep2PhX2+FsAxAZgxsKkDzBDY9+66uyPsG/N1FyWTSDSUT7cROAZY3EkvBUeiisc57hZQW+XX72divwx0nQPgaHhhofvW2wBTxsBG4cn9SqxAiya7L7NHn+LR8NLCEbTe7tZX4FsAl1gBHCWT6wfy6Q5MMcDiDoPpsp0E0fWzc7MZAVT8h50R8j0O077c9/hfaBRugE6IfnGUTCL0QD49A1Mc8adpANKBz3YRxNe318mmCfrKf/dcoOGFRZkFpQ2wUJlwOPbFlAjy9sAk4meNgnADocV9Vy4xv7nmt7exf/+jHceWdvm7auS4tTOKqPul125/ZKJI4fNa/5AzoFH/nkNxeSU88ec2RNXuauQ5EOJly9VoHtwBHc7jo4E7HpBKlHw6UtcDY56bR9fBUTrqre9fJ0z9EwreAHET3ZeN477uRbUcrHlNO+mtz0CvKPVfOkYQAkq6AbquUPQBvEGQYwU8oFbq/kvOQiAt8Gn35bVf9ciluEsgyKJvWyPPgZAsO1WP5+OtE4Dy+HjgjgekQqlecq1AWoCDNav1pyOKmTNQkPpv6L6UXT5enBHgOQFC5UB12ZoZ5rc3tgyO1mgGAD8bP3nDWK2Fb17N/12PTRY7/OGaf+IcoGN5KgD/1VIG9vXXnnkoBSdec++DEKWy/cE4Gsj65XIyFe53/cMKeXpPtOZfO5Yq8R3lz8V5PnCTe2pi+3J5OvhG7GSHatsxCPr18RyMZVZAE/aZKFvrpOfOwzMA/HkAuvOhK/gvDnT9k77roe7LHW0f9Oh5iRrnNLqJsvVOekgXYFkAaWCQBrKhmvuWga5/HNjJPWH2QDkWfTam/A/3vgy9psofEtSlmFBw1aiNo8xvcITAaEfdAODM6XO3DgqV9Pn9/V3O/4Enk8E+FqBtrh/T9/Y90RlgaQB8DncgqGYgOa7Hy39iFHq4DS4VyvnKdp8ix9ExFcrx0b7JOXyojjuXgiYCYa+PAIrgCcjSXDum4H224aQmuS/3D/0NA1M6qAeDMK+X1/L2PNeOKXgeVWePG9wemHb501MHmDWgAkI+2ldyLg7HvrS7pKsDY5RrJxS8VEePKXRBoCct+jmB1AFmDZiAkI/2lZwLch2cZkDfyesjoOkZjtC+VNwwsXh5IHMONkzb1s/8FkcIjHbUDAC+tmTZR2/3EsR8RZYZ6Yvz97ienzsCWS4ft/1lQj8e8UutgkvrirRfQPr6kDcuCdDnXCCHI1wcWfsCPJzLl6hznCOnSnqav6fvSaWBuKEOvxf8V0kfWLC39D+L+pvSvrSr/G8SvTuQ9EvgrMqd5+s5YGo0eQbOLPdPgF8Af4mW54yDJsCTHBTsANApfi5twFMMh7ovN3e8U8x385a4JcDj/fFD9DkDRA7OGfWfA6ZiOR8uI2RpA55iyJwHaZofbjTEPpPc6xHclxG3TaEOAJsNoDECc7ssrfuoencX85scITDaETcA+PzW7Z+89P7g5btDOX6eFrCPn2w306Pl+eIiP9z9Lz/fLzEF1DHAj6t6/MJ1nSOldH4Uy8Vv/ntpjlsE4xN10Rw6j4jnPEEdF+Hh7n/hfL9f78+idcwkIH1BU9mXXsN+5AEiL6vjQNfQfD8/NgN/Nignew2V0knRvS8KlKN+yUmhzxnIo0mDdKzvoe/Ls9e9rua1PXre69JHXyOldEJ074kClahfAmPynFP0aNIgifaZ0NC7D9T9ryH5/sO9L6PvnU5FgUUcgK5LYX6PZdsO7K5pY36bIwRGO9KK/8cGVa5cU0T0x52C59vPLQGvFunzSJ5H95JWgDf9wWWB3rIMAFq/vWowLOz3fWEErw6kruc9Fe75JXZuufa+2vVPDET6EvDi16Q8PQXn0LheLADkq6nsy6hRZynRsRx5a3n6IuDMGYCLC7bRLeJk0PsMtCBOFf/a9ZPqBTnSb+i+XPv2zYXAmUe60pLa6BYCU8wQ8BI7spSZA1iIp0T6EvB6JX4SsB/FfRn36EyV9uesAF6LP1i51Pw2x8qAaEdS8X/psDHr5vhiv/xGP692+TCL5jngY/CmkTwu9ZOjfZw+kJwJ0cFgqYHrbukJ68tP8SJZmnu39LWW5/aBTmyzy0EbUfL+52HwpkAbAmSab5ccComCd8I7DMrhsr+jty/zx5ziCeq0nHsIkKUcO3cGPCC1/fkRKMtOhA/AZJZAAQdAEgpisKapCvneG7ovrW9vK+bYOejx1xxtLuTchbI/DLakPK+AAyAKBQnAIuqdfV4IdPMA+Wjvi3lt4tNzCzsAmBVYUb5usvmNjpUB0Q67mYlUVVM3jdIU/yEHoEvPRXDRDSMJBY/pep/+L5IioCDvGgZRYWDoGlgkeN997eHjcV/1qHeXi3YAZcAOD8+hIjYpBy515fPpdp+ul7rqSeyAdAym3zmQ+7X65BqeSLBFo+/LtnH/4oGnRHNr0bAP3FKjHqFWnw3KkZ0ETr+7aX5Z3h05AlTc51P+WGDIF05DSCDf0H257IOrofsPB1H6nTfqYfl2H/DkPD2m3rOGQAi4E5W80HKYtwcmokE5yqZ0u+A8KPS/yhIoIsKjsS+9z6+Aae3m+/S/MjEweZz8XTdpy+A4PTDaYTUA+PqHi3e8xwV/Rbr+9exXDVfdMTaj3H9xKe3jHwJ43zmgZYCcMZCifm1ugFQi+PRfnvaAjwKdXT6o+pEyFdWZRjcq2JWOPUHJq0sAz+8RR890JgCdM8DPkZack28K+3JNWasgwPtgnqcBkByAMH2fB7LYAXDv+84Gf+yJDc1YXsUJSI69RP3eDdmXhx962o98JaDLcIB69wAAIABJREFUoe/zQJYAnX1fAFUvKvdEdUhQJzkCZ8kRvvZdxPSApgE4ivvS99cjSxMEi5cGJpMDzayB7Ut2djW/2REGo31qA4B/2LRl/yvvDVy+nwN9bn//ActKXf54eZ5UmicBNGYLuEZAEgJy0Oelf5qOwLAH9pj2z97nAW3Sxc6p8t1fHrFjoJSV837OHZXnFci1+3Q7j66F2ntSp48ZAka7ezoCGuE39r48Un5hEKDlKFt3AnB/fMwQaLly5wTQCN8D2kykh8vyqFMg0f6Sw1FaLC1gyxaLpDzy9qXTf73ngxfujx9qqMNL5lgk60XhVqTHZgOE6PdgRYE3JMi2CC6gQWBpiEJOwFHel0Gtxup6gECZ4IIey7ak7YL/IUJgtEM2APgcANw9sIDoT+oF8MCTU0R1v5av9wAalfKFHADSMyDgTEiVBPba+LV3X72RRLA0graAynvxSzlwTHe7cj6pGU4JLKu+rDTKEejxLIrGOXb5Plz7XyHaF3sJ2HN5nr5Fo+7Lq5U/FYFdyo/jHLuUU7cALTkG5FpCH36ep/ejblafX3I02DAe4X7o9Vw5n9YkyAwikt4rui/3PvlnP6duI10JAHGuXejDz/P0XqSMIugMUHkvful+8PVQOZ/WJKg0c0B6T0gbWHaBaA+0+2iEfam4fmLhvgA4VVA9cM2H5rfb/IZHCIx2SAYAPx8xbv30ovX9tre/LffLy+HzQT40t+9P/SNOwWUM5NMpgZI+AKcB8H1g8SAvPazs2gr1r08jWxvdppPxeD7cDsbBx9uIuEjtu0zbc0Edpud9p8BR6vZaVlzo6wNohI7viwI5H/TTWPvSZ/gPvHp6ntvnPf0dkLte+q2yqFjWB+jUuj/Mh7yXMgr4uQVqlwZAtfzpwCB6/hU5tL6fgsBOR0P25ZVfv+Uo9RTMSlExHqkbKtcLDPPB79nIGT+3QJ2lAXA+PB0YRM5HTIFI6wtlfhhcJeV/dp7oFDSdfRl1zzQyC0DTBHBHYPWYDSPMb3iEv2gNNgA4efqcrYO16X28+Q8+7qU35mUAq9Xla7389eE/CcgbDYEBfz4GmKcJuNPBWQfeeAj/tWtyz5+hSFin3HnOm3a0k2hzXhfPI2/6ntzjP6HIXXe/E5KBOuQ6KQPgdRnkeXz+HEfkDrBJP/9G2Jdxo86gEa7Qy95S5K673yUJ+DNqn6cApDy+/xxH5A6wcWMeF2WHUxGcMZCmBNp0Au8XwBkJ770C+3Lbi/cmIIej7JY+1S3lq73nOCJHgI0b82SRcA7lziNjaUqgpc29fgEs8vbek3r8p6mDrLuf0RA0wX2penwOaRIk6QF8p2ApbFu46y3zWx4hMFphA4B/XL1uT8de/ZbVcZFfHgvQtdciaHXTKAK4XIiXV9OvOQAh+p+nAPKqAEK9COz647UDYfGA7zE6ndLnfh07inQ9SptS3X6OPK+m38+b++f6x9AUgBRhp8/N/ZkoPqXcfdU/B/mjuy+Lx/xbUNSn0fky/U9TAFoVgG28Y6J4S7n7qn9fzS/l9PFEPz+696l+ngLQvht3CorsS9tLOytgSKluTe1uG++UotWUcvfU7VLtvZDTxxP9vOheoPp5CkCi5EM1/eJ39pyFprUv755fCdNfXuBR/eLoYOQEmCZBNR/XPWV+0yMERss1APhsKe9fvmqdJOrjAkD+99q7xyn0uhzt8xG/GLxxz/9Qg58LWJMf7302cEhKDfD5Ava16295C7ZUnixE1q5VbiJe8yl2+tdGzDxPLgE4BXMq3nPUP6XQKWha1oAL6/BybYRxBYEDYKwLoJ8jtRQ+8vuyc/xXZDEf7nQnUOAEDG10HBjMk9X9M70AvwatDJDq9BlApxG4+Wwt9YCvpaUduGOjihyVfbn5jTsEQEyiXl9Y51ZW347fJzX7fq7by5HzyDoDuWTUr0ax42tp9LoH4Mr3yACYvS+LBpvOvvT7zSivU2AoBWBfXzJwzbxUD/DZCIHRggYA540Yv25aUaEfZgfueWyyV5cvCf009b5WCqgCO6sUkCYLykOEsJYgTSkIswPs+Q/c94rQc99XxXORnA+4WgSsRfV+bjwc9ftRuFPS+0JCXn6Xtf1FegJpdgBxAEQn4Mjtyw1DLqrPK3lTgR238U2pcLHOnpffpW1/sZ5Amh2AHQDJCdC1BZqKX2YGtKi+6L48c8NrgWgzVdILgjl/WE7S3hbnzaUe+RjoRLDTcuiaih+r5QNd/rRrBp2GJr4v5Wh6oDQhUGIGSv0BqrYMNb/tEf6iqQYAX50zf3vfJNLH3f30YT9O9DerUNOebF0xjEXitIEPic4lYFZ0BXkpgtK108/G78tOhruHNq2fICI8XxwnAV2LAkBOQd1FzTZvzvP2CDwlYBZAXU4p+KWENGLXQV0q7zta+/JY+a9EwMNAJwGzt4SJeBxYs2sLQ3tClLsW3WsgLbEAGpB7zkLOZ/B9ubrHjTlUuT8RjwNrBqQoYs+LujmY8YhbAmmJBdCA3NMJsC58/HwawSuagSa6L2ZmAGcBtOgfHVO3a/WejuY3PkJgNM8A4G+2bv+knan3x8CuR/7umNe6zVdpfAn0PbBGr1tnQIr+pTLAkIZAayrkv28/D7ce9jsKdn7hXoFyDw3skUDTj+R94MX0vTufAi8vzwunEfyoXIrS6fu0np8CuKf0P0r70mHYeQSQQzl/SXwXAm6tAiCUUvAB3O8I6F9Dbiak3ZMG+ty5KbIvre98QRSZhQBKU7qHqHMPwIXOd941lIE92j1poM9BnLwuRPkSNd/U92XSM367YK1Z0Ny0S+CiPitWA0Br81sfITAaMQC4eMiINUtk6j8p75O6APbsWw2X3jJaEfU5MJfpdYW2V0SAWhqBH881AZKToAsQqRPAnYo+r19HcujJwlP8ZDCneXYEfEIUn1HvgYgel/rpaQReWcA1AZKTIL/uOwH6OpL70m/498IRPSr10+hyLtTjmgDJSQgJ7cI0PtMWZE15dIo+9Fkiu5GmJPL25bL+V8GbPxqg0+VckMZz3xIYBoR2QRqfROCoJbAk7Csg6pOjeJm2JxG9oDtoDvvS52fDYfYbi3N7BPC1Yvj6Cea3PsJftMwA4NsTp28a7rf29Vv8cgfgjkcmqs17cHStgXt2HANs7RwtV4//JqWCtmSQtw/Oq0CgA4jIeem1hnf9vRJVSwp5l3PHoBYqd8NlfxywZUpfEuXRayVagBOykkHqYGjAzBkI2nSIawxoh8Ijsy8TR52WRcF5lL4kynOg6f6aUkFbMoiBVANmH9xZ0yGuMUCd+CSnQRIMSvctOSL4u+Tty0OPPJmBk5aTxsBoSuJsaRwBUg2YOYjZ6BZfG+XSyUAgCRwFYZx43xLgku8iALZE6TezfSm7bFyDHQCzti346B3zm/+/okUDgL9fvWZPp179EkDv1c9G+zl9/gcsg9YvzChExUv5eDE3z5wFia7PKyEkTkIOw6CxBZJjgZ0J89q03j8VqfYSYOcK4/jSc/NYle+uJeXK5aiaXJeL+4LnSGyB71hQZ0IC8MO7L8vHfot0s8OgKFHqeVE1AdtAJE3YAwaykmOBnQktRWEBO08wKNH50uO8fen48/d8mjsQwXIRW/AcKSoWAJSApkLFW8DOE8Z5K5CbJ6p8mxqQ6Ppmti8j75zaYAdgfs9lW9NUwN9HBDzODQCuG1S5arUO+FQMaP+avH8JFAU1viSuw3l8SR/A8+1YvS/pASTnIpQaCKUTOGMhMQCcSWh1XV9YNujsDFiJYr40wAZFuAzU5CheU/ozkVx2PSly10AUAXGuToCV+hFgF6J5xiSQUb9HYF/2jf8yiaDtsr3xpcg9lBPPnqMoWlPtY4dBFAui8yQmwZbk8UqCUrMidG3vPgV2QxP6aftyz9OPqqASAhzSPEc4j5e0ceDlUasUMduSPK6YT5ryoGt7YO8Dqyb040K67HpS5N7M9sXXA/hVAlwguKx87TTz29/Y+BOtEQ0AThs/eeNYCvB8yeWAV94+RgVhCfxJisDm/1kKQD2HAbCL8mm0bycNyv0C5LbD3HnhjkoG/nxdXgk339YNtg3/FqHnM1rcA1wJeBkVbvP/+HqZEE6K1oUSPwa6yWM7Uc/vF+DV9+N7JiDtADlLA+BSwPFh3cLh3Jdbhv6hzgrexLw3n6wngG7y+JJcAR6h6Mt8kL5YiL5xKSCm8sX8vO0NwD7Do/m175d2ObTX0/blld++JUzWk8rUEoqbgJhAR1PwREDFInAcfeOSN0K1e9GzbcOLP1+m7Ply18S190iZr3xmc96XD34xogEMgHMONs/d0dtgQATh49DMpKhlq3Z3cZS/Rvv779/TejKZ6scj5NxonIG2pdclByBjGYRcvpZioEOBdA0CHhAkOh8I7JPZA1bQ6N576IF2FMyy+noEknnUvEjRn5DR6+K4XBtNi7l8jUpvUSjXjgcEyZ/twN7cq2scRJ2BI7UvT5T/XK7XT6l37gDkUek2Ms/LtZMBQeJnI7AvQ04Cifbpfdvn1tmQnAXpnv3UxSUu7cDu7daX782iRjFnrVDpWbOcnFw7GYQjiOMoqGGlPopqWURvn1tQFUFRov85RX8WoteleztG9mXo1RMa5gR0XgIfvl29va6u7vE4NfA4NAC4ZmDl6jVSQx+pv79dbV6bI5f4YUBlXfkkYNYifQ+MS2ArOwChzwjpA9zxlu5PZhbg910XQ3+QEL9u2ydaC4I33qv/i0JXPh+Y1UifUfrJ0B8edUu0vwXxFmGwRakFywrUVln9AX6fjxbG4kDNCTm8+9Jl2H/I+XcbEbNcvkT724gZd8rT9AHcWeDpgOR1v1ufFQdqTgin8OkMg0v9McCCw6IxIPg7PH95pzQiZjlrid7GABMAW06hc1o7G8srdeuzIjgFbH0KH/Xql7ryScCsRtH8/WNnX8Y9PLPB44OXDS2lAq5pbDyKdhQNAE6pmrpplFTbrw34MQ5C9/eWwB+uHyHQ+VSVL+XafYeBiuqsGE9rBqQBPo/opXw9vx5uUazpA3grYzrbgDIM5rWube/0aXlPlS/l2oW6eCaWSwCyRYEZAjyX7sDb7wjorumuFxrle5LSshdPBnTg7acWDt++DB6ZlAK2IsN69F75PJdOcvmsI6AkpguN8m2ltOylw4QksZ5P50uiQX6O9D25iBDvy41dbg/ns3GESUDKB0UupguO8uXje23tOx6aw3Lw/FpOFR8GRY2W5yJC4zjY7yDS+M18X3r9RwXMeG2h2ipYW9vHrTRdAk+JIHwcGAD87ZoNezok1L/fz1/r8W/WrQ9VBcV3koKe59MJC8AdANaj315bbA2M6XmFzsfaAux4aCJA7gzge04mG4Ycmkro1/5qIb8tCfakyBhFu55a3oI1B3yhvp7n4gU63+/TzxvycBEgdwbQPZdGAOvAjdfh2pdpo09lYK1XA3h0eYjOZ33680SAksjP/k0GB4WBW8r7c2eBXx9f72LNAUCf9/RNr2TAIdXX85yzSFuzPv0SAEt5dAmkSwNycoCbRLhCpC8BJLle+p5XRcA/7xjcl0GtxopNgSRHYK5pEfzGJNjRaWRNWhXwt42NT9GOsAHAH8uGrV5WrM+/+8tb/Uo0PgdW+9cBaBIt+1G368SHI23fAaCOgaoxUFIKGfPAqg5C2gXswHBHRnp/VPffKvQ9rZ93AI676FGgpZ34cKRNHQCt9M7LpaspBXsNe03+OZrGQJoSyEsUOTvw6fdl9ZhvetE5pvKLzAbQKHQJeO01+edoGgPMSuS1A9bugbyXOgiWacAOgM4YXAHX9LqBUNZqgx0hzx2kztFjorrXzsGAx6bhaW1vtXugEXI6qMdODcQOgMYY4Ej7GN2XUfdMz3UAqjvPhh2dRsCejhWwp2M5fFwx0zQI+mME4GPYAOBrU2duGaKBvzb2t0uPRfCbq30K3ObRpahZcww4gOeVA4bOlVbe+9LnccbCf9/XAWCnhO/LrPfOywCVjsXlIGg75UkAnlMO6B1TRAgYep9T7lp3QQz+2v3JjYOcvuDT7cvBCS1EMJXAtogQMPS+nNcPAa9elkevobQpRuOCuXOAP5+fK33uY/c8r4JKCCSLvC/mrzkQBo4Xy/V4gxxOx2v1+vjz2bl55YDH4r70+P5QmPbi/GxAEAb+eV0WwYY3qmBPJwP8aHWqgNplGzobjGhsnIp2BAwA/mr33prnTK9/rbRPYwT+9MAEn55HVQByVC+nCDTNgBZ5ey19EdWvCv1yAD3PSZC+A09T+E2K3L5cdsMHsLLsLDF6lUHNgmMogqdg6zXpkZT34ueFcu95ToL0HfBff6YAbu3rxIiffl9uH/K7WhF8WYQuKe8lByAE6HlOguRUcDpe6/uPqwBCn+U5CmhssfTZlw68Arr9uH9dBipMhS4pzEWgCwFXHlhK4In+cqDDj7HaPfhZHBBtJz0tgudge4zuy8A/jvEo/+WdZ8DOjsMp8Hcszx7v6z1uZZoK+KsIwseYAcCPh49dN0tS/YfA/8mXZnm5dKfOd1P8JPpdA+0QWHuAzoV9qCpAo+q1a4ecFXEKYeAamQOg7Mutd3SGnaP+VaG+KWjL+XCZqs8WE/bhqgA6J8ABsz4ZMATKkvAwdI0W4iAfe2+iOPAQ9qVNxc/FSNwT9uGqAFRvj4FZmwwYAmWpCU/oGtmxnJ1I702L+iVnRkpR8M998M9PEEDwBWxI/c7y2A6AZMV7CHx8pbqe/yZRuDfIxzXrUalvD7QFWj5E1R/j+zLqnmlJ578uC2BjpwkM9O2ijsDHY+eXG6xobLyKdhgNAD6/uPqjd6jQj474xS1+7Wtv9l4Mv7tmuKi4x7X7v5SAHjXNydro2uY9WAQoCAGxor/Y9EA5MtfAW2MGpCmAvEIBVwfk7ctfHmrrR+ekcY7tzZ+CNxa78UoABI60qY4+PRDT+TqlLkXumgPg5/RthQKtDpAqEWzLYHQPn2Jfug//McmPY0GfB4qqAE9unRsCeek9Kadvlfi4OkCuREhq9/E9YNaCNhSyMwsSpwaLALkQsNPP36234EiaxxSZkocpZ4H2FsFMeE/KXVslPlHB44g7Pc7V7qPXmBIfd8bDtf/2Ol5ff/Q5x8O+mFRAdbuJsKtDJezFgN+hPFkdrQNQnr2/t/Ow/XU79z9nMCOC8DFips6zf/mqdUWpf+so3PZwlUqp89eJMt/r0lch0/dShz1+bsApCIF8yBHgyn8tBSG9LwkHQ/vS7sk/s+Y4Quc8Tt9LHfb4uQhc5SE84QhdPkYqFSxC00ssQl4K4sRPtS8VI8/yevh7PfWFITy5EboiCOSlgkVoeolFyEtBYAfAbxl8qZjW4F0H73r2IaGTHQYMf9hMXiQqHZMBqQeygWtzmluj1IXr0k55rFmOQN9LHfaOl3354Kz3YN7pj8PW3z2bAX7mBHSQ1970vf0DJs+MvQGOEQOAb0yasbkSR/k08pdTAW1enU1BWsnna+CnluV5wjs/hZCwAwXy9Kk+AJ9LKH5hJDA+nkf5NsK3TID2+Q3dl+4v3qbQ2xxgXWQtUeVJ5B+qoU+W0wdg4HXgLI8E5ip8/NlWle8aA/lpBgbqEuCHnIIG7svs0ac48CxF/noNfbaEBjqE4hcU/r4K30X5TpVPFfuSYyC1BG5VwCnAtD93PHiPAfv85T+8iaJHoWsdj06FvvZEJS+NvkVA60WzVpXvTbzzwUxsfXt2PvgR2p8BLK0UEKjyY3xfxp7xGmw87fZknXobfHTvm5nQj6QAOtHnxgGwTsLBD1e/bbCjsfEr2qcW/h147r0Byz7xu/zhIT/UOejZtxouvnGUGhFjkJfEclJEzbvoXVBA9a+J7jQGwjoOv0hbDKtMhHCfPAXAwVxLHRTdl4Edr1Aiahw504jaUfdc9Y+V8kIvACFCTzQCuL2w3MOfphakFAAHc73uX8zte++fdEj7sn7sNzzVP1bK5+Xns79ZhG3b6Co9/FFqQUoBcDAP1v0LIC8J+SSmATMKPvhfDre+eo+vbreAITXA0SJVA5C4ja4QcRMA4xGsCLw59e0M8AjA8yiavUciZw7+KXV/rO/LwJa9YOHpf3Hgb9bpt8PmHz4Ae14fQkV/ndhiDsK+XmPXREFgMzcAOHfEuPXTw3Q/7fNvHIB7H5/iU/RCBIzBXXpNqpXnYCs5AbjxThB0hYoAB/hylI7vU2IwpAifOyWHui/j3v61R8P7AI8Fd462d8d9KRj9i9Q5EuE5MZ4svqvNmx5I5gBYdsCn9KXUAi39k15r2L5cXnZZnau3T+rjQ6ArVQQ4gWD6N1XWc4DGufvEcZBpe+ss8MZBPEVBUguo9E96jZcQcu0Bdg6ev6oTrStP6+ND4CIq37P2uBbgBitAxCNpv3ueo9r9trgeFY8pdFziJrzGS+V4jp07B8fyvkw84+UM8EsrdQA2pM+3Xd4Ogb3iBHTCTkAFfDLuQ9Mh8NzGxrFoh2AA8Hcr1+55o5fQ4Men/xMnwLz2SpcPxahWy51zYNSi+tDrPnXOonCh7I83B9IAmNfsl1YqIsTOBl64MRG+l0+7L7++sgLmffCTANiFInqhva5Y9sebA+Hcfqhm3yn3D6Z0vxP2JQs3JqL3IqUUfE2BuVfSFyC7J/n75+3LPUN/UyPR4VLZn9YqGEffcs2+ExFeMjih+52wL1mSQFCL9iVNQQL20nwBv8cBdgL46zd0u9WjiDmw8PI2MfJkUaaY98YK9XNSALYCtnR5lLqUNxfy2SSKRnQ5Vr9r9fLavR6r+1J21tuw5LSHKfgrTsDO1r39+v+OVAyIWYC9XYbthY8PPGWwJIJwMzMAuHDI8DVLebSvDf+xj6+9a5yYN9eW1J1Po/SlLoFSdJ8v5KMgrzkSWhMf/7NxM5/8a3+afbnq5vdg7dAzGH3Om+5oOf6wkM9vzCM7ElITH6nxD1b+F7t2/pK7FmoNjsL70rbyZ4WFfBI459H2eCZAkTLAUNohb2n3I6UaeMrD/n3yTy+LtHhQsCaBUA49ndHqISq+yLWLLOV+JErdo/aF73ms7Ms7Zw+GKWe2LeX4S4s7AKf5f7f87DGv9n8PawbEWYCPh0yfZLCksfEsWgMMAL4wd+GO9/zxvtWlMj+5C+AyePzFmaKgTRK2abluLyfvAameY+fd9bwIXxgZXBL6sSoCk//P0wvQ+3esAHdEgucf4r7ceVcn2DP6X1i0G8qx46ieRvi2hI7X+Jeiea+S4AQm3pOFeraqALMCviOin68K/hALIc0FoCLE/H3pOfxHOvjaXgC8xr/sck81XxohjMR7mlCPVBUIjILWvU8De4mFkOYCYBGi9nlXvnudSn9TUEM17gRQWGmdHZXr1aEzgGXqeamETqxX16JdJdqW+987sV3w846xfak4sxssP/3BEqhvsg6AdQJOvc29hlmA05LnO259g0b9nZg4kAgDK0qiwLo1W143mBJBuJkYAFzfv3zlBt8BSOr8JQHg2+8vhd9fOyKnS58Pxv4xPi2upQGkyBw7ChqASsyBHIWHzyHTBtORwJrY73DvS+tH2ghd8/xOen6LXj/y1rv/adG5FIXLn2EcAJ/ux8dq6n52r16DIs1BOLHwvowc9d2wyE7p/qdF53nsgZgWUMR+oS59ePEGRZqDwB0APG/APP/zfW2CdegUEAt01suJwrVlgU67j6Jd+rxGPJqDwBwAnOcPRd/NcV96txwA07/TJgF4pPInoj/z/N9v9RwA89ikAjZ9717Y/WqZAP4VAjuQOAof950432BKY+NatAIGAF+dNmdrmU/5c9EfLf8zwj8R+BSaXgS2nAhZivapQ0Cb8Mh0vU/Zc2dCFxC6iN9LMaRdDW35n+40HL59efXphxlgUhqcjv+VBu9QEPUpew6asoCQDh3iefiEtnfDgjRHQwP2AODnMgfhfZk35tvi4B2N+tcH84QFhBLlj9kALbrPA38N8POYA6naodtP+td6Snc2YEajuD0K/eyCQjkBXEktvRbF5oC/Bvi5EbJ9rOxDc96XEWd1hlWn3ycDPor+yWJOgigI7IQify8F4JyBgx+uesdgSwThJmwA8BkAePCDwSs+kih+reb/9TfnqwArAbgEeDjix/X5EvDJ0b8TEOJue1qFgPTY3vevr2TRPY/2GcXP39M1Cod/X9556U8I+PzIlyrfcbc9uqxoryTgy0R77hqlvxO+zBgEzihQit9/j3f4kxyHUJTP8vm2miDtS4BHFtMl78u2cf/iddvzhXPp+4PTldXtWzA3o3vzHYBgtM+qAiTHIVTah1/DEX/WlwCPLEbL3s8Djz1O888IqPD0O08Nb4DMCNXOSR/jTnfm/XREbRGw00FMrrf3yvY0Z0AQwrn6fKEtr8IINNd96dPyA5j1nWco6OPIH0X8m1AKgKQGhJTAriffK1YRkK69vcauMthiMKaxcS6aYgBw8sRpm0Zqk/6kun+zbro/GfYjUfKhSBfn4XmEL0W//nV9lb0FYwvs+K/0OOQwhO7f3aes8teOPxL7MqTzZV6zGx7BOzC2DoAD+uxx1Zez96mKP3USssehSP0khUEIRf6yiFBLRThdAe8lwFmBFrn7cnXZJaVKAOcAOKC3jy8tuzJ7n6r4U0ehdHx4yh92AIpOGwyJCEX2QGnsw1kBzna0/0WvWg1wMqBLQS1TopvH56K2s1itbkHIHBOIkjnQFRHVeaAcYgAw4KNjpRy/BX7pfpvrvoz6bkdYe9pdcsRvAR87A6crrAAWBp56W0kPsOXXTzL6P98RODBlST+DMRGAm6ABwGcPHKh7ypv2p4C+Xc+/Poco1i0ISxFsLr2Ncv4SGPNoHTsAcskejbzx8+zzhNx8Vn8foOB5NO69j+7haOxLVY9fZsCLgY43A6I9/iUngXfj45E9EwtK4kGVrue5fVvaRyN72mPAv479THccT2/Y74ScF2UHOOCIAAAgAElEQVRfHij/7cEi0Tqv1efHepoAQTyo0fXi66xxkBURqsfjz0yP4+kN54A45+Wu5x7yAURqbKOBoVZzzifbSXlyEo3L4C1Gvl5kj2rppetkrX2T4ziNnwEtBmkJWJvJvvRt2QfmfecJ2CDR+QjgbZSfHZfm+b1qgO/ckT034G/XRw90D9L+VBRYAXvfGrUpbQ702cbGu2jMAODUcZM2jpMb/egOwBW3jSERukSNawI7SudbQPfpekPJh3Pz4c/zHQFK2WuRf3Ap4C1F9EdjX3571RBY0PeHwRy9lit3oChE5llNv6TcF5Y3CyCU66flevp9+gp/B+YufVC6z6ovl1IVRZoemfNfqfxpUGUv0fY26sc59LwyPT4LIJTrl5gC9TMUhT/VHZg0xZWlVAXXLLS7qJtOQwfU5GJUnEa3BChbhpfX8z5wL2JErH2GovC352dOgInWzSqYm2/q+zLuu68nin0ppy8o/C2Y4zLAkhNwxp2w4YwU+I0DwFMIp90Om89/lIE+nhIoOQLl8Mn4BUMM1kQAbmItf/fuPdCmd//qgxLI9+oniQGTsj8P8Fj3O00VL0fMXC1Po3vrAEigquXR8es4JaDdnz3elAIm7YB1kDbvS06D+F2Pwr5cfXMvWF9+mkCLa3Q61wfQznli/r7UCtiUA/J+/Xji4AmC2FBxCAjT4M6hEwtlJgGPM3ZOAdU0aM6GPafPiB+odLzTB8id83C0nrQCNuWAfidAN3TnEo9+1xwCzDSQc9DEQo1JwOOM3XFU02Be+9Prd+s18GIkjQDUUtyhUbWmBC5te5v1zhdA2rzv0e8K8OGImn5ums8PRsxobK89xoKyzd1rzkYT35cB3+3p2vii6D3L5ytpgKwU0Cr/rVOAnQHrAGAdQPp3x62dhJ4AzAHAWoDuI3fEFsFNzADgjLGTN0zgvf5lIWDqFPSvhlY3jSL5c0txc3CWVPtSBI7BmR5LKXye38/L5ftiPz81gNkFLtLj94IdBem74K6AR3tf7r23A3wy/l/qaeRORX1c+Ocr9zFQ4iiai/Rw9K3l5bmT4XQFjvq3Ub3kgPBRxHg8sf2O0r3g153Gge/LuNGmFJBXAjjg12rncRTNRXqSs8Dz8r6T4XQFnAmwOgC/EoFH/RjgeaWCzyo8f02HLGeNI9Qsn41ob5LPDjSlwVG0J9KTQJHn5TmY4vG2DJxtvttT3OORu/Y4C/DfK6DUR7n85rAvVWe+TKN6DNLocfY66vBnAZ68h+h+UgpojjPOgGEH0nM2ff9+uQog0CL449HzhhnMaWzci5ZF/zVt3h1QXVMk528dhEeenSYCLwZTCdBKYChEwxxgfVC0Cv2kcY8HjmhyH08LcMDk980dClqLnz5mjX640l9zOhpjX5788zMZyNLJfZT+tqI+Xy/AxIHWSUC1+FkjIa/RDxbhSe14ubgQOxm+05BE9bSBjxMjSh0GedMjA/hYJ0D3ZfGYk33qHIn6HNAyoM6EgkljIG+Kn8AUUDGfX3HAnQDrZKgNfFCvACxGlJ0M6hDc0P2WUk7cA7BQLTsSr5G8OG5TawVx30ONcTCASVE6/sty81x1j8FUA1tcE49FdyKYCiV6zWVfhpz9Diw981Gaq8diPlzDb6J61vWvBOYY7JkDgBsAlcAf6wTSczeddjtsv/ZVoTsgcgqYg7D3zRG7IgvQlKL/iUn0n5f/tyxA9/eWwIVXD/cAVhSvBQbfSPS9RrfjyJ9H1RhQJQregro93rsOcihK4G+dCdaUBzsFPLXgpwAad1/at3lQUOELOX4kpPNFc0hJb8A/BU3b6U/WGmBtgZ8C8Ev+WFlfaCCQmNbQtAJp5E96IfDKgJNg5/iviLlzLKTjbIB5zz4vdeGzIkDc6U8p08MRvZxyQOOFmfhQGwgkVSBoaQjrWDx5azsvqpYiUA6YWEjHo14LnBbkLGiSGnaJRseRukatY+FcegzvsEeuhZkC9roovrOOBcvTN8V9MW18J5s2vhaouWrf0Pl48Zp+rPaX0gJYK2Ajf+wosMqATd+9C3a/NEhuDYxHB6P18ci5IyIL0Pjg/7l9H9c88+6AZQekMj9t3O8DT04hUamW0ybT9gSgc8dQcR0BPRYVS6AsDfvJE+fh+9aPpWWGGu3PI/amsi89X75RyMHnifM4QMtA77fYxYAvXUuaUuiOy/L5lmUQHQDbEdDpD6gzws+zDg6/f9pA6NohrQ7mdu5TavK143i0r13LbyoktyS2LIPkAGSaAaw/YI2G8HlXvn8tvHX24HoOOhkgMaBVQUoC6JzjeFSrXcuLzJXWuzaalhyA5DvRPDtvqMM1BRIoN6V9qTjrTVh2+gPi5D6Sz//3W73cPgF9+z6uBJC6AVq2gOsIDDtwqnM6tl3xUnhOAHcMuo3YnbIAn2tsHDxuzagxx0/eMJZO+AuP/u3Wa7FYeiflsjWVuwSGRQBbWt51We28DtpOXS/dn/TdtM/FMwGa2r6Ud2nFqHruCPitgmU1Po7qebmdJNRzQEujfn5uXoWBIBoUSxSLLnpdsy+PlP/6E07Ra017JNGdROlr51gGQXIEeK4+VGHAr6+VKErr0QeelSNOHHUL5XYErLSoVRHZySBOjye976UmO9wZENX/HLzlUrzCq4nsS6mN75lt/Il9Ur5fauLDVfwSO9CQxa676bTbYXfbAawiQGsVnLz3yaiSFiBWBDQS+H+2rg4ef3/Q8n36uF8/HWBa/kr5dJ73lsCIU+S4ba4egfugzK8dBGdVbEf7+GvVAhqgu8+mkXhT3JdJPX+uMAE+EPM+/nq1gFZ7b9ME1MmgbYYlPYAE0jR1QNsJaykIWRMQSoW0H3a+2ihHBHTGAvhpAtkZ0JwM+Tx/VHDICShSYmhXl/P61cjq9AD4MTpczKmz2nWPDtdATwFT8TxpJG7ICWgA+Itg3AT2Zfh30za+WJjHa/ZNTp6X6wlOQFb2pzkGNu/PNASerkA4d9tlL/qjga0DgPUAti9AtxE7Y1+ARjLTkWnSjM3DNPCX0gFdei4SBXVSVz0OQpS2dvX4ehTs1+yL4K0AoQV++3kaWEqPQ2I+TcDXlPflD9cOgsX9v8+AH4/WlcBSeixVEPA+AVhfwB0Lrt7nDoBM59M+BTI7IPUyoPl/PdXRf8S5GfDnqfmlx2Lr4FSJr1cR+Ip+fA52ADjlz0sEdVbCv+f7n3gs2NBGirKLqNalxwTUkChO+nwJQPF5nhKfg7NA56vRt3DPOCpvKvti2vjOPvNZCvrpY6Le5w6AQudn52IHgAE5OQZVC3hCQcVB2PV8P5r756WARB9QAZ+MnVceuwM2Ts//Rz8oW7GDq/v1VEA13Pv4ZA8wQ1Eyp98lhTuP2Lm6nUfYPJrHwMhV91LETEHcL6PThgPJ1+Xg33T35cbbesCWym/X6RGzpKC37xnAlpwCrubnqQTfqcjmC3gzCaS0BGYQtL4C9J4x8+APP+Kljsn9Txr9ndy8v+wA+Cp9Sc3vL+maqROAlPxcSyA/l/sKSPds3utwQa8DfJiNB8a89K5AtEweCyp9DN7qdYUpfFkffaTk5zlz8bnUdEcBZElp39j7Ytv44pp8ouq3Cyn5PXGf8Jxci1UFeA4AGwLEewBstMdb5+N0ywIIXQGVscF7u4/cZrAozgg4ug7AV2fM3TpQK/GT8v9dey0KUu8SPS7n38N5clw7r1HfLrKnr3Ha3ubmiwA0jub5d5Qif2015X25//7X4MB4WxbnygB9J4C1D84cAE6j08Y9+bn3EOPgg3ox/YDtbxBKCThBIx+OZM5dPvbkTPnPywDlCD+N3EvdAH1BHm/cE6Lji/QPCPcQ0PQDtBeAWXe0fdCPgKUIFkfcWBiHe9hLkax9z9TOCzQ6BcecrntF6uRDtfKafoD1AtBAvLH2pdTG94wnwrn3ED0vgDop59P0AymbIEX5pFMgSiVsZOfaa+56ob8e9Qu9AQ5MWjggTgo8ug7AzQMrVq73lf5629/7Hp/ilajhRSJXQbym0dmSYl6itHUAdnXwGuXOAZgDND5OiqJx21+tHK+57Eub1k9llDtV7UsAnR7ndQm0ABtqC4zTDVJePwFyrPinToTSu0CsJNB6AmhOAWUv9o3/Csu5+3l7HuFzR4GANurZL+XteekeXlmlAVL8YyciL9cf0i+0u6irn/s/O2fSHabcMXBqAMkAEX8e6dkv5e156R5aDiSx4l92CPIiczFP3wT2ZdyZr8niPV66xyf0mXp8PNVPKu9jgM7b/+LHXk8ATSdwOko9oFTEtivTigBpWJDACOztMXq9waSjiYHHrQHAFxYt/ahn0by/WW+9t4Q0zQkJ5EJUN4+++XWkSFiKzLVoml9T6hgofQdL/Ye+n+Q08OmCzWVf3nj+ftcZz8vFY2o+jfzNlEA0KVCvAkh68bscv3RNXwjoTwL0WQnSkAidQ7UFziGQ8/6soRBqDHTjkIs+KU39S6f/8Vw8HRecOABJf303KVCrAjDP7XFeQyFx/LB7LKUASPSPGhLhc3iK4OaOd+ogx6Np1AAnG19rO+OxXDwHxdI1bH99YWSuB47pcbxxjnce67zHI2gP6FHjHXKOkCJo7H0Z2LIXLPzOYxR0z7jTRdYWZDndz4SAWTc/gQHIjmHXsecQbQHuHijl/XlDodNdY6DS4+/eBbtMX4A3Kgt0BywvHXdg1rLeBpsaGx+PeQOA35ePWr2Ygn4S+WtOwcPPTFMpbX/Snh4N44gYU/QYFGXlO4rAhZp/fm+hUb9F2gU79oDS6LLj0Dz3pc/rpkeA0C7YLtI2mAI6p9HJuaQHv0/1+1oCnvOXmQLeidBv+sOjfDuX4Isqo4CdgNblv95PxXfMATBAmw4Awu9R0Z+kA3Dn+cfIAkEpd68xBbYZEZ4eiJv+2PXsde0JqCX183LkzMGORLxcjJfOvSftcRmgi5G0PRf34C8YnWssAWYKEooesQSs6Y8G9kd7XyaaNr4M5G2bXaLqZ1S/16aX5/wVpqC0bA+A9FjS9IdH+fY9wy4ojMJG5gSYtf2614q1B07XvvfGVRtsamx8PKYNAP5u/eZ9r4eU/3yZQUC/v9Z2/aO56Lyo1QzLCUWnvNYd/5Xq8u05pSE93nG0m589l4v3LgjQ5HjCXsg5kJiB5rgvw7tdhPL3uNYfgbuN6CckffSlMj4bnfPRw1ZAKJcBpq9n55+UDhEKRO2oBwC9Z94JEDkVpXNO8BwLOjjoROgy7D/qrbAP5++1FICN6EsT9rJUACvjS6Nz7DRgAaFcBphG85nDkQwRkrQDuAkQThfgVINZ17x9cwaEFjxL9fFnKVR8ClikpS4Rqek58izCtdGxUMZno3NpxK44TAdH3hZYz07vPxC10x4A6J7J922cfRnS8h1YcsYjhDq30XnWo5/14RfLAO3r9nxb4x+K2lEPAAL+vBMgdipw3wDcQOg0NDgIDxg6+17Y02FoQvFr0wHNQizBwaUb3jAY1dg4ecwaAPxodNX6KQ1xAB57YYZIU2vAKE3b45GwBHwc5FwunB2HSua86yDRn9TjX6b1adleiMbXwL8578vU3v8tgDqn1nUa3y/rE1T/iFmwA3koq+CXGYbFhBL486oGzADwksfkfdcRsAWUjTwXUem4hE/u2EepfJ/G98v6hPNTkLdpB+wwSA6CXlUg6wzs49a3tZUjXaXG3YrbvNw3LlVjinkvQlZofK+sT1L9W5BHA3lI9CyV04XEhLyDX6C2/0jvS49zymDKd1/0aHyvrE9S/Vt2AA3kIWkC3hRIyd97LAFzEAjtjxkAW0rIrrMBOwsoxbDjTx0DQ4H89sD7BkyeZTCqsXHymB36U1NX98R7A5d9ouX6JRHgpTePUkFOAz3eQldaWVSKqGztGHccO5ep/DmwSmVy7v78KFqi7PnxPH/f3Pel1XX9Yfmgs2vlvLl1BqQaf348z9/7yv3MGcCOQ5pSkFMDUtUAbzIkHeNU//R+efWCW9NGnyqo+GXQda9JlL08BEgCc/I5JL3gon8pNSCJ/vxhQ8m6/INr4O3vD67NQIk1pDHARIBNytlztbpSL5+9xlT2PAcv5e/Fz7bOAHYczmmAcA9/X6UPwNHcF9PGd/npD/nAzgEXR96Ccj9zBrDjYJYV94WAH80PwKV+4jFI9U/uF9/j6YLDkb6/+ccP+vl+b1YAcQrq63bufc5gVWPj5TFnptnC1NlbhupKf//1Z16ZHcg/U/qbD6SRqG2JhvcjXL8cTrsHvVVuBe2njyh1TcUv9eRXI+pgXr757ctNt3WHj0Z+q0YcqiP25HcRdS2h4/W8PF14JLDkSPDzhZkA5D780kVZG6BrBtaM/desnz6h1JWhOlJPfvK8zB2r5eV9MMf9A3xHQur+xx/zssFHH3rGr4lnAIUpbWnZfvqEUvcocjvgxm/QQ6+dKPn5eWoEz+vvJUdC6v7HH7fMAewjuC+9TBvf77QRh+9Y8DeUO+7Nr+XlyULRtuhI8POlmQD4PriwUCo7tDMANM3AaUhj8O+3wkd3dUFNgdzK0gIdaHrgk+GzRsXGQEfGAbh7QMXKDQnQVwtRv+8AXHPnWFVQxp9r9LhEbVswohGsXgcvgbZEk2tA6CbvCa/hY9FUQAfWcne9Y21fHnzgJQf4GPSz57TUTu+ul1fv34JUIPi9COTrOaDHrYG1/gDaPAF9xsCBCS0yUHfDd5wjwHvt2+d51LwE1pII0Ob9swoE1osgdD3MAFhmwl6/y/l9P1FFcxpNLgIdzqm7Ujzea98+z6XmJbDWGukgpT2vuQ9dj0f20kjdI70vw7/bJWnja3PorNRO7a6XV+9vFf0mFYAbAoUofywexK2BQ5G81DEwNGPgtFQvkDoAW3765wTsLdB3YKBvn1uWoNvwjwxWHQkMPG4NAP556Ypdb2mNf6QUwMudPxTrzSWgk3LtDjz98jUp8rbnq5EwmqDHz1WBTrmGCJrp5L0iKYNjdV+ea93aH5aTTd7zAZc7AXIdPq8CYMJB5ADQVIAUzWNGAlcbUJD3Jgt658oMxZ+G/GEfVtJLTICL8DEDEB4EJKUP/GOpcFByALQOgZiRwGWK9z75ZwaMdIKefZ1EryFQ5dcQQROBbt7AG4Em945F1H/2N9D4h9+vvU9cjuczBId/X95r2RdmfeeZDBRxRM8BlzsBYh0+rwLgwkHkAJBUgBTN42l/uNqAgbw3WZCfe2qO85JeY+ejPRDo04ifCARTJ+DA1KXvG8xqbNw8ZgwALhg+dt0cG/2Hxv3adetDVQTsMLiFaOm8/LuNbrE4jYMWBWYbpbpjNepbuk8pUvY7BFI2IBipo8l/x+K+dHnhLgrwbLyuFqnjyX8J6Ppd/vKjdgr+7liXjrApBr8J0UmUsUDHEsdA1A0kj5+suGCvWHZnOwQi8JX68YuROh7LW8YaBrGRwVIvAa5LwNoEe74tA7T3al9v/8ue+3G0SkCOgZcGyCKNnkW5NEeOo2LvGhK9jtIC3ucpToSWfyeUPhb0ZakJ1oToCO7LyDM7lNr4EoBn43W1SN3m1805JdAVuvzlRu0sP58diwR91iHJ6HwO6JaxwGODsWMg6QZOk9MLW3/3LAV+rAnAbECqBdj/bqkk8ILGxs1jwgDgr/d9XPPMuwOW12HA18G/utT2l+S62ax5Tk/z9/C5PvXtC+ow2GkRq3Q9TXQn5e15BI8perPsZ8iA7s45Hvalb/trUZ4e1+P7eXpKzaO0QZDGl3L+nGWQWIXkGKpP0NIGfrtiSfyHmYzuw/+jVqLrKQAnETqux9fy9BikrdMQovFDqn5NkEiYAKRPuOPFB+SIlefBFZGbCN4hIZ2tbUcRtwjomJpHaYMgjS99B+YghNMBSJ+gHXcY9sW28SXRt83T43p8IU9PqHlcrhei8QOqfl5GKAkNM2CXyga5jkDoGLgxh8nADsWu5/uLyv/MMcBdAzuUQ+2aLa8Z7Gps/Gz2BgCnTJ21pUKi/+UZANXw0NPTRKDT8tJatKzlrFWgU87nAGWf6+V9jj7nAMfBNhQp+7R95XGzL6O6/06NlP1yQe4UYKGeRutLLEJo6I/gAOToDRzjgMWHmgNwIlSMPDs3l69R+jKtz0rzUjbAHyWclzrQh/5IDoBZ7S7u+jEHaQJauDOeULKHI+1CufxApCx+PnEABovAn5s64H0EpBw+cgDy9AafZl/Gfff1/Lw+j5QRqGbnYBDHkbTUz19jEUJDfyQHIEdvkDEOWHyoOQCn+s6JeX37Na/6VQBSRUD6eP+Q6RMNdjU2fh4r4r9S3/+i66IbRnhgiMFH64qH39MocAtq5LmgwC8SUesA7k/Ky7rmIaEfAfMc4RwGyONlX2a/f35tSDjnR+kSuNOGQri3gNZjwG8mxBgIoTIB0/060yDdv3MAZo8+heTeLaWOS+2woj+vL78W3UsNhXBvAa3HAGcBOANh0xI3dbqD0th5EXUIwO37OPeeUuqkhA5/VihvrtHpWuMcVEOv9RjwWAAGzmJlwmHal4Fn94KFZzyWgV8JtBnlToA2oOwn/fklxyEV/ZG2u7xdsET9Y+DHz3FaAtP7eUyD4thswBMEceMi89o593lRv8v/80ZBFbC367DdUQz46cH/n1at3dPZRvYS7c9fe/bV2ULJGBWVcQBzIEeBhdPseWDFc9xexO0dK4/ixdfEnyvT7w5E+XeU7+342ZdLb+gLq4accdCn6DV6n3br0/P6tjFQ0hTIlQK2yBkzLJcHWtGfzwxQJ4F+hu+0bBj3ddoJMKDYl3L4Gr1vwRkLCuW8vm0KhNsO++kHiWXAz9tc+/pBG/mS3DbJb9PHovoeAx/ueJd3DqPoQ8DqCQqlvL4V/6VNgew1efohF8QRI3A49qXUxher7wW6nIAop+g1eh/n4CUantf/n+HaB4vphzwQx4wAzvkzBsI+Jp9xmsBsYJYAnf/RvW+KI4E9fUDqBKRiwH86PKHwcWgAcP6oCeumao1+pAFAN9w7noABFqLJESYFGx7Zavlofv0MpK4Y5tWpk4iY0O70fb60CNq/b/r9eCSMzzve9uWWO7rCrtHfSHsEWACXWAEk2CMROgVtH4TZ6OE0DUCGBZFqAZz7bwG1VYnTUapW4Mr/zBlxDoBLTwhr/Bfh0sGX1obbAPsKfAvgEiuA2QMsHAzpDJyTgR0P3GEQDQJKGQt7/Wt6/H/2vgNKqipbu2bm/fMmvJk3RsYwMz6RzCgZdExjxOzojI5jVswJMYEBUREbEFBQQAEliJJEcs4ZJSOCgECTG+hIB+i0/3Vu3XPvPnvvc6rAxu4q6qx1Vle4devWXqvvt8O3v/1IFLSCqXmc4R4+F9LwwjYjaIvcrcDAD/r2hawAzh4Y53fwDAIAxhG/XwYwFPi0iiA+vz5PBdhlfLNBsLHhK0YETfv2jb56LLjjR+EegEtZAZw9wBE6AW0GwiTi12UAY1gQ7hbAtX81TdB3OkTmv3ZGkAMQlCfOc7QBErvsu/5NkwdgRP789fwv5n2vMKyycTQhFwD8AgA6jBj3w8F4U/99B38XAoICHAIoUn2cRrwusMMAgwfuUCClG0ewFIwxiLGUPo7SHaAXO/U/5bi2y6vtutlBU6fgFxBxnkA7gDoIeOs2PpMfEDoAuI6PBhExB0PqCPBHDTMnRSYfasfiqQm35mGwxoI+NrKftQNA/RWIgBJvwNz3WPgBVCDIHESkzv16665mFC5E1870NwVr0utvjuIlzkCcqX/POSDRt9YOoKBvbD1Vj9bjtROA6vh44A5zMI7SLoObjYMljd4NARlH6Uhbn4n4xCPqo1Pw6Pige0DiDeCt2/gIPyBwAHAdX7cN0s4EWqZAWQf2eyQi47lPxWWX3E4jyYhgBy+g9yQoycjtprCssvE04RYA/HndhqxhNNLHf2n037bjUpY6ltLdEgjhlLI0GMcGsrZ6uJT6lsBJui4pKqbHUgCWQFlK7R+vdun+1uvOlj0zyqc99xyczRQ/Hxhk4x3wNkK5RMBV/6iyIVEv9LMFnaZcn2u011mZ+LyfX07tmy2BNoVBzAsIswB8HoDd+bgb7vryfhh44dgSVyqcqdtRYDeAEUfJlmM14BIZ4Jgte0aGYZxDSQ/xAnQWQBoYZHM+XFoER2CXyU0GwA/ntWX98QYIkpQ9jcgZwU5I7RtRPj2nAM5Gql0YGGRzPlgboaVEwFT/pN967lNx2yXz/vfNmQD4r1ESiD4/NH3ldIVllY2nCbcA4N+TZ23/Ftf/JdDH2gB3PDqTRY8UeOwp7zCS1cBhTzObES8GS0qUo1K6dKgOBVoMrMF1SKBH0t3setFnKAgfr3b55N2nSVpdIutFH8crD2wSCCXJX1o6wFkDk0BoDhfSDgUdNhR+1nQmot83ZNolJaESoA2kif4+Eg2SOANMIviI5IFNlT976eAeaPdyR1YTx3V0I5VOQBQDrZFORyDM+uVtdXtSazdS8FIfPS4tCAQ9aZvf4ygd4KzBUdjlcyXj26QzH9SDQZj2y+MIXvgMA0qJrOc/jlce2CAQCox/VjrAWQNCIKSjfb3P0GFD6LO7j8AuGX97kbcD+oAfKAZ62gDR9/IHztyjsKyy8TShluqfPHy4rOPnozeX0ahfngGwCbr0Xh2CkE5z20RopNQ4Ag5MrLNF0+ZnZeEcKZVO0+nSSF9bPZ2CtO0aaZo8ZZfQLqN738NY+EH6n0TX5pwAG3EQR/6YZCj18UtkPpNgGI74xQ5CeDwtKdAOhBkzmxqCOjSypyRA/ZdKBXub1P4N4BfAX9IFoBkHGzFRvf7x5SMLxLY13C5H0uM0lR6ApDTNDwvqkMjeSJlbygcBMNO5Aa6yAgF39l069R/DyTgau0xr2g+2NnjBZNlLLXBYUIdG9vivLU2uwR6/R4BfBH/C1seEw90OYqJI5iMEw2DEL/7t6Dy0pLDnCOyS3XYQHQIU/tUWoHkAACAASURBVKVSwX0mQenGnWpMcEoT4AgcgFrLV+8f6675m4TAJ1/Wyn8mAc1wBPRrhmY+dwikFDJ+T9e4JTC2pd0x4Espcp4uJ2l2gT3vitRtjk/KLlNg7sCbyli0jln42hHwX4um4yXVP8oPkNr3dLROMwPcUWBkQvQ5g1TIiIahM7J2dn1D/e9I6v1Sfz7OJOC5At5rqMVQiu45KZBH/fr5c2+/KoKwSJpDE/WMaJ8Q6hgJD6n/HUm9nx3LVPrM14wWQyG6Z6RAS9QvOSnx2GW4kvFt3IkBopHSJ2l2o2c/nlY/iQBIWfiojr6XthhKbH5CCmTv6dq/5KSg54xMiD5nkAobHJ1d9v8zTaj5IyeAcAMKx3+9SGHaMY2ak2kBQKsJ07dvlIAfdwTojMCgERtNEEREN7YtaXEZSKObEtTcn3Mfp84Vq6deIsTZ6vT8+xzjelN2CWyx7suLD7EMgLD5CF6ZSKjnAPBRvyEhUNqhvK/t/KeJkb7NIdk/92wG6P8+QnCmGYB/xykvHBep0MgQhJ/78IahuSb4WrT1ManNEulLwMta/CRgjwHONAMgbUleOC4nA18nbT08ArvMbNwHdjZsU24Tu2HAS1v8JGAnkTMDZ5oBEDYbwetwMIJZAOQ6Wesh/u5Y51fv2yL9Bkdul7ye47ksMBYDwpoA0QFBrSobVxNiAcCv8/IPd6bRPh38g/db3VfIQEpS4JTAJkXiNFKWAJkDLJfZZaCNUvKxsgPYAXE7HGb5QPotKbvIdrn30eGwe/K5RSZ7H9f8aXpfavsLAdhsz3M7AKL8MGX2Iz0C/n2YI2A6IOr1e8bfddhVk5dEeihZz4jstT7/eJ7el9r+qBBRLAfg6fde4LVxiZ1PU/I4+o8BurEAWaqxS+fGr4XlBIGLILT9YSfEaM+LwwGIZZeRTYfBmgZvRMGWAhsGbwK0LkA26u0ScEqsfkS8w6DsbPtDYGu058VwAET5YQraqFRRkXbJeuZjLgtMyYFoF6/ZOlBhW2Xja5VfAFDvm1X7Jki6/3Tyn3780HNznel0GvW7avQGcBv96u559phsZss8UMdCKgdQR8NeIpDJcvHyEVJ2mQLPPPsRFMw5u4RF1IwkyFPvYR0etw+GjgB2HLg8cOgAmOI/xAEg8wIw4ZCrDYbX2WbSv3IkJr8J3JJQj9CrTwYIyU6CuXVqH2cLsCNAlQG73zEgz0htS0Q9wmqXdPFZWtyhh0+PMdLvVKiH1Nu5IyB/Fy5JBIJABkN/nOEIGOQ+KeVvscvcxr3MtjWBWMdU9aQoWDqGkOVo3Z326hvnoCRBIfUe1OERcCsnAA8VMsh9EjdAUisUyhAVaZd9177BiYA2h0BJA49d+rXCtsrG1yq/AOCRCdPTN9nr/WHqX/3t99l6IXrmBL94QFY7AHpLoEqjckY2vMvhBNw9Ba6707xOF8Dz66Zjck1nQor6U3Zx26XDK10trXhukDUdAL25KiDPIJhkQyUAZHUCvGOrWfgGtlbCM6DL5Gs9ByA2B0ByANzpe0nSV1IENLMO3NnQjx/t97RZVw82ItRJjkBTOcKXAJ6BeSwOgOQAxEjfx3I+DAdAvy84Gyxb4bDLV02HwncN2nPAk+rqEpCR94O0OwZfHBkLUb91boClJs8+jx0AvQVng0XlhGxoEA1tjkAF2yW3y5dm6l/oDAh2P08a+JHKxtcqvQDgV/mFh9NcY34pD6B9528M0LQBrwZ0G5GOps2xBr5tCA+O+qVygSm6I0fdNg4BzRYwp8PJO7CP+k3ZhdvlvY6vWPr9zQifAm1U3S9k5Yd/acRuaxUkrYcGFyGUCI6Hg4DLEJ9Pu+gwS8VL5QA0N4ByAWy1/xDQHdwCTwY4FPqRnAK932n1gcf8dzLn2TAcLYUbR62dpNvjcgLw3ACX0BBtJSQRPstOaPIimQ3gKkvY7KJkfI2aO27Pi6PWztLtFFyl3nvcp0+Jejbg9QHdel6fpOedH2UaMOGPORk67S85HJSLcAztkvVob84DoIOBECmweE26KgP8qrJxtsouAKi9YvX+sfE4APrx/c/MYaBp05undXoaEWIHgKfW7e2E+Hyudj7tRNjeuz4O3oDrOiSHJGWX+OwyqPuTgg4/rdPjDABu+fM5BGwGgFTjp2WAsJ1PEgnynIgFf7IICAllg3l/hDkzGxk1dtv0PS3/K0X7kpaAfo8K+siKf6jk4DkaZEjRuLvg/qEPm2BPhXN0W5tFDMfT1pfeE8oGOoo2auxSTV1nACTHAJ9L0OGndXp2XSjaDxwNOqNAuh50vgnNB8PGxq/y/nXMYm/UWhbKkaJiHUXjGrtUU9cALXUIoHOJOvy0Tk+iayOzoB0NqsUvcQPw+VA7309ll31XvoYAX1IEDNsClUZA4ZglSxXGVTbOVtkFAPdNnpm+ngr8SIRALf1rgjaPmClJjtbzbQI1GqhdAjZypiB2DV5K27vIiqJT4JcacGbBxg9I2SU+u4z76G5BoIfq/2Nd//C5BuqwDEAGB82jn49+Jh5NAJPoJ7UihqUG9f6G2bUDkA2BPArmAch7NXmZHyB1C9iG+Rjv+RkF/FwdoycGUp5AhzZdSwIA1wNzUEQspvWFNj8Mrtae+xY2p8BPqfuf8bIFeKSuq13PMcwHv6czCvi5dmCCMgDmCfgDg/DxQ84fD4sbvxtX77uYtqeEOt17j8GZAHlA4vOJfQYJD5P5cISOr4sAOR30E+j6o+caqIMyAB0cRD/vf6ay7JKrpIHJKGDRKVCiQAOmq26A+yobZ6vkUkIJZWXwxrAxm0sUyA/9clPMEsCradH0fyyAxkBOx9sGuvUkNSxH3JwLIE3DMzkFcl++1C0gvU5BXnEIvIE6wmdpGSNllyO3y+Kh1xWZEXkI2Iaef5AhkLQA0EwBUcCH1+2xU8Cjewr4NoXC6OOceX9G6n7/iYI/Se3TEoBUx+fPtW4/Bnz8Oh/xaytF3DnmXvj04rGHcEpcAlnqFLD2PYkVL2n8By10vrpfUx/88Xma8RKAVMdnz3GmAjkyWJgnyBDEKEXQjIH6/OSmn8APDdqWsbQ57YunkTdJz4sa/36KnA3RwefRGQCqpkfr+PQ5jsgRYBt6/jpD4Ei5Uy6A8X1SOeEntEvmwx862f+UF1C8YUe/lCiQ7ACctfa7zOHxDP3RGQCV/o8Vbbt67inIm6BrCgm5iIOxvpNyB2L19NscAFf6n5YAUnY5Orvcev8k2DjuwnzK+Jda//BfA7jxRD9hgBBP55slAM4dsM0kkI6LPr53/H8K3el/swRg6wLwHnsjfu/1NmX8S61//HtMUSH1vF37t1gUzVj2pAQgEvAcPf0Sn4A7C8IxqARg6wLQwjteFO+XIhjrX9IkEGr6eKIf/v2fN/8KvmnalaetSaqb1chttXgbUU/6rHCMUQKQImz9XF2fiuL9lDtj/Utsfko89IGX9ffjDEAVsMu+q1/n9X/HLpq4bJ7Cup8+xK7iCwBunj535wqc4he3/97HQ9ZzcBSkfykA02ie1oKlVj5M6pNTyaYjIZcd5GjfBHmTIIiv1SXwc72FcJiyy9HZ5f7HhsL+qXULMDsfy/3SPn0K0lpCOErqwxkC6a/OJFD+AAV/zikw5xCEfAX1+nMTb82UWP2BhK9jME/Q90/4AvQcVGJYkhSWJITVd398xchcKcWOAdOWXmcAbgH/AIDJ+zJpMHocJxyGO+j7x+8bPfucA8C4A/SaA/CPjvrV55retB+kN3i+1Ii4cU2d1skloCKgZZD3UIrbSKET4NNRLyXW4R3I5eJsAQJgzAswvofW2wlI6wjc+26h9FBV7JLb2e8GENUBTWVAfzbAzZWNt1VqAcDP1ejfz8f/cCg+6d9N8HrXZaw2Lqbag5q5OYuepeDxcVaAlrIHvP3QlhmwRfVunoA9S0CzE+Jkv5Rdjsouz7bpDYfnnVHCgZ44AKITYG/b49E97SKwq/zF3wp4GnSbfHWmjdyngVia7CcNEdKyv5hPIM0OwA6A5ATo49q884qzZQ9H4lYSoAPwree1ZQmMKNzvMJD0B9gQoajsL+YTSLMDsAMgOgHoWoY3HwUrG7/jbLMz2PK2iJqCpnSsLbrFr+O6tzTZTxgiFMj+4tS5MDvAcAAkJ8DxG6qSXbIe683B3if+4deiw4ImQsnuzPcU5lU27laZBQAnL9qa/ZVM+pP3Q8/Nc6bCPRBFEbsL1KX2PjPithP7bP33FMhZ9O5fW+hEmN9hZC1sI3MtGYWUXSrGLm+++o4I6lJ7nzkQyAbS5nFuIDdBPcwmaD4B70oIjp/3Rxgx7W9FzpY+YVKgpNbnRffCZMB4ZgxIxEL1+MMbh2ZJQC3V3Rnzn/IEiAofq9sbEbxdSY/xBxwlguD8KGKPlY1g3Abhmmc17Qu7Gj5byoCuQRyARcAriJp13ZwK+GAAlYBZAHUxdU5IdGobEbsD1KX2PmMgkIXYV9Xssu+6N5j+PyUAeiRA//mhOWsmKsyrbNytMgsALvhqb86cLj9kQM9Vu6Hf/O0weOIWK/hT7X8bCY+/z1X9JHDX5D2JFGieW0rLO/r8CcAEoIReD2cQcIeFkxLdHIKUXX68XT7o1E4U9mFMfwPYzWO4YyA5EzySN0sIqMSAXg+dAfO4hTMbiOQ7F3DbOgBs70vCPpIiIP7ckz2ftw7ssYGlDfQpiBuvO2r+YtudA7htHQCua2eOjaAIqN8f1Ww4rGn8ln0wjQSaQsTKgBen79HnDZDDwEzId84oWABXG/ga/fwEwBnTn/5m18CeKmSXPD0bgOkAEIlgVQYYNu97hXmVjbtVZgFAm747DmzvsnUf4N3juz3QZ+kO+HT6VsMB6NRzpVj7lsDQTrQznQAJKIwI/C67Nr+d1BeCuVx2sKSnhSiVOgD0+9nflF0qzC6fvfeY4ATYt5YEDpn/Z8RF6jPAXCg7KNVAOrKYdgRo8uHmObWsU/ooUY9yAiQnwfa65CjYtiojdLu9f2aQ3rel6B2kPjmKl9P2ZkeAANgWkR2jt19SI7RdcxzOC91zm3wQSN8GDHdbKprW2TFoCdGqNW2PInrc0mZNlxOiHuMESE6C5XXmBEiOhT42geyS/dwAP80v1/5xZiC/z+RihXmVjbtVYillpJySsrTOW/dBZx/49WP82rubM6DXil3Qb246PNZxsXdjjrbE6dY4KpMbi2lvHwks6/bzaFFKMXOOgbsNMDiOAJPtMzYOA/6bskvF22Vq/9uLwoheA7IPuMHQHle9nnYO8KE/rJuAEABx2x+dYEjlhPPn/Ukk5d1BSwAeF+A/Qcsg5gXYSggc3InoEOUY+HMAHh7wpAyOAjFOrKVLgEva/hhgSyl92/mJw6BaBXXLoOFg2BwWgcNg6hOEHAMl47uuQfuwtU+KogViHK2Xu9rdcNsaBWwxpe+o1RvAiOv2GEhtwEwjbSKuQzkGhhJfgtjlwL/SAtGfYItlAV8VcNWWwSlVwKgDcPa87IJRNPrvbHEE1P7L3O/gL8OXw7ndFsElz82KGUnboj8JQDE4SACO0/mxCIMsk2B5TDMR+lxSWtr1G5mTkLJLhdpl+bArcxkYK61+J4CjdH5MwqC9rY8L/+BMhD6XWYJ4cPwdebHGAlOxIIkYyDgCJFsgORbYmdDvp7X6IJsx8jHpLs4auqs2b7DydWlAStfHyjYQsSB7hsGRLRAcC+VMLGjYww5UOG0dixhHt6M2j1n5wbmkWrklqjbOS8l9rs9I2QIBQGMCeBW3y94Wzxuqf6YDwJ2BQxO/WaCwL3K8LwC4/vPd2SswwFPAx7v1hl1w0qxv4WR/nzR7Hfxx4mqo0+9raPH6PGjZapo1bU6BXYzmWWSIRv2STgLPWUDntqXlaR1fKiNQjgFmqdMI1eZcuEoDrnJCyi7x2eWfD4yHbROa5hiAbKTkyahfTw8AdQt4g33wtD8T7PlQIEoUdHQCBOcLHYUXJ/4jw1bvZ+Ct2wMdGv9GJ4GlBKBfp5mEez9vFbTkUcZ8VJQHs+0tUTmp44v8AEIeDM4nRe4xuALRbRELEhwKmlGgWY7xzQbBxvPaFdN0ddB6RhnzGFzpMBtbtGpjtFOSnD6fFLnbQBQDMY2Q6edoqx/9vTSaJ5mERLRLTocvEPMfR/xcKbBg0MxdCvsix/MCgJ+p9r+e6fszpYhf2jeu3AYn+OB/yuzQEQj3Wqj+xXJo9O5CuLT1TBYBUnA0nACjZdBME9tLCfb6sfTZsLxAzucTAcXPEMdEckbUYz1pUNYLkGWHU3Y5Mrs89OQQyJxRKz8Af7ot9fmgXKAzAiLYS9MAo+f0HAl8vgUuPkH0c+9PuWqf2d5HW/n+YyX3UdDHToIeC4zfw7MHcCug3q+3fvegWJ8PNgFcKStASgS6/o/PFxABLRE7jeR5+1409W8j98kcAuTYkMxE1AkYB0sav8tT5446NJWctaam6fbPiY83eumlz0iRPAFdNlCHACHr78fXjEEaAXJQBkgSu2Q+1EvWAggIgL4WgN8OWJaT31lhYOR4XQDwu/TC4p4K2NMcKX+8Gy76PsgAKAcgzAasjWYE0FbPTxu3Cur0WQrnvzoHrn3AArIY7D2NfU3cM50C47Noqh/NHMSMxglo67KDdG1BlkGoWdtKDFj5zsVBwL8rZZf47fL8873g8LzTyjQw61S8Ge2TMb/Bcz+SF50FKf0f8gSi568WlB3EMcI6yzDvj/Dl9Bb5rlY9DN6xSH9sQBDVCiB8A+Vg4PMN+NuYAmmQjn6uQVVMtVuIehS0g1q9QNzTWQaxlm8pMQQiQjE4CMbvIt89uckn8MO5Lx7GAGQI5CDQM8BMP8cg6UhBG+An9d8L/foGwEm1fFsqXUfmMWrtTD9f+u4kssu+azuQ6J8SAs0BQYeXbhyhMDByvC41GWn6gbzxtmiflgQ6/pARBffZ6wLwx2AflAVmfQsnosfKOVDHnzJ7HVQfsgwapy2Ay56c4d3c8fAfmo63ga3Y4oeBg6jPScBsi/QZ6HhOiOwAuL7DxQ8Ij9dlkHAegn4/ZRe3XTq172gI+UTJgbaavpnCN8iDCsjJGGAz/e/IDjCOQNQh0Y7I0pl/Fcl8uF6PJ/vZ+AHUWaDlgOjr5pAgTA58qf0bJbZI2oyykVa/pMonAXMctfkwU0Bq+VLaHzskMfgBPNIPMwOfNR0N3zTuEqjSYcZ7QIKzgQpJVTNNepqWFoDZGtGSiFcU+ZFS3/o4pJQngi1KoeuswN4GSPdfv5+kdsnz2gE58z/KCUAOQd/JUDh26dfH9XRAALhl8O6stV22ZogEQEoGfHjdjgDclRNwInEAPJD3MgHRbMCpHuiHjgB1FP40ZhWc++FSuPiVuXDDfdHsgKnhz7kANAvAa8VyrV3SC6AkQuU4uFQGJcCnET3NRpgOCwV3Oz+AShmn7MLt0iftBSTfazL9mXQwSufzFj/qLFj0AgiJMOo4hFoDtD0xfc45DPDx8zcWdoQnZzzD6vU4nU/B3cYPoJMC8TChj68ckcXIegh4NSiLrH/yGSktT0mEynEIhvW4ZggIXQQ4K0GdBUoytI3ynda0H2xr0KZYlKbFE/AQSLEUuhSF2kBRSMt75yNkOQ8gUU+9VSuf1tIRuIugSMl0rlG++lqT1C7ZLw3kcwHY8+hrBZ/O2KswMHI81//fS9+fY0v504xAy2VbPNDXDoC3/ccnq024AJgnEDgOgjOgjjl1xlqoOXgZtEhbAFc+McMB3HbyHY3OpYyBkQWgDgCZXaDPLeoOUI6CkLbG3ALseBilC6F8ITkvUXEkl0NzfNpl1IcPH3IBtyHsI9b8ZZa/eT5KODSzBLZugEPzz+Dpe//5hB8mgV6Ldy8NHASs+heLBEidASwIFB0cdBe06fyys57O6v4xWP6GI+C/x7oI6Pf570u6A0Y7oC2dT3T6bXyAYU1HwsqGncoY6GEwUkNyHACFt5GaxhEtfYyBE0e7lC2vgc7Feifpcpqux+l8ptNPBXnwuaRoOwntcuDu7l6NX6v+MWVAzAf48DjmAQDAb9MPFfeUWf/RjAB9vf7CDQFwYyA3ugKQA6AeR1P/IV/AVjbAGQT19y9froRzey6Gi1+azQDL1pJHAUT/peqCPOoOFQpxpM2BztKSSDMBlpJCkHkgv8XFXaC/W3IAjne7zBl0S47sAEi6/hLLn3YBUHVBeQhQ9C/OQJgOgHr/oQn/zqJAPfjbIUDXoG+HWCWB/03GBcfSBQhHCN8NH940NIMCsqjrL0XbJEIPpgZiB8CWMcBjex0OgItjYC0p4NY//zs8Gd/zWpdY0+MkyhSBjr4npalJ/3wAVFhFj3y/ocSHI20CdLbWOwMoXalzfQ59Tvo9x4FdMi5/1SIJHKb+cWbg8NebhiksjBxvCwDOmZl1cKxE9JPA/83Ne1mdXwJxDObGc0QStB+/1nQG/F1t6hqoNeBraPHWPLj6sWibYQgKZvpfAkEKmLbX4wFbGxjF+770fTQy5+/L45A1cErgf7zZ5dtRf8/EYK9VALFwUFQsCIO9UCYISgjYkZAcBks7IDmm3eSbd2GQfmzqk7CvYD9zANRr6j1b5G/W9eOTE37igzZyux4VyKHpeFu/vv6sAOCx2gFtWQEnEdDxPpbx/bbRG4exsI0tJW2klgmoSQI5QR0dM98lENSDcKSUday2N3qMDaTjfZ+m3I9Du+S9N453A0jywH0mQ+H4rxcpLIwcbwsAWn62K3tlLPEfvR9at0N0AFyAHstJoBtnF7ATQJ2Es0ashHO7L4JLnp/NokUX8FDugBSpMpCh0rVCR4L0fS7gigWG0m/AfykJ0kjPo+6I48kutz84BnZNbpDF5wGE0r5hFwCP6mWw106Dq0vAdAaoQmCvKVfuxhP+xm4aD7Y1btN4EdDjGfwjdRd0//eAPRLZDz/GXQDOqJ46Cs3QeF4pgqfOAGHnSx0J4vc5OAlzG/dyg4IEEiTtTCNdLGEbkMuE6FUEJg2OrkiVgB4T6ZGY8dL3uWrvscAyye2S3XaQxQHgugAFg2dvV1gYOd4WALz8wfYD++IBf7WvXb6FRecBB0Co6dscgBDUw2jfdY7AAUAcA49P4JMQT5u4GuoqEaIOUREimjaWwMkFSgy4KLEPdQVIIGaLtGOBskQ8dJ0jcADogKPg2gTSZJLb5dGnBkHerBr50iAfzcwXyYFS778g7GNn/6Pv0o6GzxcYN6N5ru7/bzv3FSguUzLk8lLvqWOowI+d+GdmB3BZ4KFPnxDT/XyQTyjW41TpM0DbxvS3OwKc2Ie6Akh9P7xeuRNgTLOhsKHxa4UiEEhEMlv9GwEdHVijSWUiCY5uXZemgOZI1QebEPsw+93Qw0fXbJ0M6ALl48guB+7pIU4DFIWBek8qU1gYOZ4WAPwyq6Sss9T2Z9MBaLBog5HO1yl9qRxAI3ebA0BB3juH32KoOgh0F4EmGuIMwQmo1RCTDM/6fDk0fHeRJ0JkKAZiGVoEYhLhTYOjNYJl0wPlyNwGdLYIWAOdVNPXHQqYBS9dN9Y0wL/FAOwktku7l94n9fzTiWQwAm6sF2AIClUze/8xCZB2AhCdgbC0EH19+az6AbFv7vZ5EGupY1wgL72H+QHaEUh76IO9umYfsOUlxn3Quy8Q81BLINbk173/mATIiYBYnAeJDcUzPRCXKEj2YWHj93iEagM6oXa9V2LBW5jlTEDH0scu9rT7IMYY7wgcDVEdx5S84DFOxdMoW4rcj1O77Lu6vcUBEHbfyVC6YVc/hYmR42UBQLUlOfmfWx2ALWZbYNqWDFa/ZxG6hRBIWwWlkoD0vkQcdJUg9HcFW0kUj4+KELVQIkT3T+Vpakl5kCr8OcDPBWYuwMPpdgqytnPT9L8tpU5f57+TPJfS9wlul7QOb1hS9tQpwKJBgqIgFRSSlAfpZ9H5Velg19zqHiinLenKwD43N9fbdKljKQmQtgpKJQH9/j3DH1Tp+TIjmnb01NP0PgZ9QzLYkr43nATLZ83zj4tZ86eZCyXju6lB23wWNdKWuHjS0VK0HCvVTsBNlMalYOcCQwEExSE8MSJ08Zjj3S4NnrEPA2KvT4LDs9dMVpgYOV4WADQenZE9L5bqn95PI/1/DbpGip+UAoLtv06jfB3ha82AoJXQIigktQ/Gcgr05/B71T9bDk06L4Qrnp6JwIOnyqNRcBz1aL8Ojj9rpLKF0bf4eBrN6khWR7y27zdAWgJ8h1NgbctjxLvEtku/Lq2LZZlfi1NgpP2ltkAN6ryEEI387doC/xl/V8nqfWsY0D/77LPepksdazD9ff4AjfJ1/z+dBPjGs10PxGq3Y2x7i1NgpP2FtkD8Gu/Jj6b5nWQ/PEGQtgyqv82UjG83McVssM1xOlqzz3XES8fLCtGrCGwu8JMiYQxGGryEVLmhzCdF6/4O6uD4uxE4iyOBU3YBZZec9kPZIKBgTgDVAxi1UP1zNo4cLwsA7ui3M2szrv/j9j9KDPzXqm0sQlcR9gkoFa9r8gywfWA/yVICoGBuKx1IrYcY4Gl2wcY90K+f8dUqqP/hErjolTlww30yu51Gl7EibQ2Q1/kSw9aIm5xHSnVT4LWlyBnAW9L00mMaOUvXk8h2GfvR3dlc199G5KPgjcmCtO8/FP/hnQS6gyAkI362pl8eBfl169aB+ldUWz2mq8/Kj81+f6URYFEEpCJBAy8am+vs+xdq+1YiH3nPyChQ8PdT94z1jzoIrK2AlFvQbAJMbvQJbD3v+XxrZElTxVKqm4K5o79drGHT9201axw5k+sJUtSU3e4fY7znirS1+l6siDtlF8h6tLc4GjjqBJi6APmfzFBtOXdEjpelBIB6bNtXoAC+a4zoXzkAf1u6KRT/ISQ8/fekmWtFgMa1+5OFWr7hMPj1fymlL5YWfOdCAzt9zeggQA4HJSKeOjMqQtT0HSVCND2IOF1Rrpg6ZY3nQAAAIABJREFU1xGykC6XAFqK1KUIn4IvBU56TRjcpddoBwEGeEy4o05AItpl8dDrM8xZAKi3n70WgjYHeCz4E7b9hcedaRUg2ndwO2P+/etf/wocAPWYrvTcdEPjH6sI4sFAVGiobfu38rC2P0/p88yA0fonvEZbCDHAW/UFWpi6AS5nhJYUhjb7ClY06HwIA1zAICcATSNpa80aS8YKqWsphW60uEmvIdBmAI8Jdyg9HRyn6uyO6F9MnVMiXMouYLPLvls68VHAelQwKgvo0cFQcPjtyPGwAOBX6YXF79OI3zULoMb89Yy1f6KTD+DLAftgfKoPwJrYp3d4zujxEp9AqvPj7ALWFzhRuB7JCZBIivh7/jxqJZzXcwlc3HY2AyYeeXLCHQVX89jorAL8viaw6Y0FeHDkK0X7BvgJ14evSYrqXa/T38yi8ASxy8Yx5+/VqXpDFyDICEi9/NgJkMYBY80AkgVAvIGyrZ0YuE+dOjUAf73Va3QNWz8iCvg60h8XTfeHsr/RjXkAH185MkPstxfq/EaqHukC4K4Am46AbRywVMtnzoZDP0DJ+G4/r02hEX1LvennhaSw3X66PyCw+RsLzRgZASnaF2rn3oAc6jCwerPgBLgiekleV2pvoyI49BpSdgGXXTIuaUumACJ1wL58l67b/onCxkiyLwD447zsgpHxCQBlQAdfAMgFmKKIjyj8EwIwPd6V6ndtOoVQckjoXxchURQh+vQbaPbWfLjq0Wkiw90GmLR9jTHYCbBKxztT/Y4tqfPZUvr0mmw19thEvqpplztajYKMqfUOhDV8SdxHSumbqf3Yw4aIeNDS8wCKuejPBRdcwBwA9RpduYdzA3GgeNoAn323Xakr1e/cAoDbhHxYat/Rq8+cBEtv//Dmo2B1o44HRZKXIFYjCdxghjsTt3Gl+h1bVKGzCdbQa7LV+GMQ+eK69pRdIJZd8rqPEWcAGKRA/71Ds1ZPUdgYSfYFAI1GZeQu4DV/U/5X70f9AUAqmjdY9n79H5P3bEQ9VR4IIn2B7Ee5AOzzFsKfQfJD5YmTBRIidUJsTgM9JnAw/N//l5Er4bwei+CS52aFhDbClld1bhtAmWlxFNEybXx777wU7dqibQq++K8JpPYaO47UxQhfGKVc1ezy+NMDIH/WnwtccwFMKWAs90t1A8ySAT4mHE18GpTt6s9AfcCAAQz89Vbv0TVly9SQBzAWjfgV2gN73/T5Tmtd3dEFYHIApLkAoRQwBXib08COQeenmYCZjfvA7gati63McFddHLHEcVaAAa7j81bCH4oqJf17g4RInRCb00COoSN4aY+/93tSdoGjsUtOu8F8FDB5rrMChaMXrVTYGEn2BQC39ttxICAAxioD3Lpya8zoXMoKmDuM9qMOgJnuN87vcwlkcl94Hlzvl6J5XC6gaoKYDyDxBeh30a4G/V2nTVoNdZQI0RvzoOVDXIRIjpJN0A0e+6NvbaQ2t0ofB2N+jOkgUAfAVRqwXbMEvuy6HcD8U9vllbbdHaQ/PCWQqgnS6J6XBMxJgKdB6YorQVo1atSwOgDqPWm1Q+JA1AHQWYDHP2xtAG28Kn1MiMfmIBAHQJr2J5YExPJAFPxHNRsG3zV6IydmdC5FeWjjiFkBA0v342NtYE8jb8n5kBwE4gAYdX4a8VuumbH3pcxByi5wpHbJfPgDYTSwmQWIOgCToGDIrF0KGyPJvgDg1R5b9+VJrH/eDpgBF329ibH2NWhG6/guwMcp/xDgdc3fFt3L4O9+PZ7MwUk2QmDw3L9ect38GsxShj7u7GEroFG3RXB5m3CAkQxspn5/CNzRbYtiXcDuBPwYEbIU7ZsOgSnCI6fr6e8yQdtNIPzp7NL9rfYlNslfm8ofJQSa43+xgxBmCsr3c8nfN954wwr+eqtj6FqyaylL+eNsgMoO9Ph3/3Rnu53tPVsLoCtzILD6qUNgEAFpyaD5eJjb5APYRVP2FDQtRDljiAytw/tp+2Aojg1QbcDuAvxYmQPtSJDygDHmVhq8Q76LlTJSdoGjscv+W9/hA4GYKJDPD+g7RRF1X40k8wKA/8o8XNJFA3xXZxdAhvdenfkbPBKf7tvXvfvqbzUa3YvPKTmQgDbpEqAA62rto/X8oFsAjSmmcsW2jAAeX4xVCNnWZEaf3Gizy+njV0O9vkvhgtfmwrUPTCs3olqSyqbv2WvxIUBKAG47RxAlo/58ySGQo/+QQIhVCG0dAtJjfd033ct/a2XYZch7T2bjiF/r94dKfnTzjIDZEXCmMRWw9Nu7GIjv3LkT/vCHP8R0ANQx6lhJHMimCvjgwMdMhT9X257NGRAIgmF/viDLa8kIGN+LVAj1VjK+Gxu9lqVJex6BT5P20Fx772+jkMgnRs4kxS/NkZf67Q3HwRXl03q+7iZA52ayvJaMgNERgNX2yE7Z5ZkKs0vGpS/LGQALH6B0x4GeCiMjyboA4Pff5BYOxtF/V+IM4K0UAAMgRCx+DYYeu98aJVMHQGb5246PNT3QiPAFrQEpK8Cjet59ELQG6t+owR49rjZ73RHbRYkQNe6yEC5/ZiYBOpnNLkWx7uibg7qun5vkO54V4OflLHsNxhrY8V/pscthcF3/T2WXaQPu2C2NBDazAmZUH50wiI/HqX/tAJwJ5blLGYA//vjjMcFfb3UsXeszN7C+fyT7m24j4RlT/1xpeSzNaxX2CYFfiuql9H/gAJw/ARY27XE4YOirv2oGvX/DN1j8+qavH7sidUyGc6nj0eNjnZfWm/GxUo1fAz8RAaLXFQCU/m0I0FJ2ebrC7XLwg4n2wUAkE1D8jTca+PeRZF0AcNakfQenSOQ/qSTw7IadrFefAjXjBNABQUKEz9PziMnvcwSMdD7SGBDPo7/TP46m8TUYY5AOWhVx2l8g/+GMBH7+Y+xyxphV8NfeS+FvL8+B6++dWi6CFAJd/FyK7GOm/VHNXwJjGq1jB0Bu2TMjb/w8+D6hNq8jdBd5j2YpjqVdlg+7YqcGernlL4zqNfjjtD8uDWhHoGwjV/ZbsmRJ3OCvt/oMXX1Xfsykf+8eeT8MbD6+mEfznKkf8AKsaf8JxnE0jR+k91FULzochBswvtkg2NKwbZYIhjqypr34Gmgp+Usig9nS9bS2r1v79PdqoHYRAdF3BsfRNL7+TRiMfPDHaX9cGjC07FN2gWNll9w3viBqgDTyD8sAh6atmKkwMpKsCwBaDN2TvdzG+KeOwD1r0hmw6Z5+ibkvbToLwFXrp+16tMVPAlSmPYDb+FQ6fvY6LyXv5iy4v487AmsrzC4nz1gLNQYtg6adlAjRjMAZwKBF2/Voi58EqKzHnjgA0eg8PnEf2/dxR8BM2dsif+e2gPexssu28U12GaI+C/4ExfP/FFPcx4z+w3JBeeEWcIn+xLslcaA9+XtZO+Abbd7dScGcteu52gItDH+jfKAA/YIJ0R2PuI/+fLNx8HXjrrkUXANQpCl7P4ozauhSih1vqnnvqvWTdj3W4ic5GkR7IPi8BvRGrb3UczziPtbvS9kFjpVdslv3Y2JA4lRA1Qnw5aLVCiMjyboA4La+OzLT3b3/YUnguhXREcBW4RwsByzNA/BfO0FIv9scAhxRG5/x6/muTIJu1cOZhSAT4Kfqbc6GjV+AXw9mGDBFwYqzy59Gr4S/9lrsiRAZgEfU72yseDlipmx5M7rXDoAEqrY6On4dlwRs16ePV62AUTlgO0ir9yWnQfytP9Iudz40HLJm1NqvAT0k+GEH4DSHNkC4JdGf0aNHHzH4660+S9fw9SMM6d9PLhqTJYEvVv0zo3U0mU9yDHCrHs4U6Khe/dUOgORs+J+Z1PRT2NbwhSjDnwK0BkuinCfW76U58BSk1TESCEhAjCNH9BljAp0lk4DH0wZOAalR25wNJ4M9ZRc4VnYJRwMjFUDlBDBtgElQMHiWIt/cFknWBQBtu2/bnx+S/zJYCQCTAlss2cRS4DiKpiQ9ExTNGj4FSky2C0E1TOF7x5CInvIDgnP5QB8OGOLXgr/fqOWjyD24Fuw4IOeBA/6xtctp076F2p4I0Ty4+pHppRScJda+FIFjcDaPNVP4tL4fq5bPyX68NICzC5SkR68FOwrSb8GqgPozktNypHZ5unU/KJr750JT8hcT/86EYuUMeNmBM4n8r/98SUOA0nwG2JdeeulROwDqs3QVlRQF4kDt2r+1zyDb6bG/BJw1D4CJ+uCRu/o4DfCU0CdkFbzjzo9mB9Rf9ZmhzcfAqqZpmZikRYlcjLmPU704iqYkPRx942gaAy0FDVQnDlLIOqqXAIWO3MXjZnW0KV0Lfh3VrI0IlZDXUnZ5+pjbZf/NHcOaP5kBQHkB+R9PLVQYGUnGBQA/zzpc0tk+ARCDf9QpqDn/Oy7hi2rpZi++D7xClG4AHqnNU9Y9BlMJHD0nAWkFYNIdTc9L4j7q3OrzFNjxRENaFghJfSZf4Ke2y9m+CNGlL5jZgQAMhWiYAiwHRc3Qjwr3MKcBTe6jZQHqSFCHgToUpkaB/5gI/VCmv83pwE6NdjIkoI/XLu1ffrdcFvdRAI95AlFegO4c8OR+NzwO5XnLGVh//PHHRw3+eqtz0LUpazP0Wt4b+l355S5Drpc4ATpStwn4YK0A7zUF5pbaPuv3P19lCcYZWQEl47uzQZuDUgTuRcsYiHFdnJK99E0f9eIHgjlSFI3+sto8JYth0BCcBu868fVjcpmkMIjLCdpJwDwB/7PG5L6UXX4yu+y7pJ1FAwA5AigbADmFnRVWRpJtAcCv1+Yf6m/v+fdf35LhOwioAwABr37uqfAh8p2tpm6k0AXZXtryR9v6XAOBpPS9Ld2uHQvc8087A2ylAO/aEMGwKtil2uQ1UKvf19C8w1y4ptW0Eqk27mr5w+9TEiDtDLCVAjSo6+PZeZBD4YG/diaIWBF2CmhpgZcAzJY/Rv5zDEqKZZcPOr2UHbYB+pG/0fOPOgMW/BnKNj4H5fl8kp9a+fn5UK9evR/tAKhzqHNJK2tjLizquDoagdOWP9LW5xoIJDH6bVyBwLFARL9hzUbBt03e2stY+BSs1Q0c19YpaQ4z6dXNHJP0bDV1XCsWSgCs5Y+29bkGAknpe1sZQkf+2FGgnQEpu1SKXQ72pkqAUjtg9PXiDTuUfOevI8m2AOCUGQfyxtCav80ReOn73SySthP5zHY6HNVKYEqjdbGWjqSHeW0/fKwnEgaAj0DXINshIGe1fv81CrTyb/22StpFiRA1fHch/L31rOKgNo7r7Ah0MdkOA7lUX6cAHIuch6Ns+7Fmm6Et7U8jdkpmFPkA+poFByAeu4z8oJXfGaDZ/qTWv6Q+lG55A8oLfwDXevvtt380+OutzuVauen5sKznOhjecppVelcr/kkOQMgZCJ0HLzsgqAFqR0O/P6tJn+Jd57U+5IEtBlcSmTs3BmgL0DOJXQz40rmkaXzoOFYvlhwAnzOA+QcGuNDPacCi15+yS6XaJbfTCDntzzIAk+DwovWKeHNKJNmWUiH9cl/eXIkAKDkCD6/bYYAYja5x9Erb7WiqOwBVNBOAprslYp3Enqfnt7XixbvZeYmmgK1WX5XtokSIavddCi1emwPX3R9mB45ks7Q/0RSwg3bYdSCR7qTOANv34pkAUimAOgM29r/kJLgcmbmDbtkqsf7LNr0IcGg3xFrdu3evMPDXW50z1irIKILFaWt42t41/AeRBplz4Nijmg2H7xu3380iYw2wlhQ9BWKDXS8xwKV2O1oC0A6BFPXTz8bqMKDnt7WcxbtTdql0u2S3HcRa/mwKgYemrJitsDKSbEsNIRu0M2utjf1PHYDbV2/jLW+kp5+mw22gF/2MWbc3wA49DkcF29P6GIBdHQVSu57E2neCs0RCTDC7VB8aFSG68qnph436u8gJsEf6UksdB2JTx9/WLWAD9PC7zQyFzQkIRwW7yx1UTtiemYg+/u7LS7ZgToA02IeuL7/8Eq699toKB3+91bnVd8Ra64dvDfgAzjZAmwRwjL2wWa+cPQ2eLmc3dNdNnqZ9hZo66+mnaV+bM0B7+zExj35O14yl6ySlA0NO2BJpipFpyi5Vyi5Zj/cR5X9NQmDUCSj8aokaCnRBJNkWAPyjz44DO9wZgLAj4OrlPxhgJT02IlWsiCcM+6Hghgl1+DMY6GjKP4z0zTq+jbzHSIGWPn7JQdDAr7/P5kQkml3OHLMK6vdeAhe1m1Ny/b1TyqzgbXEQNPBrkLY5EdJjF5nPRuCTiIaS2iB1WswyR6hTYM8OmFoGN90zCXZObrhdOQDl2fOcgPv555/D5ZdffsyAn271Xeo7XWv3N/uNdj1XOl9uBeSkQSXju7nRK7uNOrcrRYtv5Hi0rgQK0mOJEU77vtFnJK14g71PHQBLOt/oO7dkB6Te9JRdqqZd9t/dTWT9m7MBoo/zP5+zVWFlJNkWADzRfdv+PM32l2cAhA7A+Uv1ECAMLNF9qmM4EGatM0CWpvBpRj2rg/P0O34uie6YgGyCIU3L87S+KelryySYDkBi2+XkGd9CjcHLoOk786HlYzOKaDudBkbKupciZqmzQL8XBWh5OJB8Xgr+sgNBswe0LCEx/2kmg19zmHl45c2JUH54f5kNZD/99FO48MILfzLgp1t9t7oG2yo8cAjG/nuODPbSRD/JMfAfL2rSbZ/ItCc3Y++mTVn3UsQsMej1ewqwbcNehPMGEbsAEoFePNWYl9LMOIMglQrQscxJSNmlytplv2oFlCYC0sFA6vEn0zMVVkaSbZWUwZtpSOTHGAO8xZwLoHadBRtYJKtB5FRhXC6LoEnbm5Rmd6XnZfCKXScPtQCkKD8k15kpc/Oz+py6No+1/aUIP1ns8pfRq6B+z8WqzbCIDgHCIKpr8/EANI7maXnBxgOwcRJcZQsZ1GPzB7CmAD5/Wq9Vzoi/adOmlQb8dKtrcWUE5rRbZm0HpBu3+SnnYHzTQbC14Ut7xRszImLRYTdGP7c+ht7kacSmb/D6hk7TxegYJtojpZNdaWgB1OPiD+h+dSGaTdmlatol47JXfBEggQRI2wM/8qYCdogk0wKAX6QXFr8vTQA0n4dOwelzTKDSIEIB0QAnpNkv1adp6x7eAegiZjsGS1uaX2LMS3V6OfoOgZMN9EG/F7P2JYBORrtUm7oGan36DZzfaX7pdY/OKJRS7q42QX0sBWvjM0j2N5Z0L33fiOgFUp8tzS91EtASyOejN1nBtEePHpUO+Latrs22VvX7Pq5af+AMNB8Hy5p23sVStxIRj/TBG+ItKOVusPYlgNbHUdU3/R0SaU+qG2OAx21kqu8cpfoNJ8KS5hc7CaSUdsouVdYue5u2IXV/Qv4jvADIK0xTmBlJlqX6GlfkFQy0if7gCYDqeccf9jKVvhDofH19PBHPwnZXz4PjiHAOi1YJ+U1KdWMQw8I7+DOGWI8BxkL7n5A+x1P+tFKg+ktr8cebXc4etRIavL8YLm8z66CkGEjFf0IHICwh2CYD2soCrs/FUwKgWQl6HilD8GraN1YQbdu2baWDfKytrtG2pj+1hIv7nE+G+7QYD5ObfVKyveHz+1kq3FbHJdE0FsAJ9PK1Mh690ZObv3d+NfUNTX5jkTgGAf84KhBDP8cU5qQSAAZ3OmmOpv5Tdkkou+T1HB8F+4+mmK1/wi79YU+fpNICAIATZmYd/Mqu/Gc6AC9u3G0q3CG5XZxODqNkM42OP4s1+KWUNp+0Z4+GcURMFfd0ZCx3BIQR+ImOyJk5AVQemCr/Had2OX3yGqg74Gu4sMO8wmsfnFoUr1xwmD0wywuy42ArE9AJhO42QKl0gZ0FnCV46uWFInCWlJTAFVdcUengHu9W16quWVrj7pxrjPSN9vRHNQKGNhsDaxt13GaI29CoTb+nomhL5Exv6vgGzmRx9cbgQQCdpouNz6JIUEr1s9owrflbMgVUWY6J/qTsklB2yX1nJFP9M3QA8FjgVVs+U5gZSZYFAGeMy8idETL9MwzVP1r/f+y76BhgKU2uI1c1YS8gqNF2Nay6JxDldOSJo1T9ugbWk/1hOa7oFGsAYJAzwNEHQn0NJ/rn5an48Fqx1DAm73EgTdlF2eGsYSugQTfVZjgzB4M0Bnc9edDlHEiZAVyjjxXNqyFCEnfAFAEyRwfrv/c9Mweycw8zwNy5cyf88pe/rHRQP9KtrlldO11FmYdg5A3TjVKAcgCmN/4oZ9d5z2YbN3MEjAEQNhD647FQDh6Qg8+F0rQUMIx0sI7oG/kyr0Ibn47O6Yhd/D2sDVC/rj+vf4MrOkW/MWWXxLZLzqtDYjgASAtgwbqxCjMjybIAoPYXe7KXBr3/PumPcgB0BuCetdsZY562p1nT1aR9jaWpfWa73jrNjqNnWrO21+/lejol+OHXccscO49P+qOcAOP3pOzitMsZE9dA3Y+WwsWvzMm5/v6ph2NlB1zgH4/DIE0hdBELJZ7BrQ9OhxVrDzCwXLduXaUD+Y/d6jfQtWvJPvjs4kke+A9vNgrWN3l9i1hPp4Qt/DpumSMAGii80RovlsolaVratmdL47O2PpK+14z/AOh1OhlHiaSWb6tTsyxByi4Ja5esZ/vbwR/vj6ZA0YxVMxVmRpJlAUCzT3dlrpMkfyURoFtXbhXrwwEwSwI7hGFO69TMWUDOgDFcB5HYXMAfkONQKtt2THiceb0Y8KWaPWXx23QEUnax2+XsocuhWdqCoqsen+FnB2TdAVq/j1Xz5wx+XhqQugaoyJDa0+fySFmtX/3qV5UO4D92q98grU3jt8OcZh/u3d2wdaF3w6RiOjRlrjcRXvFuspSlT4GVvG/tC9c3dyFlz5j3NMIUvjtwBrDj4KeIxdKA9JtTdkkKu2Q+/IEpB+zgABSO+2aJwsxIsiwAuLLPzsxttr7/zmRfvWwLrzP76W9Jkx9H1N5xWJvfWn82ywKYfCdF7jRap4+NVL7QoiddA07109p4UGLA2vvSTtklbrucOXYV1Ou9BC55YVbm9fdMMSSKj2TeABcQInMOHC2ExvCgu6fAOz2V8Bdfl1xySaWDd0Vt9Vukld1mAAdUlJplBDp8HK71umrAfvoXa+9LtfcgzStp8qPIUR2Htflt9Wdj45HAkiNBP0+/P2WXhLfLgbu6eWn+aDuguyWw4MuFaxVmRpJlAcBt76fv32+dAEj2hV9vDm7cVGtfPw8j5ZBlbkvRS1E5fo6Z9rTn3n4+v16Pnwu98BJpzlY+oJvaQDsDKbv8eLucMnMtnDN4GbToOD+n5SPTc+Lt949VNrDrB0QzBPj5P1tNh81bcxkwvvjii5UO2hW91W+iq3jddtjTvI0RqRmCOlJkRlO/UjqYbn2TlobvUK19/ZxEfVYVOYFQxsoCiFHOesst5wsALWWXpLDL/n+mEf1/Cwmw72QoGDZ/s8LMSLIsAHikW/r+fJcDgB2Bxos3sog3AEUU0XONe+oE8H5z5gCg1H/AkEe8AypwQ6N+fZ26Ji1lCOgEPfpZmwNgZBcsmYCUXSrGLn8avRLOfX/x4SvazMqQSgG0VZA6AbjP39YeiOWB1XvDx/CJfkprv7LB+lhtaY6AqnkakRRm1ZObNpugp4/BUZoLpMk5JCDAET0FFnpTF/vNiQOAU//BX1RHZsI/NLpN2SUp7LLv+jflUcCSAzBk1i6FmZFkWaqFufPWjPIucToAdRdsYKQ4fcOm43WtkTqacKfAEx8rMe9j1t9RSt8g9OlyAxHbwVE8Bn8K6hJvwFZeCHbKLsfULqdO+xZqDfwG/tZh3r5rW03LCdP6dlU/SfYX1/3x6F/1+LkOi6G0tNwAwx07dkCtWrUqHaiP1Va/Tf1GY5WUwoE73w1upExsB0dl+GZOb9L0Jo6jbEoUw991Hrlhk/G6tkgdT/7zvp9+H2GYx6ozG6lrlF5O2SU57LL3sleCDIBXBrANB1LzAD6doeSA20aSZeWUlKTJ0X+G6AhUn7feSLNjVjzuO5fr9CZIaxB2pfHpe/izfIAOJxrierMtkqcOBXMuHJkMniFI2eWntMufR66ARt0W51zx1Mw9NN1PWf2SboBUXliyPINFw48++milg/Sx3uo30nVo1hozmpLa4/ANmUbaEshKpC1y4zeib12n198hADpLQeM0sCuNL/0GGjVKWQX/mJRdEt8uGX97McwA9KYcAFMZML/f1IKkkQMGgJ/tOFT8nhz9hzoAeJ8+h4OtK1Km7YL0Jq+jO3rTj9XiR3UEpBo+dgBi8Q10xkE/F1sZ0QAhfm1uvkPKLsfeLkqEqHb/r0svfnnOrusfmJon8QWoMBB1AJ59bREDwU2bNsFvf/vbSgfoY73Vb1S/la4Dd3Q1yHUsOiMgaTCvJQU2PBCGgHDMuj6N5tD3s1nwKBvAgL9BjCyCa+iPBHQpuySsXfY2edYEegH4kSaAGgDWQWFnJNGX0jReX3CobywHQGsBpG3JCNK5uIUOM7tddXN8U5fAXUeHhmQu0g4QNQZIFoCCs9iZYHQfyJkGO1AhISDyWsouVcsu1YevgBadF+5t+cQMLzsgEQPxTAG1R4zjtf/27dtXOjj/VFv9VrryB0wTGdVGjdUWUVtuyMZEOCzQo9O5JLVsAIrtvHSQjAQESCAmSO1TuWAp9Y9/E36esktS2OUgi/zN/n/sBEDR4Y5JMQ8AAH65LK8IzQGQt3YA3ti8V0yXYxClKXoZWFErnSUNj2/mXicAkteV0smxQBxnBAx+gHB8wEEQuhLwOQ0lwJRdqrRdTp+4Bv7ad2neFW3npN/4wNQCqVxw831TYdceleELV25uLpx11lmVDsx0X3rppXDbbbdVuB6B+q3qN+NVmr4P9jR+lkd4uIZLIm392Ii4pYgMR3348zRSEyJx1uONwUWDECWVUXDX/f++WlzQCkjTybHAKmWXhLZLXo+xUSfAcwRQO6BiqS+RAAAgAElEQVSgBVCWld9VYWck0RcA/GZBVv4wrP5nawNUj1/etIcAKwbJMDI+CQvqCFEejgZxhO6qGwefwwNrdBkAOwQoAsW1f+8zmpUuMP/1c+wAhOQzvo3rtsgAp+xSde1Sfehy+Nvb87Zf9+j0IDvQ5cPVLPrt1atXpYM93RMnTgyuLzs7G/785z9X6PnVb6Yr+4VPgxvtXh9cRSa3Bl10Qw/S8NJGkaJV1pVEgDra9G7oUpSHo0EcibrqxjrSxECCFeP0deBuAVzjTtkloe2S2+XLKOgHDoDQFuiXA0p3HeipsDOS6AsAfjfjQF4wCAj3+0saAM9/vztM35Kbe+xULrppG9F3lA0u1YHxDsbvEn6AvqEHAEAG7lDAoFufk/4eiZiGz4OjUWPmQMouCWeXP41bDQ17Ldm7+Nt9ZvivJL+aNbMC5Q033AAfffQRLFy4ELKysjx9/fnz50O/fv2gXr16xwT8L7vsMgbOXbt2rdDvUL+ZrqJpK60MbByFMfEdiYCFz4OjdKQhz84TI5VrpJrR8QEbXKoD463b1Qg/IHAAcL0aD5ahDkbKLglpl9yOw8PIXzkBDlng0h/29lXYGUn0paYaTcnMm0CBvrPFGXhm/S6egiURFk33Sqla4wY/MwRpGzjjlLI0MMgGJry3XC4RUNU/fT7xulD2wHZsyi6JZ5fzFn7PQG/48OEiQJ500knwxRdfgGuVlZXB4MGDvWMrOvVPV7du3Src0VC/na59LV93psKZipt+Lii2GT3ctmMJEz9I4VJyngDcxjVZFOOCz+GUsjAwyAYmrI0wZZeEtUtOh8/DKN8oA/CSQPH6nZ8kxURAADhl/IGDU81af1gOwF0AnfUkQEbeMkGW1tpxCp5G1cHjuOWBQ8DgNXueCsZRICMQktG+Xo85SR8bgEIARL9HdQRSdklMuzy8jvTAA8B1113HgPFnP/sZrFmzBuJdo0ePrnBwnjdvXnD+nJycY6JPoH47XdltBzKiHB3V6gEnHaqDgNYAB3wzpn3hOIIXPsMAQSLr+Y/jlQc2CIQUmKTSAc4apOyS0HbJeWVIEPGHksCyPHDx2m2DFXZGEn0BwB+/2pszW48B1tP/8Phf7AA89O12Vn+lgGlLkwc3W6IDb9zIhZs5JoLhSA5HkDLRTAYc7ADgaXVh2cB0CvB7UmvgSSSDkLJLYtql/w6l72GuM844gwGjIt7RtXr1aujRowe8/fbbMH36dPb+nXfeWeEA3ahRI/jHP/4B//3f/13h51Zb/Xa6Cr6Yx1LnuEZuMOnRTZamzsVWLywcQyM1/NeWDtZgj98jwC+Cv44c9QQ5RCDbbYsa0WcZ4KTskpB2yX7xUyPaz7fOBpgEh1f8oNJ/p0USfQHAmSMzsueHwj96czEg5QA8sHZ7nPVbs3+bRl84MjyRvoZaxqRojZK86Hu69i+BjnHjJ8AQThokpQNCNMTggoEuZZfEtsuag0UG2G3cuFEExqVLlxrHqVT5//t//48J6qgSgF5jxowJ3vuv//ovOP/88w32vsoqNG7cGO655x547LHH4JprrokJ7Orzp556alxg/otf/AIuvvhiaNWqlcchOPHEE+P6nLIBXsXrd7CbLSPN6do4SQUzQh0l4WE1txj1W9bvT6N1HBmievFe2jImRPfGezR9raNS/P0S2KTsknB2yXn+EzP93xs5AIYk8CQ4vHTjSIWdkURfAPCX4XtzFsUzBljte9dGMwDSjZpFzjYRH5ISdsvFugAjuvE1aMC2fU4z/m3nV+eyRfoSwODXUnZJXLvUmr+eRbtfffWVCIr5+fnGcQpQpePuuusuWLx4MXTv3j3gAahU/b59+7zP7d27F5o3bw5XXHEFLF++nH3/rl27oHXr1vCb3/yGnbtly5awf/9+KC4uhnfffTd4vWPHjpCRkeG9pxyT008/Hfr37w8HDhwwzq2ck9dffx1+/vOfOx0AZQO6Mi59OWRwSzVefVO1RW4S8OLXpDo9AWfXuF5MAKSbjZp1AEYwC4BcJ2slw9+dskvC2iX72f7Ouj8mBR5a/P1ohZ2RRF8AcPbne7KX2iWAzYzA3WvSxZurWGOn7VgUSLU+PwJlVxuXASqoPS+2A8DlZCk44dQz/T4MUhRQ3MCTskui2EU5tnSpdL4Einv27DGOe++99+JOq/fu3duMqIuL2fcywM3IYDX+mTNnBu+Xl5d7HQf/8z//4z3GSzsbthWLPKhsQJe6UYrELZJiNWq39GZMgNYFyEZdWQIIDCw4WsQ1fw3errY/BCpGG1oMB0CUH07ZJeHskvXMx6jmH6j+meDvPz60cP1YhZ2RRF8AcM7QPdnf2PT/6b5rTToDPYksx+rujsE+lPQlpt79OrwB3AoQ0JAY43NCyh8TxujGaWWalqbnFK9VYKyn7JI4dnl3GwfKf/7znyIojhypsn/mGjp0KNSuXTumAzBgwAA4mrVs2TKjzKBaDvG6/fbboU6dOkd83sLCQqhWrZr1epUN6Dr40WSusiak21n6VVLVk6I96RicfqdALvTqG+egpC8hxRzUmxFAKScADxXCn5NS2wbBMGWXhLNLlucAoFkAggBQ4ADM/3a8ws5Ioi8AqPnZ7uzlsZQA9f6PlwEIxVowUAY3VtLaxaNnMwqPC2TRDV1vCTxoREjJY974WUdK+QRLiloCMuk3puySmHbpvd1MkatVvXp1ERRvuukmo76Pl2Lnq9S/TZ1vyJAh1k6Bm2++2XMibrzxRpFIqNL7NgdAkQwbNGggnluVLFS6/5JLLoFOnTp5oI9X586drQ6AsgE736CZJqHOdmOX6urSDZu8H6TdMfjiCFCI4qw68JbaM/s8dgD0FsCDRZ+EbJiyS+LaJevJj2T1P0EL4NCCdRMUdkYSfQFArSG7s1c4VQCRSuAdfgYAR1b0Jo114HHEZ6sJ63PQiI0CbZSkx2cD2Ibw6KhfAhBvUylgvw3NTPvLm6aVWco5ZZeEssunO80OAKWu54rkFeCWlpaCbWVmZnrASiWEJe2AtLQ0dn5Vmx84cCArF/zyl78UHYC7777b4xPQpa5RiRXhc6uSBb1W129VtsCrYMR8mXVP263iqLWzdDsFV4HYZejA44jPVhPW5yARPgUU77zn8dkA1mEzOr0tORwpuyScXbKe6MPr/sY4YMQBmLdOSXHWiiT6AoDaQ3ZnrZSkf6X979XbjFYqWlPXN1zpRm/U2gUdflqnpxEhjhQ1cFDNeel68PmMdj5RJGitN1hGeu8kF28AcQ9Sdkk8uwzbY4Lc7Nmz42rDUwQ7CsYUtHELIC0fKOVAW7bgf//3fz1wxuu8884THQDVPSCp9ymVQnpe6TiXWJGyBV6F45Ya7VmS6It3s23UWhaEkaI/HS3iGrtUO9YALTG+0blEvXlajyYRoREpauCgmvMSNwCfL2WXhLVL1uPaAUC1f8tMgMPDJq1V2BlJCgdgl3IAMizM/wxjMuDtq7cZN2adUg9u2qolC0VWuN6LIy58s+bDfMigH3S8fq6BOgBy3K+PiHz6eRj5xdYEkNLTnPkf6gdITkHKLolll3H7cgyQW7JkSdzEPlWbV+n78ePHi1kBRcx79tlnvWNVqh+vUaNGOc89efJkFulLDsC9997rOSR0KW4APWf9+vXZceeee671GpQt8CqdPBGKavwFDtU8Cw7V/D+0z4Yif6vHh2pEd5HaNatH/56jnqvH1aGo5jlQWOMcKKpZAwpr1oCic6pD0TnnQJF6zX98SO0a6v1a3i6oURMKa9WBwpq1vV1Uqy4U1qwT/C2sqf7WhaJa9aCoVn1vF9ZW+69QqB7XrA8FNf3natc5FwrqnAeFtc+N7joNoEDtWudCQd1GUFCnIeTXbgD5tdXfhlBQpxHk12kM+bUbQYHa6nGdJlBQpwnk12oE+bXUe02iu07TYB/0t/e8ttrN4GBt9Voz73F+LfVc7eZwsE4LyPP+ng95dc6Hg7Waw8FaLaK7ZnNv59c8H/Jrnw8H61wAeXX+Brm1L4DcuhdCXh1/170I8upcBHl1L4Zc9dfbF3vPo/sSyKt3KeSqXfdSyK1zCeTUuQRy6/49uutdBjn1Lvf+erv+5ZBT7wrIqaseX+nt7HpX+PtKyKl/lffXe1zvKv/51ZBT/2rIrnuVt3PU83pXe69n12vp7SxvXwPZ9a+BbPW33jXe86x610af11V/ozur/vWQWe86/+8NkFX3On9fD1l1oju7zg2QXfcGyKp3o7cz1a5/E2TVvwky69+M9j/gQL3o38z6t3g779GOUNh7OBT1HuFt9Vjtgg/V3xH+Hun9PTw8eRyAoAQgyf9ip8DLAKxJ927kJ+ibOUnVmilduS5Ln+OIHAM21vPXEZ875U5qu0TZj6aHqV4AjTBZGlrQstelA10+SNklMe0y/UCeAXKrVq2K2wHA+7TTTvPq7JTdr57/+te/hrFjFXnYHaHjPWLECOP4559/XnQA7rvvPg/E6TrnnHPYORXPgK4WLVpYr0HZAq/y2dOhpPrJUHLOKVBc41QoqXEqFKvnap99Urj1c/JeaXX0PjpGvR5970Qo+b8ToFT9xefxH3vfec4pwTXoXaz+6vfwc32N/nN9zcHr+vz6nPi86Lu94/S51XXg79OfS9klYe1S2uoOKOvZFe0u5Lm/3+8C5bOmJk0JoOaQ3dnLKejb9ADuWJ3uTOfSlK4UYQc3czWydfa6MOVON7lpm98TAjee6EcjeynVT0sAlDtgqzlLKWqRG5CyS8LZZUG22dv//fffH5UDoLcC1KIiU1hICfGoLAFec+bMsZ5DCQHRsbw6oqd9/coBUOUBupQOAD2vcgro+vvf/269DmULwwFYsiB608TA6oOiccPHN3d8k5eOs31WOMb7Pv0c3cz1dQTP1fXVrOZt/T7eDOTRXxOgTowCDQEQbQPjXCm7JKxdSh+6E8p6dY1uD/wtWzkAs6clDQnQawM0wd9sBQydgwy4c802kRwXRMekVmsco/u4Sf03uDmTiW/4Zk4lYg2A1mlllFo2U8kmMMhpZA5U/HeYbHV8rTYhm5RdEsMulAOQnp5uBcRTTjkFrrzyypgqfJRs99JLL8GECeq+Ea6CggJRblhtRd6zReq0v185AFIJQLpGNTr4SBwAZQvDARg9LIyYdSRNoz0a1eEbMo2yUYQdRNnkBq+jwFLpZq/PK4CHd6Mn5zCieQTy0U2u2Y9Ao9uMZsW/KbskrF1KlQPgA7wH8u93hrJgh+CvnsOcGeOSpQ1QEAKyZwKUDoAU3Z1IUr4SYY613/kyrrg+LGnBGzVkJ0BLLXu8nQyzwiWi38lH2ApoBbCUXRLGLlQHQAGsBIbt2rUL6vwKGM8++2wrcNKWP8UDmDRpEgPfiRMnwu9+9zvjs7///e9hwYIFxnHbt2/3JH3V+0ociDoASko4HgdAOTB0XXTRRdbfQZ2Nsl7vhpGVFOnZojR6nAsE2OsnmilfFi36UToB7mIE7tEUMQF65gDIaWTbb2BRbMouCWuXskfuQoDfmTgAvhOgHYB5s8YkixAQkgKmcwD4LAClmOZKlfPJb0LKV4MoJoM5wZS395kRt4XYRwfBOICcRalEbY5+B74mCYBSdkksu7TesMsAuby8PBEMFWkPL5WKv+qqq0SpXkoIVPr+lNSnl3ImPvjgA0/6V0kHb9q0iR2jnA99fskBkHQAJJEfpRhIl5pNYHMAlC0MB6Bda/uNmdykg6hZ181pHda4cUvAzEFdTBHjx7qmK6WNBdBgYKWvy/8t9JrZ9Qv15ZRdEs8uZY/fZ4B8+BeDv58dWDAnaaSAzxyVkTtPZv+b4O8NA/p2u0CmctfKJRKeDL5cpQ2z7U2FN0EExjKwRwIHKZKnABP8JvR6qCnPf3fKLolrl1tXbTNArqSkRARDBbKHDh1iAKqkeV944QV45JFHYPDgwUwoSAG6it6nTJkCR7MWLVrkkQj1dUgcAKm2r0iJ9Deo66BLtQbaHABlC7xK77mVp2WlmzhLpZuga97M0Q2akO+c0Z6UAraAjP4+SubDNeEgSqXnpXVjS/o5ZZfEtUvpkw+QVD/aqP6v/pYvmp80w4D+OHpf3ixX7z8mCKqZ6bZ0OSVe0RqvdNO3E+3Mm7oEFME5AolXqZXPReoLwVxMI1vS00bkKvAOUnZJPLs0X8Ij7po1a1rlcSkoutbBgwc9zoD6LHUAVHcAnS1Al2rDo33669ebw4suvfRS+O1vf2s4Hqr90Db1jxIUlYywdJyyAV2llzcz6+wGaY5HZWHq3R6hBSQ7ekO3RfH63FLkZwEUBkiONL5xrKo365qzKxVN+QcpuySUXUpbP2xJ+XMnAL5ZkjTjgE8Zf+DgVNr2Z9tPfLdTJFmdLACj1/qlW8AsaV7nDZ304bOaMVLik6JFiQDGr9veBmi0/Un1aOEzKbskpl3OmLOOAd1zzz1njYpVOn/bNjNrIK0NGzYE4j1qT506lb2v1P1UH/93330XvK6cgrlz58Idd9zhjQqm36+O37Fjh9cloHgFeqpfnz59PHBXAkJ9+/a1Xv+bb77pOSbKkVEcBNtxygZ0ldQ5ndXLXW1duI2L3oDFFK1EyiPn8v7+3wlBC5gBGDZgphGljujRuXHN2OMPSNGj1DmAasspuySmXcqeezx+B2DV8sEKOyOJvgDghCmZeROk1L/UGqhqpe6omt/0XZG0EQ066sEaKE6IAeA4nR+LAMYiQ8tjnS6m3yWlpVN2SVy70FbAWGqACrhVNkCBqRL4Ue1ySmdfRedqjK7S9KfjdqkDQAWHlKgQTvUfyy05FrFUAL0WQFtqlUZe9LFOo9Obv1QTtkTVJrhTcp/jM1L0JwCFAQ4SUOG0dSzCYMouCWWXsrbPGByAcoMDQEiA361VU71OiCT6AoDfzcw8ONrF/Md/X/h+txNM2c3YIv4iAQS9UUvRPI8Mw1G/lBl+Aon82XUKAGJj+lPSmD6fFKGm7JKYdnl7/Vaz6R7A2qJ3tJs6ADNmzPhJwP5otvrtdJW1f4HdWMWozMbcpmQwdSOWQMAGGgyIY9R9WasfAnYxmjcjw+A4//NGJ4HnLKAIN2WXhLZLWfsXjFY/Bvw4A7B5Q1+FnZFEXwDwmwVZ+cMk9T9pt9u4h6fU0U1UPdYT9aT+b9qvjW/6GKQNQEZ1erqlKFGnfg3JWUtq2joWGB+PesbF7xOuJWWXxLDLRWOmpnd97609G1pfB6UvXMcA74EHHqhQUKVdAEoYqLKB3rbVb6er9OIGlhQs3VEgDdTZghS7o26OQRo9x6BbqgEGgztJ7VNQDwEHgRECnrAMgFsB3XXooFxAgSVll4S1S9mbL8v9/7grwHcCYEd6T4WdkURfAPDLZXlFA9O27oM0B/Dr9zps3hsznY5vxrbU60m2gS8CCQzfvBVgBMQ9DCQE5PVzDR7SzV+6ZpqKPgGnkYVr01kGqWadskvVs8uZ05bn3jZkaPqINx8vyHnkAih5oFF0398QSh9oBOUblhmAN3z48AoFVVVvx0sNB6psoLdt9dt5+l8ARSmdS1Ou6ibsp9cZKASpd3JDj5UyRgpvTmlZfR1BjV8CkRCAAuEg4gyYn/WfG85Dyi6JbJeyzm8wHQCuBRDdkLm/q8LOSKIvAPjF+oJDfV1zAPB+Z0uGXHMlqXWslCeBrZlC1+nb6M0avx+q9aHBMD7ZywYqNIWPyWDeeYXJchSAbJE+/c2eE0Jq1im7VC27NJgwd+9Lfd/fs/Cl26HkwcbCbuLvxlA2vLsBeqoH/uSTT64wUFXcALx69+5d6UAvbfWbWf//268ikpy6MQutV+RGa43cyA24VKrNSmlcnUJGinAiqKBUsY7ySnU9Gb/vq9LhToCAHGgDFZKqNsmDKbskql3K3kszIv1yVg7QswG6ABQVdVTYGUn0BQA/23Go+D1a66eTADEv4LQ5pE5L6rY6OqM3f0qmc43yPdki2YuHw5g1eDNVbKTzHREoFgmiqWdKIlSOwylxzBBI2aVy7fLHWWtLW44ct6tP13Z5W1q3NADei/YfbAzFDzQ2X9NZgPa3sbT3E088UWHAqob56HX48GGvm6CywV7a6jez9P81F7pBUUizFgtkOQ8IUE+9VROe1ozRzZopvKFzBufDkrPSjV+SpkXDYTBIcelg/P2EfZ6yS+LZpc7p4QAgmwCQHg7Uq6vqte2gsDOSDCunpCQtzeEA0KxA9XnreTrWlZ4luus4xSuRuujNHYO0GgTjBm4S+QuRPn2MHQqcBWAOABlTq88t6Q6k7PLT2qX6tG+yHx74yZ4Jr7eCooeah5H9Q01RlI//8l3qOwLlm8zpd6rdryLJgEqzX3UIVDTBsKK2ui7a4li+bCmP3OhjDJxGVEfY8vrmS2/gYn89rcXzdD7T6afCM8a5hCgQX7MaHuQAKLyN1HTKLoltl4bVmd4/3/57vXsUKAcgkiwLANp23ppRjiP+ruIwoOiutyB0AFy1dFvqXN/QNXjq7arR44iQAjYFclvrGQUQDTg6csQMcfP7Q8U5nIHgDoClxSxll2NilxZjp+/r2POdnOXP3xpE9jS1XxxE/5IDQN7zHYCyMYrgay412Keygfmn2nSIkZf+f68zi55YxEVV9AjQGkp8ONImN3Rb650BCK4UcRBJ+uek32OrGUtTAmnLGc0O0POl7JKQdik5v14U5I2pf7IDUP5Rz0yFmZFkWQDwSLdt+wriGQikdpPFG60gLaV9Xan34DkCT/vxiAfA2vUEIRgEHHj8KwUc/P302mO1A9JjUnY5dnY5fcaqw7d8PjJjSKfWsOPJy42Uvgj+XppfBnv1XnHgIITg733msQsBdmxkIKjU9iobnI/1Vr+RrvL130LxX/8S3rzFdLgPvBgwJQCQwFQCWxtIx/s+TS3b1OIw+NuuzyIcpLZ2NFJ2SWy7lF7WlKf7jZkAaA/orQaHPBJJlgUAt72fvn8/LwFwTQC1L1q6WWTeSzd0F6DHuulLIEHT8Vx0Bkn76pq947tYfRqNoZW+mzklhIWeskvF2qXupIU5z378Yc701+4La/WWFD7b+tjgMzgTQJwEvwtAH1PW/zUGhGqUb2UD9LHedFyxF/0//xiPvlw3WA0CroiM3Ny5RKvAvJe+z1VjjgUK0m/Af2lfupGGRmz3lF0S3i6l111sVwCkg4AG99usMDOSLAsAruyzM3MbZf9L4K/21cu2mCxvUq8NQNei1OYCZUnP3XWOwAEgg3z0tUnkQLqD7gAh/WxPSUc3JbCl7PLj7XLZqImZPbq1L1nb5iYTuEUHoAmP9vVxxrFmBqCUOAqlDzT0nABMDixfYargqdWqVatKB+ljtdVvY9H/tInejVUmwdHt11/pjduVeqXAgdrxNMvb0H1HwGyd9OYCH4lI5jqH/5vpwBp9bSm7JIddSv/Z0kH8Iw7AsMFrFGZGkmWpYWCf7MpchzsBbMOA1N9bVm61TMkL0+m2lLoUudscAKmmr5n4uDsA1/P1cbp333AKCDBhxUDc+49JgExOGInQYLEhw1lI2eWI7HLWtGVFdw8amDP8rSdh/2MXO8Db3sIXArdZ048CfRMoadU0un1HQhP+Aofh/gaeA2A4BZ3uZ4Co5H4rsi2wqmz1m9Rvo2vP808dYgI6RrRFlfGw3ComdVFmdwgChqiOYxpc8Bin4qX0rqQoJzkAQk2/VOoOkJjl+rem7JIUdim951Y54idTAL32wK9GLFGYGUmWBQC1P9+TvTSeaYDq791r0mPWcCVJXSmapq1f8aTppSxCrJQydgCYGp0lTS0pydHPGs6BMGwmZRfZLo3Gzcl59YMuh+e2u1Mm5OFIHj9XIE3BW0r929L/YnZAyBr431U2ZQgDxc8++6zSAbuit/pNdKnhREOGDIFZr7XbUljvTHZDZ9K4RlscTsdKCnv0s+ENXRzCEyNCF48JvtvCSLelo6UsQqyUcsouCW2X0kfvsZD+eEmgfNLYmQozI8mylOT5uIzcGS4ZYFwOePy7neYNXdBvN1L8globjqZplK8jfN0Djkl8FFwlideT43AKcNqfOh6mxoBQQvDT2TH5Cym7GPa4ftjo3D5d2sLGZ68zgVbX3v3HpRSQ9ev4WKOvPxrhF+tMgD5WcgyUA4GdCHYd5Pg2VwHsV5wfSAgBn6PZ6rfQpSYFjho1ynMA1B428JOc72+/MYendFEalwIsiqyllLAXybl6xf0d1HvxdyNwFke8UrY5/m7NPkfCQCxtzMBLAjaHU5CyS0LZpey5x0LVPyPtr5+HGgEwb9YYhZmRZFlqqtHMrINf4UmA0kAg/d6L3+92RtonCzK6UsSNgZ0T+zjwYnCWtlTbp+/bavk4o8CuB82N5w4CFgZyZyCON7vUmLyk8PFPPioa88YjkPfw+fZI2+vBbwilXho+morXNXkK2KWWyF4U9onR98+cDFwCQN9R9llnkFZaWlqlg/eP3eo3SOvrr78OwH/w4MHB40lpb6VnN6lpr83iyJlE1EEqlrK4/WOM91yRti/TW4rlYi0a/kaqWCoBUDB39P1zJ4MPuknZJTHtUqYGAQXSv1z7H3cGwPKvP0uKSYB6AcCvV+QVDDSBPwr2WA9A77d+2GutrQcgo4FNE798Zj0FIly7P9miEhcAI9L2pyl6sbSAWv+k14wOAgJkmIhotP75x0V1A9ygezza5aKvph3s9H5HWPLSbXbQ9UE9iOgRCS8k4/EMgPEZIt4jRfghq5+8px0Kck1h1qAJe61sihr/zdfLL79c6SB+tFtdu7TWrVsngn+4B5esvv+O/cYNHNVbjRs2JtyhNGxwnKqzO6I5OUUcks0C0pmQATA+E0SHtvQ0kowVUtdSacFocZNeS9klYexS1vUt5ACgnn9WDugMZZs39lGYGUmWpTSN0wuL3+eiP2E2gJYETp9j9tVT1j6OMqWefW/7oHOqDzSa2Kc3FuDBka8U1f73h50AACAASURBVBoAh4ER6QKc6Ojlx2AnkRTNkoIZhUvtbceLXf44Y1Xp7UOGFn36znOw9amrGOBikMcROWPtG9G30LP/QMjcL27l9+9rYp+/9Tn18SKfQHIYUHbB0AUIrslvDZxr6vjr9fjjj1c6mB/pVtcsrU2bNjmA33QKxr7XbVfGxY3tN3VXhCbK6wptXFTsBd/kBaDQx6qtSWHFfro/IPb5GwvNGNciRfsGuITZBVMXwL8my+9P2aWK2qXuGT7Y60jfT/d7f9H234ecnLSkmAOAV0kZvKnlgF1bOwB1Fmxgwjw2wBRFfEThH6zyF/vc8WxJnc8m5ENT2LYaf2yCY3Lbpd7E+UUv9H0fJrV/EA55zHqLsh5Jx3NhHgtxTxDxMYBZOwKI+R/XuePYwXmY0xLd5d9MF4HzP//5T6WDerxbXau0lPxvLNCX9tKnH9lrpGhJqtZas41BzGLCPBZgYG19VLAHAb3YBuhKI8fYogod/V0pu1Rtu7Soaxf+oW2AvboWJ5UMsF5q5kn3bfvzpDKANBeg+dLNJqCQWrZur8PkPSkyNVniYfRLAdf5eQGsabQtzQXAJEQKtjZwpMcEQIp63JPRLleOGFvUrUcHWPn8LRZwNKNuDaSlUiZAE/1wSt7bDUzynoWo55UH/O8w+vmpA2Aj+tkIfygLwTIXuqTwUDMo/3axCKBvvfUW/OpXv6p0gLdtdW3qGqW1e/duGDp06BGDv96jen+wb8fVF3GwtYEjOSYYweu3itGe7Shxi9T5/+8Ek7xnIeppljjOCjBgcXzeeM0SVUr69wYJMWWXKmuX0iuaC/r/ugRA2gI/el/JAD8RSbYFAP/os+PADh71y2WAq5b9IEbIcrQpRckm6AaP/RGvNlKbW6UvPA8VnLEBIQU6XM+mEb/tmnFq3fYbE80uZ05fXvLgwE/Khr79DOx+4u9EV9/eny8J8vAyQIzo3NYGKHyHcgBYut841gL29FoNDoDQXojLBc9cAeU/KC0QvpYuXQo33HBDpYM93eqa1LVJa//+/TBixAgR8OMBf3zM/HZtdhfVOd2s29IIDgGpJMhjVXOzRedSlGf5jlIp3Y+PtYE9u1YiOGNzEAjQpexS9exSesvVdtU/Ig1cPujjLQorI8m2AOCCQTuz1rrGAON2wNtWbWOpaQqadqJcGNmyVLoX9aL2P0cqXgIwF7DFipBPshHf0Phf/JymxmkWIdHs0njszMOvfNgVZr5yDwdiBZhkqI5+rgGYDd4hIMpT9sSZMMoJHPBNsZ8Q4IOav8vRsAG7C/AdmYMF73bZ/n1mKdhWr169oFq1apUO/Ooa1LXYVlZWFnz11VcxQf5I9rD+/XI233xVOSV4GeNcpcE75AbOUvYUHCyEMGOIDK03+2n7YFiQDThswO4E/BiZA+1IpOxSpexSev9tDuU/XBLoDOXDP1upsDKSbAsAaozOyJ2HQb+rpQtA7UfWbY+S0nyymu7b17376m81GsWKz2XCXABOYr99CJASgEuAhyP+QJcAj6BFW8oIYOY7ViFkW5P2EsQuNw4bWdKz68uwrs31Qf+9ioRpyj7svzfr8mEUTdT2yNakPY/A1wr17fvn8P4iIp+YUSApfvYeVfgTHA/JsREdARTxU7usbn3n1ob9c+DSIbkwav1hK7hu2LAB7r777koDf/Xd6hpsSyn/4cg/3q0jfiUe5Dpuxpuv78ltXMO4oRsMb6y2R7Ym7XkEPk3aQ+fw/tasxmbDs1nxQtoYAw/tEmCOgwBUoiOAIlvdZ45H0BpbiHxTdqk8u5S2ftgyCIjuzlA+4SulD14jkmwLAE6ZcSBvjK0NsCvZbb/fDdVmrwuBELHVNQh5LHZrlEyBTmaz246PNT2Q1uGNCF+o8WvgN6+Xs+w1GOvfGYA9elyV7VJ96tLix/r3hZFvPgZZj11EgFDoow+AP3xPYtkHYKwdAB/sA4a+evxQ6CAYLH7tJLSyZw+oA2Bl+duOj3Veyk+w2GXn49fsav7xflAOQGN/vz63EPYVlFuBdvHixfDqq69C3bp1jznoq+9Q36W+07YKCwth0aJFRwz8sQBf/MzAgcXf3nXLIRqRBTdifUNHN+7gcc1qwfsGi1/f9PVjV6SuwYRGhK7I30IitKWWA14BYaKzrACJXqXug5Rdfnq7lL3+kuwAsExAZ4D5s0crrIwk21J9jWvzD/XnYkDy47QtGUE6Wuo514DEat8CSc6WlqY1bP15/b3Ba6iXXjyP/k7/OJrG1wCLQTpoycNpf4H8hyNv/Lwq2eXC0VNK3uz1Dixo9x+xNh/WyWka3wc+DNI++OO0Py4N4KhcdBJIrz6L7ClZUCIP2tL1tLavW/v09wYOjFsO2GaX3Ecuyrnxw/Ue6DfqnwNNBoROwC0j82DmVkUQdq/Zs2fDU089Bb///e8rDPTVudQ51bljrfT0dBg3bpxY34+n3h/PcdhRUMeqPb5LWsb+ixowcRdDs1266QeRtaAApyN0A4wlMphbxhcz+b3WPhLZGz3jwnn0dwbH0XS1/k0YjEj7YcoulWeXsh5pAcCXi/K/ITkQvlvbP6k0APQCgJ9nHS7p3Flg/HM54Oj7Ned/x4BN965LDHVp01kAto1T84yBL23GZDfT+BrUVbReLWZt3v193BFYW6l2OXXWmvJ/DxkKH6e9CJueaSkDKumxDyNdH9AfUlF7GM3bo3ETcKU6fOAssHR+NOo3uAWxWvXoLABnrT/kKzivMw67qGt8oPs8aDpAAX+2B/rKAVCOAN7vLS2CkjKIa6nae+vWreHmm2+GBg0awB/+8IeYYK+OUceqz6jPqnPEs8rKymD58uVHzfKngC6BvgZ+V6ZgxSP3HmStcwRcg5u/FJnrnn6JuS9uMgvAtnEKmoKNcF7KZA9AC5UPvOtUaWcVmTpq0CzKTdnlp7NLoxrCDADbWODOijSjZEF/HknGBQBtu23bl2/r/cevqTLA+Us3GYAq1akD2VtpHoD/2glC+t0GfDiiNj6DJvPZImY8njYAbBThawdAAlVbHR2/rp0Ig0D4E9ml3oR5pa0/7gXjOjwM+Z7srj/2VtLFJyCtW/VwBB0Q/LADIICqk9nPCH74s7xXP3odUTlgTxHQBtLqGMlpkBwBI9PQ5Kjt8vI7XxY26qeAPwr+6q92AHQ5oJH/98EJ+XFlA6SVnZ0NK1eu9IC9R48e3laP1WvqvaNZKuqfOnXqUYN+LKeBnitWqWB0z/cyd155vj0dr8ESA7LQ1+2BsC/vGmjESyCtjpFAQHQEUOSIPmNMoLNkEvB42sApIDVqm7PhZLCn7ALHyi7RFkAd/fvA/14anweg9gfdChVGRpJ1AcBtH+3MTA/Jf7wcgEmB1y7fwlLgOIqmZDQTFM1aNQVKTLYLQTVM4XvHkIie1sGDc/lAHw4Y4teCv9+o5aPIPbgW7Dgg54ED/rG1S8uRYyHt/bdg6Qv/MqNXEWhRHVxH5picJ7T3sTo7quUbkbuu85MSQug8UOY+Oi8VEpLKAjh7QOvy1MlAvIIw9f/j7NL7jQ/2a3D3gN5zBMKoXzkCTfpnR7MDnoMQff++cQdh2LrDkHPIzg84Vqu0NA/25YyFhUsH5OnoXAPzjwV/G8DbHAF6vL6WhW2eyCmqfRojcjHmPgZKHEVTkh6Ovm11eQoaqE4cpJB1VC8BCh0ti8fN6mhTuhb8OqpZGxEqIa+l7HLKMbdL6e3Xyax/SgRUzwf0VlPBbosk6wKAFkP3ZC+XIn4T/KNOwT1r0rlULaqlmz3nPvAKUboBeKQ2T1n3GEwlcPScBNQTj0l3ND1vAnYI8urzFNjxRENaFghJfSZfoKLtcuaMleX3DhoEg9Kegx1PXUlIdBhMOThGU9pEbS8g3UlKekTcx2PoI56A/73G5D5SFtDnZ3wBLN+riYLqddSLHwgJial9qTUR7Qq0y5i2L+/SQB84AMgJUODfsJ+ZFfCOGZDrZQbUbvlFHrz/dRFsdLQNVtQqPLwFdh0YAGu23gUrNrWEpd/9a6eUpo8VqdtS/bEyCLhDAB9jcwZGfPxR7pYbr4hGyxiIcf2Xkr30TR/14ofCMA6WviQ7S8liGDQEp8G7ThyBYnKZpDCIywnaScA8Af+zxoQ6kv5O2eWkY2aXMm8MsNT2R4YB9ewC5cMGK/GPFpFkXQBw1qR9B6fQnn+jHLAlI3ivzYZdBrAGwOmDXACawjx4DX5GCl2Qp6WtbRgYqcIePhfOFNDXpXS7dixwz39AGCQsfPo7vGtDBENKJvwxdmk6blb5S316wNTX7jfIbKy1jbavuQbfSOl7a03cj/yxo0A7A2ylAO94VFtnZEJ0HgX+mKRn4xpgboFQAqhIuyxp02qnBvFwR4E9JAH62YB+2UZngHYa9LF63z8+33MGZm8rhuyiH58ZKCnNhZz8RbDzQH/4fkcbD/SXb2rp/73a21+Nf6ckFpjj/WOyAxTk4z3frFdfzM5rWN0g0jHSHGbSezdzRNKz1dRxrVgoAbCWP9bW5xgIJKXvbWUIHfljR4F2BthKAer4lF3gWNil7OVnLQ4ALwHApLEzFUZGknUBwO+/yS0cjDMANkdA7U5eJ0AIdnbCmtlOh6NaCUxptC7W0pHELq/th4/15L0A8BHoYrIdBnJW6/dfow6I/Fv5bzlSu9z4xSjo0a09rHr+H0JUTnrvSVQb1K11NC0CnVa+C+vsBuiyz/lAzgCZCOVYHQHuGMjpfpQ9oON9jRR+42Nuly1P3ry7cf8sL7rHYN6gXwjqCujx+8Fx/mvaaZAcAb3vHHMQ3l1SBHO27czJzJsJuQXLoODQRjhckgFl5Ye8rR6r13ILvgF1TEb2aNix/yNYv/1JA/Bte+HKO9Nj1fM1UMeK7I/2eTzOwNCBnx7ecPuN4o1eTPfjaFCop9NUvXEuaeocTg0H9XwtMys4AD5nAPMPDGcEkxAxYNHrN5yOGHr4KbtARdqlrHsne9qfZABgyYJhCiMjyboA4L8yD5d0kdT/bI5ArfnrRXZ8PJPkGKgi7XtaBpCIdRJ7np7f1ooX72bnJZoCtlo97jqIZZfqU78uf/jTfvBFx6ch4/FLhKhWiG5pq14sJr1EjhNb8eLc5Lysd95SqzfY9VLHgPjb5O89VnbJfuTirJYfbhQBO9bGoO/tAbmGA4CdB/y5DtP7716+8Wojcldbg3gskMfHB+fx/6o9asx7Pyqqr6jsQDzlhymd3sw6cH5982ZNo2sc1dN2O1oC0A6BFPXTz8bqMGDnt7ScxbvJeZmmgIXDkLLLST/eLs1qi0x/VgbwHQFI39ZTYWQkmRcAvNrDHwoUTybgIr8TQIOjjRVv670PQdSs2xtOAHocjsS1p/UxALtb6Xi7nsTadzotEgmRtgIKdrl4zDRo/2FXmP3K3XbQoz3sBjGP9OwHdW8BLEmK3JDNtaXaxShbqMXbnAJWJuBcA97TT8oElWCX4geblNzTY5EM8CTap+l+W6RPMwH4c/pxv0WvFQWAvjkK6AbIb74mpjPgOQEbiePgOwHzlz9oZAEoH+DHAH9FOgZ4r77/Dqbjb2V/23rvddqXgKkhGyvxASSQJqUDQ07YEmmKkSk9t8spoGUCgWuQssvJR2WXkmsvMiJ8Nw/AmwL4aiTZFwDc2m/Hgc1yBsCcDaD2rSu3sgiYgiEm1Jl1dvoZrqGP2fvUAaAp/zDSN+v4NvIeIwVa+vglB0EDv/4+mxOBH/9z6DD4sGs72NDmBs6UR3V2Cr6Shr7J3idAZ0nnG/34lihY6tk3Nf8dKX0M/Hi0ruhESI+bVLpdnus8jkfxmPmPnABc/5ccBgz0GvgbsnNE9/hVrZwRvgH+yhnYfI3dEUCRf5hVaAkjRvWOywGg5YB4yIBHk/KP5/hx3d/N2XVZcxM4abROyF9sqIwE+vo1zN6nDoAlnW/0nVuyA1JvulH/d6WuMfDjkcOSE5GyCxytXUrv/acCdsEBIGqAigDY/0PVAXBrJNkXADT6MiN3gTwDgDsAj63bIbbR2YbgYDY/A2RpCp9m1Avz6mn63dAHcIz1pQ6A1IHA0/qmpK8tk4A/X3fiAniyfx/48s3HIPuRv/lMegH8KGudpswF8Ax09BFjnZP7+HNRdAcdy5wElpY3r987znL9MTsL9HtVxC7d3+pXQCN2yvrXZD/sAOBoHjsMXnug7gqwZBL055duvMEAbh31s9eQA2ADf8kxUK/NWvR40BFQUTseJ4Eeb3M+XPyDr598qNhjdKsbuQJs6SZP2fw0NSyARKAXTzXmpfQ7ziBIpQJ0LHMSaPqZXL93nOX6Y3YW6PdSdoEjsUvZ84+HDoCk/Y8cg/LhQ9QQoEaRZF8A8Md5mQdHGWOAt5hzAfDusHkvA9xThXG5LIIW5tu7Uu9S2UCuv7v5A6EWgBTlh6RDs5RgfjYg9/mcBaztf9mo8fB2z3dgUds7GOB6vfN0XC4BRyZOI6XZXel5AdTjqpPrPn4hyjfIdaRND382jMb9Y7C2vxThVyG7fPHqW5kajDGg/3/23gNajupKF2bst2bNm/DWM+OZWfPPPzMeM37jf+xnkrCNA8E2QTLYmAy2ySKDyDkjQBICJAHKQggUUJaucs45B5RRAAEiKSCBwu2++1+nu07V3vvsfaqqu+/te3Wr1jpL93ZXVdc9a6m/vb/97W+3CJT+YpYfvBZm9uw13CWABYNFr4DoPr/ou2uPRO8v20wDAKcsUAgGhNdYWSD8eUvL3MB3epecjfMSQprMX2oJTMsUDOvedf+2884s9s5LNDoCR8e0R6LZfZm1AOqJ9AO2X91XEkACNT7shvS523N4UMCZDxsQZPsCafYl3+6pCOBF579owZRxEww2HnO0HwDwVx98faSzPBEQBQUoCPjenPUhQHJAJKCNPPuluj1v3cMrBF2k+Odz7SWaX+okkOr0MisRBRTOQJ9g/fO0VXDlW29D7/b3w1Zru8uBKKCgKSBiEPJY35J6ulS/Lt4TK9udufYCzS8r5iWqX1LeU38AYvaDKHei2m/E+zLr/tt2heCNAJzX6XnmrukELPjjWQH2d8scYH3AeYPW7pTq/SYA0LN8eTmgz96fMue+T9ICb6meANI5khdB0iFD9rzZD97z9YHj/8MFZ0m0J9XTOXWP6uxY8U+CCK0XXQogJKpfEigyfwBSn0alCNLNIAUu9jzuhpftC6j7crLPAhhpAIIAAVaveMNg4zHN4QCAp17Z/ulX2ACIugPSyYC/XLwZBQCBvz6eiKd0AZjfw/OYcY6TxTNRoFQCwOCOjXfwNcSshwQpQvufUFYw9zxp7Ey4p0cXGPfUTfDVjT8tOuNxAGSgWABMMw0PTcQTBW4WBIPzuHEOv85x3pOobgzu2HgHXUNq6AiMxbo/y6axMVA0R6BFk9iXDW0u/6QA0MjEx5r6YEAP6/1CMCCJ/bgx0MnIKdD8a+9n3r9x9NT3CaVvqf8trYIlBwI0aCiehzUC0nVLNp7/ZVqaPy1dn/aekkkQdy+0r9kSwuC+bxzaeNn5ciaOwTGYEMcNYvh1jsOcVALA4M4nzXHqnwUEYt2fGwohkVo4R8A6BvLAgAULhfubvxVNxMv25R/VfclZASCn/F99EekCij8bdgC++uq5Y5rLAQBX9N65ewum/H0BwGUrtxN7XA7onEbH7njYg1+i+t1Je/42QBw0YMc9bvrDs3x7/bEKo9By8Eh4sdMzsOT+i8WM17HFDebeE3tcBlycRifXogxZorTdmjmrbSsZMXfcCzNjsc8f3ctk0QqjwIOAprIvn9706z1nd9sWgn6xxz9q28OmPzzLt2BvrhHb/8QgADMDUQDw9LS+nxbo/sJCZQAG6EQPgEDeXucLFPC146c+kioIKGVKYJJrfEyAjxnAAcPUZx4/8PlP/tvVAdjZ8ChDlqh+pzbMa/4KU8Cd5RzTH57lh/c4VmUUeBCA/x7HLhj9ffg9IoaU9BHZvoDZl9w1lxCQj1bwGg4KenT5zGDiMc3lAICTR3yybzZ2/cPBALcKvnP9zhDcbUZvJuyFwj3exodd9wQBodQGaF8vXBuca4bl+LJ27AGAwZ87AeKg4tjgvv82eRlc0/cNeOv5u2Dnbb+iA3IwCCKRGgdSQpPbzNXa3wrtajY75yN28ec47W729QBYC+cWhuV4snbkAUCeGYFjRJe3QNec4IBoU92Xr2/4yZErOy0hwG3A3Br9YPDnToC4BGDOPz68BgUCaHCQqf1T90B73+Jn9FzwVC0B6QKw24y+VVgKIOK+APhtkOAI/2wZgWgIiq8vXv+Hz9MAfCkeANo1WpAQZ0vMWQF+/uqrL4tAUPKOR4IwpyMAZ972evO+GRzjy9qRBwABf+4ESIKKY4v3ZYEFGRyEPwPR1zzAIOUDy3RY1kBob8z25R/Dfck/1EYIAISWQMMAvPOmsQA++ZjmcgDAPy3cd2Ag1wBgBgDrAdpt/cSZqqfS+KytT1L9W5DHA3kwqyC1GfrEhFxnwAV+9vUfj5oCD3btCJMfu9qlvolbHqt9Y6tcRl/z9jSNrnba1xh9b5XtIaBZmh1nz6yWr9XvnWyYBQiOIM9pmWv6+9LmxQleIx8O/ly9jxkA3toXvs8EgRb8qThwD4xeeZPYtqfR+CHg+1oBrYgwWCagwAFDzYS2+bSlgDQMQdL2wKRjhLVr8BrXod2Bj848xRHT8Qw7zJ7RQB6SPQttY14xoWMhzAR+nAHgrX3B+6EjINcEYAth9ky8nVErbzjtjs15X773j5DvFNT3wyBAAv+gBXDy2IkGE49pLgcA/OXu2nx7SfDXQQkCTpi/MQJmyWCHKe95/V5S7oftf3i4DhL3+YA/FA0iil8654JBQ6HzS0/Amnt/5wKLo0ZnIMTe1/vlA9ATqGlHee/Uqd3PDkEPA2SgpJcpcP4sqE9fVNejz2NGPUfDvrRt+7bas2/BXKL+cZcAft8COQZ8vrgLINYVzN9wgd7zLwF7XGeAGgxEgcOC1Zd/kjazL9Xwp6Gus+cvvekat34vKPdD0MMAGVDnYmmAlwkCNT+fOeCcE5znAC7vXuDAyt5XfQQs6AmlDKcjIdsXyJ12otD6x+yAsQXwujW9DCYe05wOAHjktR2ffoYpf99qtXyb461PM+5AuGeoeOzNr9blaVkgZBSEQIJfL80EsOd9b/wCuPmNXjCk7e3w6S2nCaCFa+Ce2jj208e2uuoMe8F7HmXU4Xx6fp0K5LT/XgRMfj3/fOc5eLZ+9O1L38c7HODgjn93Mv9QBEiFgKLjnxI4WHagUGLovY+UGk7t+8k+ouLfYn8+W1bzh2UCfG70s18oGDEKJhAYUdO+oll/2nMlw6FSXQf568O7dPp6R8vT1Lo8WXgksASY/HpxJkBE5TvCQiVAIFQ/1wyQOQPIbpit8O+TZhWgjNqcF5379816X3KXtAqB3wj8ii2AxRX9HAYGeYOFxzS3AwDO7f/hnhVJA4DWBUOgqO7uttqtKanf39b9TSkAGwL5KH8sHjS/nzZiAjz5ajuY+cif9IyVU+ISTc6XBa9wyAwCPO61b39n2bDqrie1zXH6Gynt3Z57+X4h0KPfxZG6R+G+THzw3t0S5Y/V/vT3PWomz0sFUvmALwv6NgAwwUDLges+igA/An37u1MakIyBEjMBthRQ/Hnuyqs+Tgve9WH7KwUAWlAg/e57rnl33QJf//Bf3awcZ8lIae/03EvUNmYIsDWwL5OXHAMVF8HofQtuwVAiAnhsBoH9nbEER0r1QTiK9yV3142enn/qB1D3Rrf3DRYe09wOAPjPabv3j+Z2wNp6ZsuuYgCAMnrX+58HAW4fvhMAIOo/7BxAbn7c+McGAZf2Hwjd2j8EG9u0jFTwiiWsMynOnoOzVx8YsXtIABlO3hMG3nCwk/vwmdqdC+QQ0FHKW8jmSebdPPZl5V1//ML2+WvUPK7p21q9xBCcSLL4qGsgEhDKAcCJwj2uHTXtQ2n4z/ItOBjQFf2+oMApJxDhYJEJGDayU+rMO65WX27QUOrgIe1zB/fqdXjzRa1EoMPUf/gvqiM7xj9OdhuADe424BknnyzIr1WBjncYCBmvzfAR6HHA5UGA6E/QjPYl3+EZ3f2PWQHXjRw832DhMc3tAIC/2XHoSBdvABA4BNr1w3kbnPG6aqaOJv+ZMoDs8hd1CUggjwOG/zt+DtzZ63UY9fTNsM/05gfAYyljx1QGZ6sY5Dh4OQCHsk1BPe+I4iyQsfG6WqaOJ9wVP599HlPex9XfCaWPaPfmtC87b22594xu7wv1+SjrjwC8qMy3dD4H9DB7R+diUJd0A1p5wazHJvfdLQE6LwHEtfcVfQPYfVDZQBMLzlzc+pM0wOqj4Cs9MVAC9LQtifj8GY8+WLvnlO+Lyvu4+juhrpFwzVLNjgkRyVbxWGEGXhzccJYtdBU4orjQbpiOHdYydTwRsfD5/POO9n059YexmX+hDGADhAWFEcB/c0xzOwDgL4whUKcdn+2NFwMWOwRaLdtK+vHlOn1EzeN2PR+Nr6n6fzO0Bp7v3BYWPni5nCUGoEHqzVrG6gAnz6D1zJRnwiT7tvXo8DNc4CLX4Gfhz8vPlf4GJ5tu3vty4IZTD13Sebnj38/r8xSg95Ee/3jDH1ckSFgGoUPA/txj3tNif7/DCGgjf4kD4NliWUBiCDDrMHhIt1jwLSejL/U+SZT/Se5J7tOvX37tHy+idDXPLrFinWfGQiZK6s1axsqBk2fQnoydZ8Ik+7Z1evsZAqA71Dymx300/lG4L7mLWzK3P5vtu2OA6zq1A9i9u73BwmOa4wEAF7794e7V+lAgygDcGOgAePZPaf3Ixe/vGRvAgZ+XA/6fqSvgT/36wRvt7oPtd57t9oVLtWoMdDH14yiDDN4XnenwoBwKNrH1ayfLpbS9C37Y8lah9aVsOduXcC9u6zgFZeNRXV8y7+EBgGzs/gqbPQAAIABJREFUw21/I3CnToI0ALBlBS4OHLHilkQUvpr5K0FB0tKAWVPn3rG7Ulm7BMJxUweTZO/lBBUSkzDx+WcOf3L6yf5s2Tf0RwQ6f109zKzt+5JjHx4gxJ4ttq7PgRt9fiSgQyCOM2mN1j/K9iVn6v/S9D8pAOj56i6Dgcc01wMAvj/l8y/HUCOgTxz635YE2m79xDN+1639SyUCbijUYswMuK97Z5jw5A1wULF+dcxhODgLSnNMa6sZtQLgZFKeNa8JXiuCNqXcSQCi3pf78wuBAzLOCf9uboub7Uu4H089P9Dx5Odqfgv8+Pewt5/R+1wwqGX1TgkAGwGhEcLmtTnr/+Bm+Ejd7ysDxAI8MhSiOgDeEdCyduCgNyqasZcL1uWwDEkGGdm1/MaraI+80EvvmAk5mbagNEe0tppRK0BFJghi4yJLczPKnQCtdl8+t0ACSGQoFP7dR9m+5Du2ja37h6WAYQMWGww8prkeAPB3O74u6gC4E6DGCpw4fyP10GfCP27CQ9z6gvd+O3gEvPTKU7DigQtpPzeygxXp5DgQx4wArm2zTNv+TDNuBZzx5wp0OQkuHIpeo7GpW59a18/2Rd2Xrk93ybfosycAXCr+08b0au2BVrDHmQGHPUCfIWkAMEtgfv7pG58c8IE6pfdl1X+U9UddBFLQgEWA1l0QewpMmvngV2kG86QB/bS2wJUMLpLoBmo6vXT4/Za/DF30wpY3TifHgRXJfFFtm2Xa9mfyGRo4488V6HICopyiF54Nt9I5YjsO7tYX4SjZl9zpnv5/hwloD3XzZg8xGHhMcz2sDqDzjs++4EJASQdgfv79im0h0Nu+fYkVwEY9/z5xMVzXtzcMeK4NfHTrGXrd2GbgGGCxY5wFgdD+NcjCw5pxC8gJfeo5pyUtCgAi4ZqwELOg2t0yxsCyE4XnFVkB9txScJLti3dfRj/86AFal8eDfGwZAAUExq8fCQJt7b9wTZ9A8S8o/+3vOACwZkC+NkAbVLQcuP5TEfiDaX8E6FndXq7p486B+E4BHFQs2fC7/WmA3A7mkUA27vc04J52vkA591/Q5mY4+IP/l46SxU56FhyxKh7XuAvTBN0+9UjhHryGgC6k4aWFMmjVBphlxjYLLzyvxAqQLBm3y3nq6TYDb+L7kvvTH1i9n+kA0HvNvv6PgoDzBny8Z5mvBRAzA3dt+NBr6mODg1NHTYFHX+8IUx+9KlKDi/VxtMIhMLQOHgUAqI6PB8twIBUp+WB0rAPGssguBGjc3x7Q/c59Yqh/UppA52f7kn5fFt97w16c6XNxHg4CcB0/HNfbaw8Darnv/2RhWBAvK3C2ABsAFVoAR077BBv6SJm/v7XPXMvV/lQIqJYGhNfHTnrCAUbLClRa4c9BuBLUv8YoJH12c83Q7t2ObPnDOTSbZNP+nIE7HEgl5Xs4apiBMc6SeVbs9LcXaW3nPjHUP6XgmTmP7ZHnAQJeto2P6QOa2r7kH75L7QCoYzqAul6vfWiw75jmfgDAd2d/sX+Y5gMgsQD/Pmud2LJ34cAh8GrHx+BdYrsbZNmKYxypf9svfGEAjAaybluYXCJw3O2wQp49E+lt185lSvyI8ve37GX7Uvq+bLvtd/t+0eMj5LfPaHdE0Wv9+tz8RysRcNc/PhuADxDibEGxBfDN0AWQZ+SyDbA/KMDtg3yJ4M8GBi1+96I9lQDztK/Xt9lQkgCATyKc9dC9sOfk7zl1ZQ6qTrucQoU77nYhsLlOdqS3XTuXKfFDyp+L8wTgps8kO+mF12GqXRik1GT25UffQfQ/sv1VBIEwashcg33HNPcDAP5qb22+nc8IiHcDnL54SwHw/2vCAri5dzcY+vSt8PnNv3S/zBHgJrV7JUI5QfHvUOSYNWBCOT7CtnCNMzwmupYEExikeL88zlSFa5wAItuXsvdlX+tfHLzw1dUu9Y78+SXFP1X0U9bAFRDS0b7mGhxo4H/pwB/KHNhgoNu8ZylQcz8AC9wFhoA6A6qBQUJ7YG2ewOjxbUUwjhvVyzPuuFG+aYA6jsKvL++BAX3fyK+78g9+ihxnx0wox0f7Fq7hQ3XQtQQ0MQjzfnmcwQvXOEApifWCn5PaAxMBIQfsJrAvufPOIJa/lPZ39QCwbNFbBvuqjb+N4gCAe3p88MX7Vv3f3iMG7LtuEwwZPwLmPHylS5PbL29MobMvchH8mVofC+uOeAR4uJYvtvPhQTUkQKD1e/Ke1BqIDXWcZ2EiQKl8kO1L2ftyY8fpLrhbtT5S7VvqX+rjl8R8bvdANMUvLBuwlj/8ntQaaI2Ghi27zZvZ43o+twougj2t/WPgl8DfEQ7yUcGbz4X5qy7/Im12L4E8B3pppG85n+ELAOy9yxEO4tenPP0YfPrzH6lg6gAOAjoyrc4CIatTk/ekFjhsqMMze/yvRpOHYC847Wn0ObpfOFkPfdYRjwCvMe5L7rZrWO0fG/8w8V/nDkcM5lUbdxvNAQA/G/3p3pm4/c9m/y9u/QSGrVoNS+dOgS8m9If86B6QH/6a29fOs3WcMaM6eo630gnZPRcFOu/Z2r8Exuh3R0wYTI7jpQNXaMjEidjlLmmrX7YvFduXR58fLFr7Sv37nNYPs/5ebmDgBgo0kDDCwYhh4EODqOeAU37otQdmr784caufROdb8OcDhMLXNEYhZo2oeTEE0vqe5Fcq/Z+mJVGaL1DK37Ti+j9FWSnPgAVAdERz6DoinuOCOi7Cwy53MfV+p9/foddxxnwseY200gnZPRcFOu814n3Jvfiso/Lnyn/LENS93XuDwbxq426jOQDg25vf3zbSAn/XTTtgwrJFsGFGDRyp6VUE/XD1LKzah36vmtVgQRdf7qhZHUhDz3sm3HPHy6LPjru/eV/L9MWAhLX4icp+1hGQ7UvF9qXTU11lkx6pFBAsaZSvdp1V/Gv3N/fSMn0pIEEtgAfVOn3SXn8sAOQroQlQQTdgV/AMs5ddUxFjoFLaCisRYMSVGZLeX2IXxnXskPvgrJ/rQGOV7VLt2wKVltFKwItfk+r0DJx9Y4yxAJAvZzSxJ8AIZwGw53RaDxvJvuR+dYrY568xADBlwjiDedXG3UZzAMA3TDvg7CXzDn04ZQgDfAT8NcEa3RNyne4UMnWm3sc1fwve3ra/CGxJe15MACDayXJQQdSz83kEpGgA4gtUiA5BDCiyfSlnXwY/9kwt773HmTpx/BMsf9UAAE0G1Kb9YUU//zzRApgNImo5YP0XKtgjk57EIG6p/4RtfyGDoGgBho3oXBJ4ph0slOb8tAFFWj1BmvMW3X4jHPqvf6ZZqSpoo5Q8qWlz8GZA6wNkUm+XgFOi4JHwDoOyt+0PgS1pz4sJABrLvuSuv9wV/OHfkTiw0P6384NOBvOqjbuN6gCAC+rmjl5uM/ziwlk/CgJMADCwo1pvd77sHdGXS71Hgj3cDhYFAvHz7FvIrnwCrezQ0pLboPi3SOdQESHXI2T7Utq+zL731q/1Gn1UhyfAjfv0SZ2f2gNj0SA2/+EBgDMvAAkOudsgf9ZrR053AgCa3VOjHgzi2mAfXSRIV+QAiNoHmS5gxsKbvywnM69E/74vu09zzzTaBS2Yke4x/PVXc++d/+sIrCT3OUepfqworHNc9aQsWDoH0+8cyIVefQroTCQoUO9hHR4BtwkC8FAhfJ1E+Vd7X3LPPiqDvrR6vfaxwbpq422jOwDgO/mNywZT4NdW8Zzc/b8Vs2eHck8AsiQAsEsADycrZ+IxYwCkBgGFc09Q9AYSwLNntOUIEpQgxkDIbrN9Sb8vG+64+MCpvT6NAdkoAKAufDQT5wwCb+UzBkBaEGDW8WxgkFYG4O8/Ovmtr23mLnn3axP8NGqfagM8bAFvBVSCDfPz4KE9SgLSckHfpwtI22ZYSnDhCzakz5l9353w5fHfLQKdoEon6z++JdfVJSDjYM5q3U5mLGT9qj++UpN3rscBgF1CsOFk5UxsWK19qf3F8XLWr9gB140eNttgXbXxttEdAPCXkM8/nR/TqzY2CAhYgNqOt7BMWK/lWkDXhXTW3Q/NfGeCPxc0WKsgKxeQ2jJuQ0ugQXDKEDzoEISAZG5Ati8l7ctnN5158LxX14eAjjN8R9wXUPtR+14QFCAWgF+j2QEXVh9uBVzs70+iQeBliNfmvsDEfBJlT/v0Hfpe6/dnGb56XwT+hX8ZCzBl9t2HSgHOhgoW0l6Xpnxgz+WOh9r5g/r0zq+//HeK6p615yWotTt0uwOuQu897tPHmbBWK7f3YBk+B9rCfZEqP/yXZ+z4c5WOgobel9xVF0G+y4sU9J3WP1T/X7eml8G6auNtozwA4Jq6mcPWx7MAwfsD2rvgK/XMh8DM6/Q0I6SZYgAc3Itf0gbg+6F2PskkqABCreX3xLJB2LKGtAfKc4T2vxILku1Lon257uXZIaDyOj3JutGkvtAQCPXxS4ED9/jHXgC8rx+r+09R3pPKBpZdGLKsTZipS+r+iLr32f7iDgBuHayAv8AsFAICxArYa5dubFU7YGBfFSDj2vmSAm4le/lLvZd2TVoR47QnH4XPf3G8279u6+8GmIy3viZyU+rjpMYu1dQtQEtKeHQv0Yef1+lZdk2YBRtocC9+SRuA74fa+RpyX/JPPYQsfrUJgEEHQNdX9hiMqzbONtrDTEaqWztvdAHcR3UvrLrRZikBwOgeUHtfqyiDJxl6C3WYDx/0E/r6o98tUIdlAD4gh18fMAVJPAFE2p4LDa0nAQ5aCGChGQOBgI2KE5HIMduXRPvyULuRjkEPr+cX3uvt/m6BOgJy1K+PWvbs7yFTkMATgIoHaTthGICE9yl2Icx491IG5EUwjysB+MoAXDxIzgsGAfHfC+cEEwO5TsC8P2Haw2JGXKkMP41DYKn34oEKn2kgAb4NYHyGR759WXXdlXotXqLtuaAO0/MC+IWUur2XFdEJdXCSoWNwZUDOB/2Evv7odwvUYRmADw7i1wfXJPEEqPi+/PxHRYCXsn9eBujSAeqGD1zUrKf/xR3GGQm+/rIdBn9fCaCgA3j5dqGOz37HGTkCbOLnH3oD6JQ71wLQzxPKCdwvwGEk6Huix39QOohc7E4oDhoSfAGiQEbTN2T7ou3LS8/2Egx2IgDHr9tWP0kfQDJ/RwtAGQJeTuB+Ab7JgM4IYXTOj9/4/HDk7ndWAfylzJ0AtqeOT8b7YkrfZvb2ddTqp+kIeGfA4nW/+youEy7HL6DSjIAE0BjI8b94zkHaQEZySORrQvvnYOevf+JmsRzYsCpfyKQjo55jC7Xy4kAdt/89BGytjs9/xxk5Amzq589G/AqZOdcCkM+TygncL6Ce9iV39cUBuKMSgCP8C97r0gFgxdI3M/e/+CDgprrpQzYnKgGYNajYDeBM7LMgbLL4gHJ3VP+Smp8L7LBJjCTak6h+VgJwtAOxPf2unsC5VjiHlgBktXu2L+6+vP14u9B4x2TxEeXOl9t7j10BqciP9vdjxoDT+bwEwLUD2sAgSQdg/j13wMa9Wv2fi/lcNz93ZkAR6E0Wb8b8Cqp/QSzojhOODIR4YDBu8pMi0Pky68aySvUiSNrFkGRfFt16XVhHV+vxSr1bpvPlVjxSApAybPu7eRaTxQeUu6P6l9T8XGAXZN1Ofz9mAITX8OuOdqDC+5J/9hGU7Qv+/3h1fflLg20Nk0o34QMAflC3eu5YDvq2DOCWA3pA7sHzQxqcg2qk4qf+7sQYxqm3U5C2GXhB1CdQyeRfyySwsoMI4AzMqUgtov5paYEGBPZvyvnEgdm+qPsy+f67ammdP3Lfw+p8bPfL6+0uSBeV/UbUxw16+L+WSXDKDoKOwAF/0hYYvX/18Bl7dRrf9vTH1fF57R/7CMiGQJKlsGQhbD4bf96CtZd8WUmATUv7xwFukvvGvVbuZ8fty6jOL8O28850s10M4DzLRhm2ZvBjs2MurMMrtMvFbAECYKwLIJ/D6+0MpG0GXvhsofRA/rVMAtcPSABeiX05/SRxyp+qARg2YLHBtmrja6M/AOB/woG97Z2sv1ASCAIAUyLAAUDnu8RhOaHtL6qbS17wJACQggAH+P3tZKSLQGMaPPf0Bg2CiI2UCAQhYbYv8r6sbnPlwZN77abAHYzrLSw0ZY9T7eE5QhDga9vj2T3vIvC5/CVtBXx40tuHfeK+yMtfmuxHhX/h0J9NVE8gzQ6gAYBcdtDWqHHPlQ2K5ay4jDwuqMBKfu36UkoPacWDc+69Aw786D/Stbxp2TDKwqMBQK5gjrffhba/qG4uzQ6gAYBcdtD+Bqn9kHQRaExDhfYl1/rKgrCPDgCiC78X0P//s9r42iQOALihbsaQTRL9LzEAZjYAF9GZRTJ2D6hL7X1kIJAi7OPn+YGcgnr0bIGegBvV4GeSAhYh2BFLCtm+iPvy8c1nHWr5+iZav0cZuw/UpfY+zBDowj4+OEgHcqflL3i2MIhgn4GfqdPsdgIwC6Cu+P+7rIFM8TvlA6mdkPX+awHA3BV/KskYiJcISunxL3Wl6UJIG3CU88xDevWs23jpeUTY5hj4EECTgNkFdZE6F1rmSMbuAXWpvY8MBNJAmlsS+4CcgXr4bGXuS77g/S8FAO7kv7runYz6/4Zq42qTOQDgv8JugESrJ+SevEwW8CHwpf38FMAdpb9DufsG9kjBhJvJOwEJpu/R9QT8nbZFfxnBZRYkpqF578vhG36cv+qV+aKAj4Cv4OqH1fbEERAHAJqSn50j0fgS6DuiQPR6OIMAnTdw6d2i+C5pNh63xGl/Ya2fKf0Vy2CiMwjOGVHTMRHwJRkFXOkxvmmAPg7ckwoD03Yp8H2Z/tiD8MWP/5sAcgh6UpYrtbv5auWCCE8CX9LPzwDcUfrz+/oG9kjBhJDJOwFJGNR8u6R9ybX6pYf2dzsA6kYOnm8wrdq42rRMgQ4fbJsf3SMfB/6WEcj1eET+0leEdi7Y6ctaAkdtewpFz/UHGLSELD4sSXgyetzqp5YReGcB1wRk+0L25d52NaqgThXasSBAEuGF97CWwIHyX6vrO5+FwFwsOwQlCdk10OoV9sG0tVeKwjxVqMc0AWJ2r72eMMN3BwO5789ecn2hI0ACvTiznPoC+1JLEGmYh3LKA0n2ZfVVl6gZPW71U+lyrqDnmgApSFBed4IAz7KWwKHyX6Pouf6AiAndLD4qSfx9SfuSu+tGluVH//LBP/lO7QHWv9sjM/9JHwRcnp85fK1XDBi0C9pVe/vpfqqcZ5TMXIfX0qkTn5DBCoJBriPwtQHitj8O2CKlL4kV2b2Kz39C2DJIAoxsX6DdM2+AsdfFQKoBsxsA0D58K/YL7yXW9+XOAcm8h3cTuAJA1PaHXAPxe6e88cURmu3LtfpIDGj+PStsGcS6AK2E4AoGo4wei/3Ce8UFBuh5hw7vImbwpfrtJwHPJMBcqdo9fq9UQ6FS9mXS88/Ax2e08FP6kigvBHx0nbHVDVrjCJBqwMwzbWauwzUGxIlPyuwFwSB/bl8bIG77yzmsQMy+nPBdQvOHI34LYN8uAP3gX7OK3v+X10+qfBQfAPBvsHHZO14GAPsFjOoOuXbX66AvZcUCgBLQlAAc09axgkFBtKfU5nG3QnQvQUOgsA3kvlz06LumGe1Ln8c6EHGfr73OUu3aexZwj48BcEznxwkGHSZB+dmWF/hnmdfPGbB5n5a565k9F/fp10hsgRRY4GCClgjYMxTuFZ03ff5tR8rN2uvD9S/JPZMEH0kBvNLeB/azlt50TQRuUq08rlVOFPd5rpHYAiGwIMGEBOCYzo8TDPLl0SwcwUxEgn3JXfZbhf6XxX91E0ZPMVhWbTxtcgcAfNOMCK4b22d/khJAYfVvL4ANa/UjACZk8yxjJqN+eSeBAUWc+TPAkYV5itKfiwft/aTMXQNRDMSx9fDmtS9jHnowAMt9sap9rPTHwC5l8w6TgEb98k4CEyzgzN8tC7gBR9zQH7vs/a4aMftLqfYvZd0UiJPpBKKAwdUB0GyeMgmuHwDuFjiLdCG8M5gOCWoMwUDaz0paqpCukViHSv4dNa+8BNvPPU0GRw1MHSCO0Qk4rX7udD+azVMmgY76ZZ0EhWABZf7sOcUsXlP6/ycTD9r7KftSsP4VgT+o96PfC6N/P/n4JYNl1cbTJnkAwK/r5o9daDN8nO07hkDWGvihCxzwyklghIAnLAPgVkBMtbMV+gJIgCsBLy8R2Po/vp9Gz7Pr8O8YdIs/20mDrl+A43vQjPZlSZurjojKeibMiwKDfQ5IU0CO6vR86fX5wBuAfYbU589LBLb+j+9nhYD8/Acn9s9hkKbtfRHoFn8+K1boRzQEYXZ/tmosFIE/X3InQrhQIDJ51r0lA3tcFq4BcNJsvxzFPi8p1EdwkmZf5t11K3z1w3+lII2AFYNu4Wc7UU/oi3f6+0n/PwJpBMhRGQC3Avrr82G5gAciknDRKRHY+j++37c919B9yZ3Zws3wQ8pfEP+91XujwbBq42iTPQDgWPhwS89EjoBWDNj1ARds0MAXcVQvAjUDGJFxEAU9cm3oDohAMoaClin6E0J6XX62IJuWavkqlR45AnqtiJvBvuy4tdWR33TdGoJ3klp7BObyqF4M9gaYQ+Eeyvaj6zGQ7wuDDSlYkOh//Hnm/oZFiMoO7rO9PKsDydJ9in+p/Y9T9ZKeIKrxux4CITtgAozQOIgGA/RaNqNg89lmSNCRAQPkIUESoGpZswb0lQRW/hxJ3uc/x7Uvpn3uNPsypOvrsOmilnItX6PSkSOg13IXDQiSR/UeS4A5NA5iwQC9NvidBA8xJQupdGGCmf8olh3EZwtZBhQA3HatMuYXuQAiNgDmzx5iMKzaONqkDwC4Jz+p/4cu7a9PDKy97ZeEKrbZb84O+cFZb+DWhzsBQnGgCraUqqZe/Se6rnwCMKsZLct4i0N/WNYtUd9h5t3CD7bNaF++an1q7spOi0Pg9YGtzfZPxHS/ybID33/7fujWhwR/Vhyo1fQ5hY/Fg4X7OmOAo+t87IAkYByw5F6nli/R/mEG7lP4o2wfi/lWIN//kA2wI4IJc6BPHBQXEg+On/pQvZgAVVIfwH+WRvvi4T+V+Eyz6mNfZjx8H+w+5b/0koCl1vmQHEkfEPxsWYGcrbPj9/loYSwO1IIQRuFT8aABcqGFkQUsaqZ/HP2bC0N/MBvxo+8otH/AAoTgHzADRevfe6qNn03+AIAfwsqZEyRXQO4IWAwKekJt+9YExLx1cG7Zi4bmYJByKHScfXJVvlRrl/rimViuSHe3iJ8hwGvpCNwdR0B0z/B+zWRf2rw4nmTfvF7PxXS+Ub4nKZa99mfHuY+VFgidz1r8JA2C5BfARYQmcIj8BornTFnzJy/g84yeOwIS8A4zeHeUb9ykQPKzwDDQwONsR1uwaN0fDqbNdu3iAFmqgj+OTUgCxNyy1zfeOO1zVHpfBvR7E9b+6SJRLU+yb84WcDGdb5SvBWRu2YsnAyLwdq2D8eezbgVJgyD5BfChPsehkoQyQyB3xfmO8h8HA9wQqG7UkHkGu6qNn0eHJ8DBr57Pjwo8AUItAG0JJGLAQS8x4xkmdnNAD4GRGR7kASi8CDVNMlrZgc/Jdrla3gKdV/UutAMqdL47v+DkZrMvbdu+5aHzqU8/LglIIkAeDGCQNoODvMDtZP5upi+r/F0WwAkAmC9Biz67C/V/XbiHa/EunS/59EsiP17Tl7P5VsmyfqItoP4EYyY9lTobTwv8Ej2vmfckBey4gCAtmJe6St2XSc8+Cbt+eSKj11063/Hp54Y8XATIgwEM0mZ4kAe48SKUvSTYkxgDwgKwLoLj2FhjoRsg3/ZR1fLXBgBhS6AR/23f+mrW+1+5IOC8utkjVyZ3BuwBtU9chkCCDtfRa8bClECn5Yxlwc79qK9A+AzYRY99PnHiw5k2Azqt9Y4ApY86t/c4yvel5xMvi7V0td0vAFHbSseH62gtezj7lgIAyddfUvnzLgDLNOCOAvL5yKEQMxC/eXvzAZLFa613gqWv2NKHBgO5QYA/AJCMfnxaBOl+81dd9rUEoEnq/KUM9akEuFZr1ce+LL/xKqWWrlDnYYYdgCcbrqNqDKQpgbwVj7MDksqfMxfcXZB9/hH8L2YgeABQcP7Thv5QJqAQALzVa7PBrErhX7M/AODb+W1r30wTAOTfeIpmvpqLHgY5Qi1TUJOMg8I6OlG+CyCIP98B8Ji2N36OCtIJ3+eU+1G2LyMffkTJvv19926bXSQSVM8nOgBW6xeNg6JAA48LlsSI9jr+7L52wKtGzPlKA9c48E0O1q6A0DnHY/wjGQdZfQHWJdg1auzzVQfXSq1SOgiqHWjUdOwA75/7S1kX4KPeUV3fycw5+Et1fmT7y42DQn0BduyTggP8+fzZ49oBj4vOyT9wu9/6lwUHgfjv280euCt5GEFF3aS3P0o1H+C+VjFgKIAno515poutfSO1u5u9iqAWgqMng2eg55j0SMp76fN8tffYIKFp7sucu1s7NDsHUR+gxwUJUlDB6XhnpgCx9rU1e/2zxLbAIGiQPhuvBycOFCx9XeW9ln1XLkg4J3GQ4HYB0M+avezqQ6UAqpQh82urDa6+v6mcZ6uPfVnQ5mb4+r//xZ/JK5l27JJEe3weQHgu6gLwfZbQFhiOLZY++zj6N1hBYe4Xx6smP1IAUNet0+5M/FcPBwB8v27FrPFY7CdOBkTv516/TwAQQUim1r8joOMDa6wCXRTB8WXr9RzQPFR9uJiwD6vf6ZyA6JnVyYBeUG7a+7Lltt/XntHt/RBopSxZ6r2n78vCP57t++5xsjLIx7YISuJArc1Q0gmoJYzee6HjrJcdYZ/pCLBdATy7lmrwuoZAofpFUZ8nWOCTBW3HgnIfs4aPeqls0NaAtb6CgLT3laj5pH9vQ+3LsK4plZMgAAAgAElEQVSvwZY/nKNPBvSBsjhtz3OPIADgg3ysMl8WBypthpJOQClh1LJAI3fLVW6Nn4O/6QDoUjQBgvGjpxmsqg8MbNYHAPwPyNc+Uzem1yEL8H5/gOL7tXee6QE6t3adk1TwouI+sMbFAIWzc2KcY735A/C29+G+/sR6Fwn6YqbkhT9jKp5n2WLmfnTsy77Wv8hd0nmZOyUP0ekapS5l7loAINX0rRIfdwfger49z/buk6AACRSxf4A91/b+YxGgayccmRa9tfhBubUPg67Qpldqpq/R/eQzUXeA3IlQtAymz4BZi7NhxsLWOZ+BTpL+/zjQrQ/bXd9n8u6AJKCu9fc39L7Meuge2Hvy93Tw1pgBPMaX1fRzUneA1IlgLYMJmGO/AO4YiG2LsQiQdwJQn4HC7yd/j2X/Cv0fBQB1sHt3e4NV1cbLo/IAgNOMMyAFeV8g0ANyL93q0s1xdLSULcdR7QzcuFmOSN9LDnv8WnR/cThRTIYunoMy56NhX259cVJszV+y1JWyad4qmISml1iEuBIEDgC4ZTBuF8SGP5LzIL52wuqrKLgq4BwH8rJ/ALP2jWEKkpYa+Ou0YyFiL4YMfVV07YsDwyQmO/UB9PWxtL+tGvsysG9fWHflhbIugCv/Napd69mP9RqQDYccy2DSLogNfyTnwWPZtX8PuWsu8dT+2esmABgyYLnBqGrj5FF7AMDfwCfvv5Y3dsAI+LVSQOH1kd2g9uafUTraqs9txuuM3XWzVxHYfOCH6W0HYKNnkajyYobr66EvrrAOTp4nAmdxJDBX4TfxfXn6uYFu5h4Y62DgJRS/M0nPVeHjLN9m+NYzAIv4OMhLlsAnJQgKMO3PAw/COIglhH1wYp+9dbHZe6APkMDaZu2cfudZO6/zm+zeegZIIj4X1CXA93UZFK+bNvfOegPiuNa8Ulr3khoAlUrfpykP1Oe+TH7qcfj058cTYCYqfEzTW1U+MgYiY3eFrF4GfE9QgGl/HnigZ5FKCDmT+dvP/O9/gfwrL4gZfzTyFwUCXToAbCyM/f2bauPkUX0AwMV104dsMDMB6tAoYDwvABsEmSAg16G1k8GKNWoMQtKSatj8fa1mjTNnllFH1D1Ttwfn0Pc8mXZg05sjNrqyhz8pLTTRfXn9qS4OdS8Bb4E+L9joFq10tYwbA7sj7BOAF4OzJhLkIK8J+TTtgcw02A6D6LXf9H/v6whU9azeydBDjUBAxTPbXhwEiJm9ULuPLRsIFsJicMF+fmdwz3rJrCtlq1sp4K3kPRpqX5ZfeyW1zT1OzuzF2r2kylcBHrkJSiCvaA8kpuEIbj9kz5W74nchta9N/cNtgEHr38XVxsej/gCAf8hvXtnfAj4dDuSOCy6wAEM6BXVrYUoe8btH5jKcihYodNLiJr2GQNMFMiy4i2j78Lzgeb2gK3QERAJBK8aTxXdkH5rgvgx5+AkVdEUvfgv41hEwzOQpQOPaffF+lE2gAUPk7c8perm0ELX+Sa/RDgIK8FiISCcBFs/78/C5h+JBV+gICAWCkRhPBGjOAgiugpHwUCofoPfZe9L5EpMwaeZ9qYGylBG9/L5x75dy77iAotTPq+a+jG3/PHxw1qmUbg+AWHIVDKl24u3PKXq3tEBa/6TXUDDhADwWIv5npEUIzws0CPl2T8W0+9GOAFi6YIDBpmrjY7M4AOCWuklv73RFf1QPEJYGanpC7fPXRgK2YGGjGZL5SlmtUDs3oEb638PMV+pZx2Dnyegle12x7Y+Z4DjP4OoB7N9pRYRHzAwALOxrIvsy875bHcB2MnKm2sfZt9SzX1iBiLBFkGFbYZ9d2IAHMwJSti9pCooBwx7nmfhoXx4ESCJFUlLotQfunzDYAVCRXncydpp983ML5weCvmWbi3R/KOwLVtjSZ8/3ZPuipqDwrPHPtGTDebX9B7xZMgCm6cOPO1cy1bHCPrviAoi0oF0pRqC+92XRHTfCoe//MxwJ6P5Q2BcsbMBDGAEp2xc0BQbsqS/AsXovPw4CJJHid5FngG0BvLil3vbnMAIdoK5P150Gk6qNi83mAIB/h7XzRulTAQVx4DvWHlhod/PR6zFLdufTDGuY6Y5a4/cL+RI9u6XR2bmS8U9T2pd377wMTuv5kQqEvG4unSeb+AjGP0j5n+TeSRafQigFJPxfnyDRntdhZmddkOcz5uGCPwfABVoeBxEJ7p1oeVwL8Ro/7ZGKgGBaQE1L+9cXWDfEqsS+jHi1M7z3+7MIsIqmP16qX1+Oba/UXSBQ+6og8bjo+vxzj+tiP6z8t1P/Zk8baTCp2rjYbA4A+AsAeCw/ru/uujT2wG2vdrzxHQCSBG2MLpeybcn/nortONhq4EjPiUbwCkyAFfo5ivkTqHhP+btsVwFmBRrzvnx205n5C19dTcA+GvLDevz70Bq/ba/D4j1NqGfKA+Fn8JkBHvc+iQXQWAhpLgAWIfIgRAsa7DlvLnyEAnLQQuf0+BeEfrzOf5ZoxsOFejjT5zMD4vQG/i6As/1zAVC5YdHaiw6XC8jStTZj97XVxX2OxAo0NPg3tn2Z88BdsO/E45yZAQ4wS0I/VfB3rHcuABEhIrZB1R78Z+Q6mLvoHCb4U4b92OCge+fPDRYZTKo2Ljarw5gtwLLpk1LZAw96qQB0Dq2Nls+NjmTH3IhHA0IGdKSe7WT8+DnczFt1/9Oyc5EVkD+jKezLTR2nK4Y8svuflp2L7AED3fDnYCSwJvbzuvSh+3CDIi1A4AEAmfYngX+wxq26zs3qlTKAlp3HiflItr8lieWvMn+AlCFcDYCsXYher5n4dL2CaDmg6/Pkj3uetAxCOX9bQ+7LO316w4bLf+/S/Wj5XPqoeRCq90vZPC4XcDdBwWGwlj1PrjD0h7n7qe5/HaBu6sTxmfFPdQKAb0A+/3R+TO+v4iyBcTnAsABhbdsHqBqA+YAtLkO2gMlocDrmVhi8wz7LpewZaCoCQjJch9fhA9q+se7L4+2GOoN3HPBmlD0HzUId3wf4+HoE8Lbmr2X3IvjHvJ6EOThRFQRG43/t70s2/1YH0TjKno3u5eeKfgJBvZ+LBn2sQJLXkzAH81ddcaQS4JYk+/VdpwnkSm3tayhArta+TH3iEfjsZ/9Xz+41Zb/v9STMgQ0kWHngCO9MuPhcpvxXqP/g/brunfYCwFMGi6qBgc3+AIAfweLJM5LMBQh/HvwyAR6uhncA0pfN4tdQZmv77/FoXgp8buZLlO/YbY8tK9orCPhuQH37wT0K/yIhn8goMIrfea+R7Uvnp7s5bnvuCkR75t/g59ABMBjM06JPAOZats9r/Ow9zDZogYevtY/X88NugdCXAI8sjpbECOCOgN+8ve2QCuIBwBcFfIFoz7oAhoN5Wrm1/5js3gHxLfGCQ18wIAkEQ98CNLLYrpFjX4gFrzi3Pfye5H4nZfOVEOmVGhzg5yoH/Ku9LyuvudzpEuBaAW9rH6/nh90EUQnAsStWGIEj6Pf8809AvsuLEcg760Wy6iaNnWwwqNkDcbUOAPgmHPzq+bqaXoeTBQDFf3MvXBeT4cpiOTGzxda8pG4tOenRrF5S2YdgbAOAAOxDhb75uXUUIBAVvw0SzDlxz2//Tk3l30j2ZdAjzxAwtgFACPZWpd97D5xCAoToPQvORXW/P1MPAwBF5a+dHzc9kOsTaIYvswIO2yF0H5jfrxw270gYAARgHyr0Cz+3Qna81J63+Br+OcYlUFH565l/PAOA9QlJWAHz7+yl19VhgNEACVvvcvDjQBgHjPUB6klWOc/UWPdlfLu28OGvf+JoAmKnBxLDIRYMSDV+wZBI7D64tFWQ4b8ogn1hvWp/7gD5bq98GWT/38wCgCoeAHBS3YLxczRXQFEkOLQz1N74E7eGbVvYLA0eApJH8Iay2ahOzmn8ANwwSAcgh2l/TIETj38pSLCZNe/Ft0DLxYL8dx9d30j2ZeoDbRzTG5KVC2DIe/U5ULuaAFc8qNH1vLZvr7efG76GygXyffaR8zCtj0EfBy9hqyKi/e0194wf6qX5I5re7cWXgJjrB0g27hP7ISV/4XqkA7AiQl0IiD6TXCcEFkHwMnzUK7GUu4/OLqVNrxRwjsuWK8Uc8Gy9KezL4ltvgMP/+Y/F1j6W2Ye6AIX2t1l+eB6u82PQt7MFgowfBwBHzPr//gXy7Z/Wff4FHwAoZv8nZeDfGIYEff1lu/zoHrWaGZA4I+DFmwTKmralOa1sEqCyHvvo+gDsWpusPcrm9Wzc83ksEHDp/GLWT2roEsWOF58FoK0q7cuqNn+En/b8VABcIRu3gQCj7KOsP34C34nKLABfrZ+362nPKSr8LaCzMkaRxdjj1yywz3thxquymM9Xw7c9/R5RIF10FkCaWj9v8ZMCDa4tcMsYrQqlChwATF9wc0lA6atVVyrDrfS1GhjzzL2cz6vWvozq3Am2nfcrosbX2gK5wj8Ec9xqaP79P/8ER/7PP0XmPprW4LhvQ+0fLxBc/oSJf1b4163TviD7z4b+NBoWYGHEAjjZfyEIYN4Ao7pB7e2nuYBHMuoIUMkEOiVjxuNpQ/BjtXsNVNU6Onnd3gNf6/bqF5+jaAcceudLIG3OkYIGKRBowH35+Oaz637/2jpvHR2/Hnn16yp5C8KmFbBgByzU2i1Im/c5/a4FBJhpoNcU6/k+JiFqYcSBTJTh2wBACjbw8/RZ8JhOxyvaALd+f1bQDni2hw04KzH9rzENtp7vYxLIOGOkVSAljOC6IcNer7cM1Qe85QB5pYCV36sSLYjV3Jc5994B+3/0H2wcsDAvgDED0RTAqGsgFPjhAADrAOy/P/oO5Du1ix30E1L/JgCYPG5Slv03NhbgQIEFOKJPCHTNgnJd7iL184jiDrJXEWjZyF08hjcQ5BHAlursqJZPMndb52dUeQSSXLmP7kuyaCbSc55FqMvzIKOK+9K60xySuUe1fAyQEUg6gI9KAziL5iI9AtooeydZPQsysK7AUv8RONOMnusDontFToP4Pa2DgWgchH2pWdmaZfMy8NM2Pvq+CuSY1tcCCewMKLQAijS+8Ho4njgQKnqfPzhvypw2qiNfUoDjArlKATl2BawE+Mep7/l5TXFfBvfsARsuPd9t08P6ACsaRABP3pPmDgSlAONOWGAHgmtyN1yJ6vya8A8p/3t02Z1l/421I2DRxFnxxkDYNrgn1N5zLhPRYTB1wbFIaTO3vVB0JznpMXOfgkIf1cODzyWT+1hZwN7f0Qtg+14rFDSvo1780EhIpPalFjy0qrAvD7cbQYAdT+7j9Hco6mN1cWLhi+5FevFtuYAZ/eBafgTWtOOABAEoyJCChkKQgDQCWIwoOxLSIMbc21zPAx68Lws3nc/q/REQc2Cl4sCWTi9+ZCSkq/S9tXkcWHjYB9xCiMsSKtjz1wMLYvMcAwf1iqXB4zJniUqXril1MqCmrJees5ROA02h31T3ZdpjD8HnP/1BBP7cK8C8xmr7Un9/GAQYwMc6AXPtqT9Ek/2klr8o67dBAMyYPDZT/jdWX4DDB9vma3p9nagd0GoBuj9MW9t4+5pv8I1E36s18SDDxYDIFfBaKaBwPqqtO6I5dB8D/sF9rNMfX0TMhzN6RwDYsPvy8jO9SFbNVficfi9k9Oh8LpqLgDNw4bOgKbT+YREhztSdEgBr+eNtfb6BQBJ9r5UhIhFgFORI+3JGv21HVIBFI3u1GnsR/CORXuy9mLJfNvfRBgXJA4G0n1WtAGIIzOdOmiEPCYoDPEk0h3+Py9zLNespxV0vDlDTPFtT2JfVV13qtgRKnQKaVsBm/jhQCO6Ra9Oa0f6SADAa91vX+/VdWd9/Iz6MI1PdkilTfYAvDQ7KPXqRk9WGdWubTYtAZ53vojo7AV3nugDIHUBmRjlqIOAGBjLdj9gDbrFLKHwpK5em8dX/vvR79Dm31i/45seJ83AmrZ7L2ulwtq/dC2frssYgsh52avvoM+xEwhDwhaFFmC2QghW8L5cNXVAbS9EnEOrJwYEn2/dR86zmT6cQygFANJGQ2g7TIELudFi84Xe5/v3rz3ynVIBOUiOPE96l7SDQTHia8r5MeP4Z+OjMH7P+/2MhhwYEFbJ7yQ3QsgWskyB31k/ZSF863ldaMG/2sMz1r/HPCHioblzfPcnMgYLV7zlZWCep5zlwqq14CRe7r9M7r9Tqibpe6hiQ2u2Uz8UzAZwyQAPsy8QH7nFBjgM4653XavVYXS91DPgm7DnBhuAQyK+VxIJipwIOAIQWxaSL3/eu8SNFit4H7mLHQIKgwWn38wG/cK30uZiJUIWDCda4KY/Wm5gtLbBVEnAr+XxNfV+W3nwtsQR2xgWnWPlH7iZgXywF4ACATv+r69dzu8GWzPO/KUwKXDV7jJz9S8ZAxZV77lpW9xbAklHkxDZXo9rFLFuoxWtBgVMmcGvqbk8/KxNowQDv7SfCPHZdPe3LsjZXwSm9vhBV+15w1oCY+fhr3QJa73342axuT4OA6OdwVLCH1seBibfFUGhjjNuX56Z1E41yvFm60NNPjYE8QM7LASRT9+gBFGtfbiecmmEI1oI1F+fKAScNHEsVv2lgl9RUp9Iq+6NlX0a90hG2tTrdayVM9ABcTFgY+HOukum3pwEAEv/BymVvZRP/msgBAK3rJr39kR/00c81PSE3/DWoveUXFOgU2pr04ytZsNSzTz3/PZQ+Bn48WlcMIqSfhQ4CpD/gnynNFqDq/Rb1si/v39oKWr6+idS5fZQ+Bn4L0hpYSj/TDB47BbrDfjjoY6EhvgYHAJzyDzN95FOgsgOCl0GSfem14EmHAUiamcsgH4G3GggIpkOOeh93BTi1/YDqR0yCxg5IbAOu/+NzayY8U6+AGQdSmqAuqasez5STiAErQfk3xX2Zd/et8NUP/1W1E8ZBAKn///BfIf/is6q/f94CP2YHBvVbazCl2riWHQkPAPgH2LDknbjBQKQMYIKAzncJIOzW0Gl2LI2vZQGAqLSn4F04j6vuRSZBUNDb98IZACwoUO4bZuxCUBHOF0BK/kruy9fX/xiufmWeQ8s7tL5R+zPVvZQxSwp6+14BoJXhQOJ9w3tIU/iCTgOBPeBlCeoPoI/15QGA1IGg7cvolbckzpilNjp1OJBnQJDYohcuof1QmQrIWYO4ACBOkzB3xZ9CkVpcW5vvdW2iXxKQaqiVllY/GvdlSPeusOmilqSvnwQAfAhQoe3vCtfdrwtqA5Rq/9u3vmYwJQPgJnQAwAV1U9/ZlHxccFAKePB8FbwS1cltH7+Q5RNxHWvTw9dG2XhwDvb2lzJ8C67GU4CPEWZBg2PaI5UffGWLCu3Lfe1rHCAnwj30Gs64sTAOe/tLGX7YpoeG57jAbF+j7YBS+cFHz4ug7pQO3LJF6AUgZfkJ9mX+hguEbNzTfkd+pgGAatzjZQzi3/e5A6rLDi1SJhHyz7evjRrb3gGj+hCq1Tewa8unwI977WjdlxmPPgC7f/IDOtxHKAnkzjhJdvjrwjwAwvr/i1A3auh8gyXVxrPsSHkAwN/Azk096hwrYE0bEDABbzwdTa+T2th49iwq5rXedy0oECYAIsqdqPYlgLbnkUABg7PHEpjoDKS6fvGeWPFf7r60e7aPSNVLlLgz0AdR7li1LwG0PQ8HCgS0GSXvOvXpAr+o0yBS/OMgQqP5pU4CSb+QZF/OfOv9QgeAS7nHAHR4ni/Ll5dM6Qv0PVb8oyBCy/LTTB/0nTNryQ0lD7Ip10q30iBaqieAdE45A36awr7079cP1vz5EtkTwAr/HrpTAf8X3Yl/5v2urxyAgwfbGizJALgJHgDws7q5o5cYet/S/OFihkDEHKggCNQU+AG4Y+Md5IJHaugI+MS6P8umsTFQ5Jcf/MsDAxYsFO5vpgSiSYGi8M/+DcF53FCIX+c4Epa5L2883oGCsdTmJtDneMqfdcQ7RajF82DB3N+cRycFygI783t0HjUUcrN4KgqUSgAY3LEhEb6Gmhil25fLhyzK0yl/rcLpf04tnhn0FACzMCUwmhToz8iL53FDIT/DEM8SYEMicg3WFsQEAzyoGDbyFdFgRgJA/hqmypMApDRFrxKWvBrwltN7L+3B0bYvE599Cnad3oIYCEXCP0Hs10VgAYKpf3XTJo03GFJtHMuOsiyC97bP1/Q6pOsABFZgZDeoveMMJWNGAIkc9xxzG57l2/dMFq1kzjwIwIDv2AUbuj+wEcbvEdEfKy+QaxFzIFH9rpaA1fxL2JcxDz7gZLMW1ApGPUrm7AYB3B6YOf+FdrnRexjQOY2Or8Ue/BLV70wgjGkDxEEDdiLkpj+l7Msd40a5tr9cwIec/+wAIPweEf1xq2BybbyzX1wZQBX6YSdCYUCQzEycrTIKMxbcqgKb9rsEMPYcTqOndfZriIw4zTXNYV+W3XhVpAM44buQf+k52ee/sxwE1L3Z4/3M8vcoOADgOFg2fWII7mH274oAMUuQ6/pAMCzHk7WjXncC/ggYI7q8BbrmBAdAyYAcfC8k3uMBBikf2Ize2gILbXw2O+ejh/HnOG2A9vUg4Cj+Den3ZeHd1zmOdxg8DdCZITwOFY/EeNhSF4v3HCBFNLnN6M2EvUi4x9r4iLLfFRDyjgAcjNiAw5xrnt+XtWMPAPzMpe7Ls1N7EGDE9H5EwwstewVgtxl9wBoIbXw2OydBAy8jcHU+Ki9E96VDhDhwEw8A9MzcCZAHDcUBRiy4CESKQ4Z1jW1l44CCQSwJCPrelwR0aYGslF587ZokSvyjbV9qOnaA9889DXK3XVsE/cLQH2HiXxfm+meEf6uW9zPYUW38yo4KHABwXd3kt3cSsJcWDgSMQ+CTlysUugB8HPy5eh8zAE5rH7fuZZoAbCHMaH3etqfR+E5bn6T6t6wCGlREWAVWy0+6L1tv+x2c1XWrI2TD4Idb5hwAFTJ2VxxIFfO8bU+n8Wlbn6T6tyCPB/JgVoHX8tX6vaIzKHVfus192s3YcWbvodAJlZ9yKE90TsQsROWHeLYgjiVIYjPMWwnJ+5vOKQwJwuCVJiONo6vTUNn8sytFg2tAmbQ9sLnsy5gxY+CDCWOh9rWX4nv/uwTCv2EDlxvMyMD3KDkA4FuwZdVb0jAgogcIA4GALRj8CtTedKoCcgEAOmY6koKe2/UGgOuo9H3tdhH4ywZDksWv/RytM0D+7DAYwIFD0GEglwb0fdl/w6nwx06LBUqfqdsR4GLAl2r2XMWv9ctHwCwZ7OidAdpnR+1/aOiQvY9QGpD+Zm4yVM6+jFhxmwN+Uj1ebQvUgD2uM0ANBnDgEAzrSeMWyEyGtPN8zxutVnUDB/VJDaCVPF8DvbSZfamf21DXNdZ9GTBgACxduhRWrVoF6xYvhi8G92cq/w7uev2lg7B3d3uDGdXGreyo4AEAp9fNHrlc7ABwhIFoWJDxBuDgzlXwKOOVnfTkAIFOz+OdAchPH9vqshWWBSRPfsQ05PC5Hr0CWXgksBRIJNiXNh3GEzMcLngTHf8UgLSAbf30KaXuUukkg+YZd2gXbM5D3vxaXZ6VBbAoUcrcebbOf6YljtL2Ze6GC1lWb/30I0pdG6ojefKTjHoLPlevyztlASRK1AYESWDu0P6Kw6BPG8BfnzDjAQIU5bjrlQNyPHNuCF1Akr/laN+XGTNmFMAfr+1TJ8HBHl1Uz/+6ovDv9Ax8j1JBYF1hWiAzA1JKAGEQ8NjFDrCFQI9+F0fqSqI5rXzAlwX1cPgOCgS41779nbEEqutgXL+/VfQHHQiuF4F8P7wvz7V9i9TwpUxecsZT3fJQXdyCOw4G8Gu87u602inuenH9/rbubzsQuBeBer8A6Onvpe/Laf0+zLnZsQV9O3wHBwLUaz88h5cGVLYgCRMQdSD4vAgI4KP5BBGYx5cJtFZEfP6S9RfkNaDTwE/6vVxwsmBXDqDVR//90bwvNTU1DvjbtXrFCvh0+DtuENCv57ZM+HcUHwDwnboVs8aqAQBhAhBDMKhjUApg2TzJvJGqnoG8M0GPX6sFAFxJLzEBwbnh5D1hEBAPAmR/AtYFwIWDKACgpQCB5bjuJOjx+EuhCl6zyuUT9OzrOKv3gap7D/c6O3nPlgII2PIgQOjDdwOAiPqPOgfQ9cz4hz+vfc5y9+XiIYt1UA0zdpcJiLJ1HAzIOgHtd60MQIWD+ghiOetHjIRiIcwnC/JrpSBl3JTHRRCphAlO2tY7yYgnTeYdV6svN2g4WvbFUP9LlixRAwC73ps5Hb56o3vk+LdxfU+DEdXGqeyoxwMALq2bOmiLPB5YaxHsCbkud0fAimh3S6U7Zjs4i8fgz0FdrKHL5YWI1mfaAAPGbLyulqnjyX/Fz3dd/mLZDKYd4Psy8sGHIlpd8b8Ps/cA5DioS/VxjUYPFzfZ6bXHGa+rZuqIGTCfzz+PdyTE6xKigIMK+iqzL7fW1MQAKlXGu5R5ssl7hBlwlPhUeZ+UOcD+AGFLny03KHMBomAmOhcHBtrzz199aSrgStt6V65RT1KQ81HwpQL30bovEvXvWx/XjIC6MSPmGGzIwPcoPwDgr+GjbV0jh0Df1EDqG5B74lJRUEfq8Fom7wCnJv4TRH4sUCDZt63Tk35893NJyQKXDXw0vvQ3OCwDZRXm3XMjAq2oDq9l8hw4XRDVM3aHIUDZt63T288QAZ1R87hs4KPxpb+BswwSq1DJfXlqam89Y1f89MPsupChyzV5iZrHZQMfja/R9XEsQ5T50x5/7Z5xQQv/jJoJzybKIpPQ0XHq+nKBrj6BM+l9mvK+GNV/GvBftWoVbFgwvzag/v+62viUHQ1wAMAP6xZNmi5n/BL4B+cM6VScGKgFADF19SizRiI7LQDgYI5AVp8myIGbtwvyoABbASu0vsQiKEN/Nt1+IZzZ7X0H6OLq6jaztr/LLXuReogq1+0AACAASURBVN7J5GPq+jz75+2CHHQtG8CBP67Fj/sISDX8Su1L13nPsYxe98wvZTqgGAAI9fpE9xKEfJIAkIgOY57NGT2snncOzF1+lQgYlQKihqjXl/JsaQf0NPV9GTRoECxbtiwW8FevXk1+/2Ldu+MMJmTg2+y8AQa8rxkBaaWBXLcHXXAWFPiY7lczagXAyQRBa+oTvFYEbUq5kwDEo+yn/vxC4IAMhbC3gOYxgIOAPTeeBpd2XkYATFbg74vNqFUAx0ZAqPXPUuq4hQ5/lk9PgIMACdwtm0CthKkPgBuw0L+LBy2V2Jehy+8QA4DQfMdS6ZISHwGtD2yTDOzBVsLEO0DwGHBYAMERUK77+5kGf6BQfH9kTYeyQS4pkPlc8UqxxC1VoV8KWDflfZk9e3bq7P+9995bnPX8N8MDAP4X7NjQK29KAaoIUAoKekDuuatlEMeMAK75s0zb/kwzbgWcsQGPUEYgwYVD0Wv0PnXrU+v6oeVwZB8slh+ubwG3d5ysghXOfEkdXDift8ZJGTzOhvH1PLOXMnHuCYBB14IzFyE6XgChCDDyBZDKD3EgXs6+zFp3iQ7Kvvq70pqngTNuMfSJ7Uj/f+Au6PToq8ZDSgkjEP1xZsDpAEjARMxa3LpeQDRJfVwSu5VCs6d93iTnVHrQT7X2ZcKECanB/9133/0in88/bbCg2niUHVU4AOD4ukWTZtJSABcDCkxATU+ova9llIWHtfQWkBP693NOq14UAESCPmEhZkG1AWaMgWUnCgAusgKIPcDMhU9nYJkJHHggh8Gnnx8YtsfZzBzXuAtA2CdQtgsKd/s7BrpQlCcsnEFrNsCcMTgRG+oIrABmD+j9XbbArcvjQT50DkF97MvP3/woL1PtWEmv2AA7jEEUAPhYAa7U9+oMhIzflgGcccShXTCr/W9xfQ0i5X/UwhgKB72zCIrPPWxkJy/AlZr91nfdnoNimla9Up+tKe3LsGHDHFo/ydq1a9cggwEZ+DbjAwBuqJsyYEdUBvAFAUgb0O+5aOAOB1KRkg9G6jpgLIvsnF5/5K3v3CeG+ielCXR++OyibgCtcGgQ1QcY8O/6VBdSr8YDdziQ8mVBkIO4JNjjrXS47z+i0Ol9Yql/DPJ9UPYdPLukG8ArGkvMxXqodl8P+3Lh4GWCyI63/aFRvDwYSCimK17P1f6yQE9jIXhAgN0J+SAiHmBoff8+UyLfvkybf0vF6tA8a61Eto1BDQ/cqa/audT/3xT3ZcGCBaVS/zdUG3+yo8oHAPwd7NzSvW509wjkxYFBrkgw1+lOoV1OrvM7rn+4c4AFDKTnXzuXKfEjyt/fskezfPnzyXW4BMEGBg175EkVZJ2ee4UK5+52tGWOryhL1s7Fn40p/7iWPfJ8CKQ1cMYUvzQwqD735ebR4yjQ4f541l6n0fyyDXAS8Z3iMCiBvzgwyFNC8AUiAnuh/a2+fXlnSLeKA2oauhv/XJ+te0ler2+RXkPsy/Tp01OD/7p16z4NVP9/V238yY5GcADAD+qWTp3sHRGsdAnknv4jBUsklOOjfQvA6QzVia4lwQQGYe4jgDN44RongODgjwKRpPbAREB43Ukw895bvRQ5zo5doRwd7Wuu4UN1KNBSYLXv8X55nMFjkOW1dkzBc7Yh+jmhPTASEEqK//rYlyen9HUG9Ug981zsp7YLMqD0BgYJ7YG1eQJq6UAYaUyCA/x7wZNAcRqM2ZfJs4pDgpICX3332MedFzeql2fccdP40vyNjX1fxo4dG6r6eQnA9/vnn3/+lvnOPyY7sgMFAZfXTRu8kWb+UiDAGIGR3eDIXWfJ7Xx4gA8JEGj9nrwntQZioyEns2ciQKl8YMEev8eAXwR/1sVg/11356VwWvedYjatidZclbw7rY/ch1HnUmugVf/zej0HTK18EIJzQP+7Wb9bViDgboWGvVzGoT735bU5L0QgqYjqpDq/Buy8fBCBqeu0p5UVyP2E9kNs/qNS956hRWS6odRhwEoK2r4s2dgSBgz0DwmKA7pSM/hS6fak50sBAqfO07YGNtZ9GTp0KKxcuTJRxo8DhO3btxvDn8sz5MsOcgDAX8GeT16uq+kZzArwBAB4YqBZbz4r0u6OaC6YqEfp+yhQIOfj7B67/yVt9ZMEgLw7AekLcrzFUGxVbAGf3fxruPDVVQ59HWa3rIdept0pYIYT9RyKnArquAjPBgCJ6v3sPJ6tYyaB6gv2kRZDKbvnosD63pd3lt7lCuo4zS708fsydYnOD4V5bIBQ+FqMAVHsCmr/IjNAnoMHA/g6N1CI25cJ0x8qG3QlkVyl6ulY6FffmXS511VrX0qp+69fv35HQP3/VQZ/2eEcAPDv8O7CYUmdAYkeoMvdEaUu0e4YhLVMXwRe1uIXYzrkG9eLBYB8uaOJ5QDjpo7TQs97V0WvK/etsl2qfVsg1DJ9CXjxa1Kd3gFn37heJACMtRf2BRgNtC8z3r0iFni9dXoFIF2Alu+TtPUuzMztUsYVy58do0coMBFyph+3L4vWXVAW0MXR6UmBtL4EfqW0FVYiwGiofUlr9RuwAPl9+/Z1M9/xGfRlh3oAwK/q5o5enDYAKOgBnv2zLPRjlDwVDnLwjjJ52SdAaNVTAwpJ1R8JEnGw4m/7K772+PODSXteLNAJNrsctDElj7NcDt4caL2AjOrtUkBxkhZghP78ESj72v5IENJA+3Lqm7vqxOw2phWOnB8DnCKIM8/9uLY/zkTIWb6fjZCDGdzpEPN3evZl7OQnHHBKC5xp6+alnJf03CTBRJoWwca6L+PHj08N/mbt3LnTuP39KoO+7PAeAPANALinbvLbO/3WwJI2oAfkHjhfzrJxO58grOPe+jI7oJkGRSJCLgykpQV2D0ck6JYkrD6hy9Ovk6wYD8+hlL1LbWMhHV+Ybud0Pb+nBNwcxDURoVt31wf7cJGgXJIo1ugJcDfAvlzwzor47Dkp/S4AOafQ6XuaSJDR72iaH+/Tl3QBPDjAAkN3oTKESPMn+/sXrL7Cm8VWGqDxvSUQLpcJkO5TSXahMezLyJEjSwL/zZs3rzbf6ea7PYO/7Ig9AOB/w0fvdcuP7pGX2wFZABAOFuoB+Xc6Qu62X6pUe+21J4jUvdpKiIHZGv5wVz9nzgC7RvEESBJ8mPcGPfosyWAlUOWZMhfVFcfy6lT78Wwwjg/g+fuhHTALICIgpjS+wyqwLDxZ8BEFAA25LzeOnpg6c+fivOg9f/bMs/kkIMsV+1qwIekHSNviFqGLgayzSg5+7L6MHt82MWhWAkw1BX/c59cH6Ca5tjHti/H5X7p0aSluf5/X1ta2Nd/pGfRlR+IDAL5ft2pOjSP4S9Iq2OcJt+aO2/MS1NppXV7o7xeEgGRuAGEI9Np/4T3bmSDcd9oDdxbFaAj0QvBThvDY7FYCVl5zt3VwrTVPAmhMtztUvHANnhuAGQJOu3MdAc/w+d9YjX15dPKbKkD7wFuuh7t9+vwaUUfAMnz1vgj8ieAvgae/3I3ALIKTgL1nX+Yso0OCygW3NDQ5tsEtlQWQPq8hgoVq7Mu8efPS1PvDnz/99NN+5rs8g77sSH0AQEuYV7M4mScA6hCo6VkQBUomQQVwbs16/jWhH2nls5m6ANTYGEjqEED3kucTsDHBwTOtbnMlnNpzF8mgLaByL36pBx5n07SdTzDD6bWnMHBHeu9Eb308qrFrz2Htf6VgQvISsO/xOj1nEKqxL53ndPCANG3lw613Ui++tf+Vwd/1EqDXKuAvMAuFgIDNKJCfR5gbwPr6CYOwxcwc0AOeJPsyYnSH1OBXCnBq16QV6yVp50t6z0qKEOtzX5KI/myrHwb/999/f4r5Ds+gLztKOgDgm6Z2lJ/EpgbiaYFkiBDVCuReuF6pxQu0Pcv2w957DM4EyNGMgUDYRwcAITEfKQOgoIOIB6no8ONbz4Hfv7Y2BCM7AMcCUgRYqF8f1dWjgTmucE+rxUu0vaP8D+9DPf0tkFtKPQRdNlIX6wNwho6fyRnmwwf9YJ//Bt6XgYvvkTNm1BYngZ+l1H1ArdHzDihL5wWDgPjvFqjDMgBhBhC42+utLXACTwDpb0m7LzMX3ZA4u/WBlW+gjQRsFqh9xj5SRlypDD+NQ2A192XixIleYx9tBsDmzZvXBHX/b2bwlx3lTQ38/MPOdWOMP4CgBSC2wS4TUPvYJXJfvtAtIHr8B6WDyN3vhOKgIcEXwJYApDq+6FAYLDz5z77W+uVZYW1dqoOTDNepedNMmNPmvC+eZ94uPe96/FuK3NLkx4fg72bfYQlAqePz33FGjgEb+/lXa1+mrf0jMeSRMunIqMeA3FnBQB03cyeA7anjc4MdDODkdaHVT8zMJS2COj8gujfP7jngl7ovQ0d0SQyqEnBhwOLjbdP09Es1d182X45fQBrwr9a+jBkzJhHNL1n95vP5Z7Mpf9lRkQMAvgsblrwjdgJgNkBiCUZ1h9r7WrmUvLennwv1hGuFc2gJQO4CsIZEpgxhSxF8PdxuuKNa5wK7SMxG+9hxZswpbU518xq5VouXqHtRG6Ccg0sAehdA0XjHZPER5c7X3qruy4/7fOrv6ff4AUjnSCUAd2KfBeFWIeXuqP6FZ+DCw1C5r/X3S1Q/KwHIwsEEXgcx+zJt3m0N3nOfVK0v3duXWTeWVe6+DB8+3Ov0JwUA9rUvvviit/nOzuAvOyp2AMDPYenUaa4AUHIMZEHAoJeg9o4zXABnYE7FexH1Tz0BmLmPZQ984kAh2IhaBuk8gJee7uko1vXpdQHd3mefTLEzwBTpdQHAHfBnZjw4w9YMfkLWgAnryDmoewDrBSIwpxMCq70v5w1cTQFcA0SfJ4DNjrmwzqHUeaaNfQRkQyC53u5aCJvP1lgCN2v32B0reoRS9mXwkO4q4MYBbRLKPEl2nVYslxZg09L+SZ+t0vsyePBgWLJkSaJsn68PP/ywxnxXZ9CXHRU9AOAvAOCPMHvkSt0LgNsFo9X32WLWLWb7Ma2AGkuAbHzDEoEgJORDhELbX6QnMP++9WhbJ4sOa+sC2HEam4vkOOBitbwk9HPPF+7ryfr5c+MSgSQkdNvvira/WE8gzQ6o1r5cP2pKLHBKgMgBmlLhrmCOt99Z21+sJ5BmB9AAQC47qM+sGQtpIsC0tsMx+zJp5t2pgIsDGFasa9eXQrFXSjxY6iq1RbHUfTF/Vyk2v2Zt3bp1QeE7GuAvMvjLjoofAPCXAPBk3WQkCnRYAM0sqCfkejwcZe5M8OcY+GDhHhvqI5UQOMjLZYTivaPPjt6feP/dLpgKbWwk41YFbHxAjg7kTvYeZM0hWLLPwM8kAbO72KRAsUQQ3Btl7D5Qr9a+PDzp7ShD51kuycQlYBZAXfH/d1kDmeLXBHfqc3mcCpNaC3ufrYx9WbrhtzBgwBupwDGN2j4tsCZ5L+mzSeBbX4ZB5e7L7NmzSwL/jRs3bjbfzeY7OoO+7Ki3AwC+BV/seqVuXJ8v/WODXYagDs0MIOBN6Hpq8OO25/nLCC6zIDEN9P1lbf4Mp/T6QjGwYc53jHIXFesSLe/z1GfAG4Iuej302heA2RHfxWgIJBGeCL6Cq1819+XlWS+G9L0GeiIwe+jyUpbo6kfU9ih7VzJ7bWBPooCABSRRUFPevkyYFj8kKAmgxYFrUvFeWjV+klHAlWz9q/S+lOLxb81+Dh8+3M58N2fQlx31fgDAd2Drmn7EATBuoXNzL90SZO2oz1/J6HGrnzwsiI0BDv4VB/8IZYX3b2kJrV7fRADJR1cTqt1a3wYKd42idzJwBOYiva7Q9jSjd+vrHPC5UI9rAqQgQRUgNoJ96b/4PoW2R8p3QWQnAZ/zrzD4RwJLX9afZBZBNBhIp+gd/QG2Ehay+KgkUd6+LHr3wpKzWR9QJ/HcL7U8EGciVF9gX+l9mTp1akngv2rVqvyePXt6me/kDPqyo8EOADgZ1s4bJQJ9gsAg98J1pO2PA7ZI6TvmQBGYk4DB2A0HLYMkwGDgf/D6U+DqV+YJQEf78J1auljHlhXyuOZOQM3T7kba/hzAdil98f5CwFBoFbQtgyjA0IC5se3L5LV/RuI4V2DnCvdcUV4Emvi6s8LWOGLHqwCzA+rMXMfRGMQFBoJg0NER+NoAcdtfmfsybtKTIjBXqnavZcSlgH6ae1TSHKjS+zJp0qRSwR8++uij4ea7OIO+7GjwAwDOhcWTZyRmAXgQYKYHWh0ArvuHgC0Y+8S1EAriPu2a+9vXiFmxBKDHxwAVpq3jhHFOxqz8bGl0/lkSXa9m1UKQ4GMYyHM0on05pffnLo2uTM9LklXT97m4T79GYgukwAIHExKAYzo/tWDQo1kod1/mrbwiVYadFmSTAnile/xLDTji/oZy9yXtdD/cEbBjx45p5js4g77sqGZnwDV1c0Yvk7J+U/P3TxTsAbmnrpA7AezMAEn8p3kGoPeIqZBwXYe2bxBgxAAmZa1OxoxG2nLFvAFFnOG69LcLrJrSn4vk7P2kzF0DUXqubBYkBRSNaV/OG/huDCgWvfGlzN0HgBEQJ9MJRAGDqwOg2TxlElw/ANwtcBbtQuD3UwSLSVYp+zJq3HNlA2xSSl66RsquG2swUM6+jB07tuTMf8uWLUvNd2+m+M+OxtAZ8FDd9CEb0mgB6kajgOGxiyMhoJStSy1+OMMPf7aTBl2/AOwj8Mbj7QkYYjCiwBPVo/mSsmdLiRMrXoWyV8ffkvOjXnr589xn4aBrfrYT9SS/AN7f31j35ZqR0wmtbQVvUiaLQZoAKwLd4s/6RD0uoMNBAhnFy4yFIvDnS67Ph4sFIi5lL/991s2vkvsye+mfSwLOtNR5fYBwqW2DWmCSNNtP+15NTU3J4L9hw4aN5js3U/xnR6M4AOBvIZ9/Oj+p/weJg4BR3YtBQPBz7uEL3Lq/refzAOD6+BG/oeEPKyuMfeB+oW4uj6TFoGaANBSoYYBl/fT2dwuqEihKNDen6A1oR/S6+2w2m5Zq+RqVbjPzuFp7Y9yX+ycMCEHb0uvyuFybTbu1/CRUuq/WjgcEyZ+N6urmWUPjIBoM0GvZjAIhWJAZBl66qOy+jKjpmArg0rzPf45r00ubsUv993GMRKnBSCn7Mnr06JLBf926dR8GNr9/W+3v/ezIjvAAgH+AvZ91zE/o+7lM/ftaBgNNwEO/dyj94tAfVsuXaP+wY4AND0IBwqK7r6UUuqW1TZYduOLZ90NXOjIwpyiC08CWU/hYJFe4rzPu1gVmLdPnlH4BbFktX6L9bQZ+cgzYNvZ9eXHWy7G1eQu8vJYvUd9hxuxT+KNsv/BzAOgrkO9/yAbYEcGEOZDthtVFxIPm7xCe2SscrNy+zFh4Y2LgwyY2HFCl2fblZPdm1YcJUCX1Ab59GTlypFPLT7rWrFmz98CBA6+Y79oMerKj0R0A8G/w8fbX82P7HNAtg+XWwEJZwDABD10QevfTKX4K4LMOAccRMGAE3rvtd3B21y0UxDx1cG5Ni4fmkBo8o9AJnc9U+VKtXeqL52I5A5BRX73ulc9r6bSW7wYLXGTYmPel38IHHbFcRHe7tL0GbDyD5o6ABLzDDF4f5RuBN7PsZfa9nGGg4G0//+z0Nf7QobDy+zJkmDwkiIN7Gste3xjfSmbnUvbNP7tUBX8cm6D9jaNGjQr9/fno3riAYPXq1Yf37t3b03zHVvt7PjuyQz0A4Puwff0b+ZoetbIpEAoEpHZBMzzIMgFiN4DQDkiU/7Ql0GgLDrT+Gfyp0yJCfUtiNw56GIzMgBwvcDsZrpvR8p8xcOJs1wkAWP+9vbfUX89r8TKdT336m8K+TFh9jQt0DOA0cOb0vEbnSz79MnhSml7O5lslB3JE2WuZvkbV47JBpfdl2rw7UoFnpToFKrXK8QaQyhaaqVGSfcHgH6ful9Ynn3wywHy3ZtCTHY3+AICTYNOqAZHQz84GiC8DFM4raAL+4AQAbpugYgbESgB3dRhHMlMLnnb5atE4U+bAxAFLa8njwGqB0GbUWDlPPh858eFM2wkAtNY7T2nBAd5GvC8n9d4jOucV/vVk5z4A1Ch0KWOXSwP+AEAy+vEBubfmT/r83dHA9bkvgwb3KBlEG3L52gZx5l7KUJ9yg4448E/Q6z/CfKdW+3s9O7Ij3fTA9UuGxtf/e6ptgrlHL3JV/UmEgOj959r2Eynm6PcIPFVKmtS7WU1bNMiJABWPxeUgiD+fA3hcOyA/RwPppO835n05d8CG1NS4Bn5p39eA3XvPGM9/bhxk9QVYlyAFBzywSPvspezL5Fn31ntGXm623phXOYI/sz744INx2XS/7GiSBwD8WnQLTLx6Qv7xS9x2QD7hTwoArjsJej3xkghccWAogSf+l4vaMBhitbvvs9y6fTSeV/psB3yZSY+kvJc+zwfojXVf/jx8hpqpOsux9HWV9z6ArUyQcE7iIMHtAvDR9Yy1UNiJSu7Lkg3nwYABfRsMMMtV5ae9VqLwKxV0lNPqFxj9TDXfodX+Hs+O7Cj5AIDf1q2cPTbV3AAuFHzy8rDej7sC6JwANO3vupNg5EMPi7VrDXxC8BIG7kj3OFkZWGOV+ZIIjq9QBS/Q8ipVHywu7KNdAbS+H/3dsrNfY9+X+yYMVsHaBS4q7MPqd8kPvwiOfkrfS/WLoj5PsMAnC1plvnIfEbQVY5/62pfxUx+uVxCWgDgNGJcD2lrAUW4QUI7Jj1nbtm2bZb47M+jJjqPBLfAPdctnTgh7/z1zA8IWwsK50e8F22BlemD4c2ApPO+eG0Xam2eoGtBJtWurxMcqeFy3tufZ3n0Cfig7x33y9lzb+2/vw/3x8edgQV/s9EBEp2ulhqawL+1ndA5BzFW8s356qbWPTcmLQLF8Sl2e9oc+E3UH8Hp+8fOC3n3yDDg7546BuPf/nAbZl4VrL6pYAGCBnncHJAF1rb/f5yVQSmmBTw9M+7entffFIkDz77Zt2+aZ78zM5S87jqYg4NK65TMmWmAnAQBb2CAIBwe1L1wXW/PffPuF8OvuO7z18QhIXRrbR0dL2XIc1Y6BznHp6yXT95LDHr+WBAfCEJ7YDL0J7cubix5hinVurEMd90KgU8A5DuSlbNqx9k1A00vvxb3O/05uIiTT9/W/L2MmPVWRTL+cxYFe+106P+7cSv0t5Qz2Meu9995baL4rM/DPjqPqAIBvAMDlYIIAUfhHWQDCFGCzIDNK2Pr9M/X/nht/CZd3XkYyYplmjtTmOJu1maztjbfnSgAoWd+elAD8ML3NAZZk1iJVXqT5Y+v0wd+NryUUfxPbl/GrrxfBK8pkI0tcb8Ye1MElsLYZsUS9ExU+p9iNKh93CyhjdyVLYA14NdrfG3jU877MRUOCkqykBkCl0vdpygOlgnlcyyJ/P8lIX1+733vvvbeo8B0J8I1qf19nR3bUVxBwRYEJEIcDaa2C+L0ekOtytzgq+PaOkwIb3Wj0rZRZYgDjGawEvBicpSXVsPn70s88c3afxyrphQABteDFZdqFskIT3pfFm37LMnK5zS4CLj2rdzL0sBZubXRlD39MoWslgKQlBKm2LwYXHlGfxDTU976MGvt8gwBvJe9RX4uzCdOnTy83819svhsz8M+OZsEE1K2YNV4PArBvgGIb3P3hIvAHYsCnnxtQBBkLbFYQF2asFIhwjfokxT0vAsbIw55T1zKFHrW4Sa9RpTwFeCy4o61/e6L++BjQFb34m+i+nN1/kwi2GPRsJh4PuoLyPRTCRWI8EaA5CyC450UCO6l8QKl4/J50vibME0G8gfZl9tKrUwN0XB1ee79Uo6Gk55cyupjf1/47Z86ccsE/y/yzo9kFAZfCqnljvC2ATBDovN/3GThy+xnQ7cnOBGh8vemFFYjlWgQZthWw2YUNeHDmK2W1FOAwMO5xnknq5cdgJ4nxCHXOsnCp7Y/8rezcprgvfxo+x5tFy1m4p71NOlcDRxMMFEx17PlFuj8U9gULG/BotrtynR+XGJI9kxYENNS+DB/9kurJb4V9dvnq7aWAdn349af9TPz74MGDYcGCBbE0v7X95fa/Zm3dunVBUPPPaP/saH7dAfDuwpEy+FPaX1srx06AloO+FAFTNqsRDG7wrHt2vo/S9i3JnY+DnEbtazX+WCFfgmdvavty9/ihXuFdWiD0nSedKxn/ELBMcO9EK8a2V7t/Q+/LjIU3JQLL+gLrhlhJPnP48OGwZMmSsjL/rVu3zs3U/tnR3IOA38KGpUPc2r8rDORMwPZJY6HH8kPQdelBuGjYftJGRmfPu5lpYeGMlnvjM2AWr1eEbVTM5vrfY7EdB1sNHPk5EZBGvf/kmfrQGn9T3ZcXpr+qgpIXkIMWOqfHvyB443X+s0QzHi6Go1a78SDrXK8K/s72zwWQRIgJtAf1tS9Dhr2qUuKV9PovVRyY5py4oMUyGXgZg5+01r4889++ffvMwncfwF9U+3s4O7Kj+o6B763un6/pfdiX7WPw/2zCEOi79MtCAGBW9+WH4NoxB0QAkgCJZ8wFoGO0NgEwn0sfug834tGAkAMdrvPzjF97Zkyta3+jmIU3oX3ps/DxRL76mgpeBUdJ7Z8CUAuAGWv5K3cO0Gd1NQBSgCD/DdXZl2lz71QB1efJHwfQaRmEhnILxGvixIklZfs4ANixY8eUzOEvO7KDzw74YGPv/Li+X8aVAL4a8yYMXvRJEfyXHQyDALPumvyVLpRDma1Dpds6OBPHiffxvCcBW1yGfKIqCIzG/+LfecmAswhctW/v1xT3pWbljQ7Q8TG37vuebFkCbUUoRzJ+CeDtUrJ73zP5Ad/PHETvV29fBg3uqQrkKmmnW8lVig4B/zxjxozYVr64tXPnzrGZt392ZIdwmIlX+U8/eC0/8e1Pi10A8ho3fxv0XH4wWAb4TRBwMAgGDsKTs76CX77pjlUDtAAAIABJREFUyWoRKErv4axaA1gJwCXAw5lt1H+PR/NGS2IEcEcAdttzVyDaM/8GP4cOgMFgnhZ9ovs1lX1ZuPF8MfOl2XjktidmyYVe/eIK+/bDLN383Mqt/cdk9w6wJqDpfcGAJBAM+/PRyGJfsNGQ+zJp5n0VAdhSALyUMgNnKXz3wO+Zn9955x2YN29eol5+3/r444+HZVP9siM7PIeZeQ1f7u2QnzJoR9gOiNaMOWsLoF8E/iL409/NzwfhpYUH4fzBX3qzVSlT9mW4qlhOuN4CG83w5ezXyeoFlb0FYxsAhGBvVfq998ApJECI3rP3L6r7/Zl6Y9qX37z9Hs2MJZV9WNsOgC4AtVChX/i5FbLjdYGxcE5Mpu4Df3/mH88A4Dp8ElbAea8K+7Jkw++gf/9+ZYN6klWqrsDn9octiXlQgH8eOXIkLF26tKysf82aNYc+++yzt813W/blnx3ZEXMAwL8BwFN1M4evw6LARTMXh7S/qfl3XxYsBP5YE2DWn0fvd+rkOOtUQQqBrr3e0uDha4gWl++zj5zHaXwLfBikw5Y8Qvu74j+ceePfbWbNe/Et0LqagMa7L1cOn08ADQOd4+PvobMjmt7txZeAmNfJSTaugTeh3oPrkQ4gBGqP81/4meQ6IbDAIF3FfRk/5ZHE/fRpfi+VOeAe/klnAWjPU4qnP2cJ1q5du3v37t09zHda9sWfHdmR8ACAfzBBwGezJr1nAoC102ZF9X5W97dZf7EUQAMAs9pM/soBPu55ry1MzbsKfB1QnR57RtcXs/Vk5j7a5zmBAKPso6w/fgJfY9yXu8aNTJSNq7VyXw3f9vQrQOcuOgtAz/h18aAosGOlA9lLwIB+qwIlzwOAau7LgjUXN5gQTwNznrmX83m4m8HW+8tZ69ev/+DAgQMvm++y7Is/O7Ij5QEAfwsAD22fO3dLBPRuti9l/t2WFZf9/Zk5X8Ov++Nac7EtjtPvGvDhjJpeE03m0zJmPLY3Auwow7cBgASqWh0dv26DCCoglK4pWgEX7IAFDUJj25fnpnfTQTVmGI+ULauAXQDhs4K2t7M9We9Z8Z8Xvqd48KPJfBqTQMb2opp8FAy0bDT7UjPx6dRAXmrAEJe5V6IFcdiwYaK5T9q1cePG9fl8/hHzHZZ98WdHdpR4AMBfAsA18z+oHeUAPmICeGAglQW6LTsIV4z4Uqw/czDF9XNLcUcASzNXXgeP7hU56uH3NKU+qeWjzD16FgyQUfDgAD66L2YXuEiPP0tj25ee858MwcrWrEmGGtazGe2tAJwjkIsBTp5Nq4CJnQGFFkCtXU9S8UfiPP1Z8OdWe1/mrvijl5LHGXq54K8BvBYIaE6F2r3Hjh2r9ven0QAE1r7XmO+u7Is/O7KjMoZB5677PPdm39WH91nVvxX/FZftCGC6AKFccOekol8ABTxag+aqewymEjgWwBDVwrHojtPzBLADsDP3NtdzYMeT+3hZIBT1Mb0AsfBF9yK9+PZ5mNFPY9qXUStvpla7GKDQ5D4OTFa85tTFsX2vFcQF2Xo47CcUz8mZdWxtHgOoJ8vGLYTRZ9Davg94G9O+jBrTLha4ubI+LdUfxyBgcR9X/CcJHqRhPty+1xcE2Pd27Ngx2XxXZQY/2ZEdFT4A4ORd+/OdBq459AFmAbojkDfgH5YCBPC31zw752s4Z2CRDcAKdkpHU+GcPYc77GFwxhkxf12i2y2A4p7/SBjnAjMHWCyk42LCKKAIXPhsMCG0/tm/mZYWqrsv8zdcSHrbk1LezvmCaC663oBcJNKLvRdT9nMBoPM6EdnJA4G0n1WtAGIIGsO+zF5yXUmUP3fYK5e+5yLAUin/uGxfef/Irl27BpvvqOyLPzuyo54OAPiOEQeO2HB4tY/uD7N/HByg1kH72lWj95PsE2elci09sth1atgI3OzkvRDYhOE8OCuWQNm+xoFWBG+B1lfPZW2GONvX7tXQ+3LmW9vVTFjyzY8T5yUGR6F3P85xz+cZENXzrf2uHABEk/eiTgAaDLDrGtm+DB/1cirw59l+ErV+Kb/77j1hwoSya/2B0v+TvXv3djPfTdkXf3ZkRz0fAPAtAHhyytbaGVzxHwUABxOJBc3PD0w9AL/oF1ne8sVBT1K5c+DUWvGSLue+rHdeq9Vjdb30fL7Jg06wITgENtS+XDZ0oQpSBKhY73wSEBOV8QnAkWf7XuAXrpU+F2fcqnAwxWdUa1+mL7g5FsxLWZV2FTQswaBBg2D27NkVAf9Nmzaty+fzz5rvpOyLPzuyo2HFgX9c8nFuaK8Vhw5zFqBngmCgO/IU6LToIFw6fD8Du+jncCSuh77GAOxtpRPa9STVvhecNSBmPv5atwD/+5xyA6vbN/S+3DFmdOIsNUnG6/j4e1TxumhPqNuTzJjdTxDUcZDldsKxz54ie2/ofRk87LXYrDvOhS8N8JcSGIwZMwaWLVtWUk8/X9u2bZttvoMysV92ZEf1xIE/374337X/2sMfytk+dgrUNQHhLIFJB+Cnb2AhHlXic3AmdD7qx1ezYKFnH9f/fZQ+Bn77eVoQIf1MM3jsFOgO++Ggj4WGDbEvz0zr4XjbJwFAX806WSZNVfRxoMmFeFyJz8EX0/mYSdDYAYltaKz7MmV2NCRIEuLFBQCcQUgiBkxK+Q8YMKAivf223v/RRx8ZW9+fZ2K/7MiOKh8A8F2jCxi98chK2STI4x8QzA/Ar3VccBAuHvZlEeyELJnT77QPXh/ry4FOUto7tL5R+zPVvZQxS50F9r0CQCvDgcT7hveQphPuaZB96T7vGS/9XAAzxes+VkGPQFodguMZhCO26IVLeB5lKiDPquMCgCSahOruS0sY9E7vitH1SbL/JCyAGd+7ePFiougvZZlrjbnPvn37XjPfOdX+3suO7MiO4ACA/wUA90zfVjvJJw5UBYPC+2ay4Kl99zn0uFh/j6mThz3vUpaPxHWEMmfXhuI+OxdAGR/MAdecx8cIu8wCbQeUyg++skWl92X4iltl4RnrWZdsbyUQlgGXAp1q3JMgw/a9L9Lzcdm47eP3iP0a475MmnF/RYDdV8NPmvmbrB+395UD/mZt2bJlqfmOMd812RdvdmRHIzsA4JsA0HLdp7k3+60+/HnUGhjMDhAWB33+/ssLD8Jlw/cTZTufay/R2ZJiXqrTi9k3Ak5noA+i3LFqXwJoex4OFAhoM0qe0/O8dQ+vMBipp32Zs/4if7Yq9dzjwTZe8LLn+bJZefF7quI+rPhHYKn26KeYPtiY92Xx+gugf//K1O5L9QSwtX4zxIf39Gu/x2T++Z07d9aY7xbzHVPt77nsyI7s8Bxm6tZXtfDciA1H1miZPtYFYEMhSUNQ6BSY9hWc8ZZMdWMQw8Y7NhOnmTADY6n9T6DP8ZQ/6xR4ilCL58GCub85j04KlIWH5vfoPGoo5GbxVBRYyX05/a0PFJ96QaFOptkVHfGK/zIAZKBYpMpbkYl4/oy8eB43zvFn0vEsATbeIddgbUFMMNDY9mX81McrQvNLWoG4dsHBgwfDrFmzEgn6JIMfbv5jKP+9e/d2zSb5ZUd2NKEDAP43Lglw10AL/Go5QNASdF16EK6usdMF5YyYO+5xcxueEdvrC0Y9SubsBgHcHpg5/4WWwdF7GNB5eQFfi2cTSFS/M4HQwxKUui8XD16Mssuz1cyZgx0GNtcW1y4Eqgy4HEtccm28s1+pbYDEcU8YECRn4I13XxauuTR1tl8uU2D7+lesWJFK1e9jBrZu3bogoPz/d7W/z7IjO7Ij5QEA3wCAX238Itf77TWHPo7sgl3hX08R+KMgoXht8b0nZ30N573zpZq14153DHIUHPcR8DTnmyE8DhWPxHjYUheL9xwgReUDm9GbCXuRcI+18RFlvysgtEwFzt7t6zbgMOea5/exGUn35daaMQQciwNpGIjiATmKu500aS8CMZu5Btmx0MZns3PuqU/ocq7ORzR6dF86RIgDN/EAQM9MAgZngFDj3pea8c+UnM0nLQHYNXLkSJg/f37Jwj7+2tq1a7/8+OOPjavfr8x3SPbFmx3Z0YQPAPh30yUwZtORxbpBUBHgo4XnC8hsQZtJX8HP3pTFc1I9nQv88Ou4Zc65j5Cxu+JA2knA2/Z0Gp+29UmqfwvyeFARZhV4LV/VNSTcl6em9iaZrtTC5ryG6Wxslatk6oTKTzmUJzonyqAjmj2eLYhjCZLYDDf2fZmz/CoC/ElH9qZZAwcOFD38kwK/VALYtGnT2sOHD7c33xnV/t7KjuzIjgodAPBXAHD5ko9zQ/qsOvylrxPABgN06FBgK8xKA68uKZYFOGXOzXRcSp+p/hHgYsCXavZcxa/5CETALBkP6Z0B2mdH7X9o6JC9j1AakP7mJPvSdd5zAk0eL4aTruEAKr3v+5wkznxRMIABskidp3ILVHz94/7GxrovI8e0F1mAtO5+0rlJ6f4Uq3bnzp1jzXeE+a7IvnizIzuOwgMAfrD3UL798A1H1sS1BFJhoDtXAF/fdu7XcMHQqCzgZLiCkx4+j2TJCkBawLZ++pRSd6l0wiwIzxOVD5A3v6ZXYGUBLEqUGA2e9afZl6HL7vDWwKXXqZ9+RKk7tfeA/pY8+Un2vAWfq9flyWKKe21AkASiDu2vOAw2pX2ZteT6EPhLGdQjrVGjRsHChQsrCfywYcOGTfv37+9svhuq/f2UHdmRHfV8AMDfAcANc96vrem54tAhPQDAJYD42QLm34emHShMGcS0tjRSVxLNaTQ5XxbUw8l7qBWPe+3b351WO8V1MK7f39b9bQcC9yJQ7xcAfZJ9mbXuElEwp4noovctuNnhOxjwqNd+eA4HSzUrTsIEREp7X889AXzkwx+BuYclaGL7Mmxkp5Kofx4kDB06tGL+/XatXLky98EHH0ww3wXmOyH74s2O7GhGBwAc/8nX8NKwdYfX6RbCqASAhYJClwD2Fbhj0leFAUNhO54I8nSCnn0dZ/U+UHXv4V5nJ+/ZUgABWx4ECP4EbgAQUf9R5wC6nhn/8Oe1z6nty8/f/NCZoBeBXJS9ekE1zEzdjDfK1jHoyZmz9rv82Vwgp4/albN+lHkrFsJNcV+mz79Frf8nKQWYwT22zl+ukQ/L+jcGWf/x1f4eyo7syI7qOgheV2ADlh/62g4I8g4QUrwCQgOhZcV/uy07CK3H7YcfvyEAs83eA/DnoC7VxzUaPVzcZKfXHmfssJqpI2bAfD7/PN6REK9LiAIOKnQMyg3KXIAL3lnGxudS8EqUVQvKeA5cSSfvkQzYUeK7yvskGTL2B7AAHtLqylyACLSb3r4MGdYtNdVvXPwmT55ssvSKZv2rV6/+eufOnWPM//nM0S87siM7CgcA/HD3IegwYuORVVp2T+v+7BymD8DXmEmD1445IGbyHDhdENUzdochQNm3rdPjfnyxTo+oeVw28NH40t/AWQaJVYgCl0ifwPfkpprx3mzWB0Ya6EqqeK0mL1HzmB4XgdVjzpMkm44yf9rjr92zqe3LlDltUlH/EydOhOXLl1cU+M3avHnzykOHDnUw/9ezr73syI7sIAcA/DUAXLrko9yQvqsO7fZ1CeAAgAsCeQBgfze2wqZjQDbXiYBSbtmL1PNOJh9T1+fZP28X5EGBZQM48Me1+HEfAUnbgAMASW/wxJS+LCNFoOYdROMRwZUwBU8EOqFen+hegpBPEgAScV3MszWlfVm2qSUMHNQnFvyNsh/b91Yg2y/8++677366a9euQeb/tvk/nn3tZUd2ZId6AMB3jG/A+M1H5lM9gEz9a+UBWwrggcKLCw7CVaP3qxm1CuDYCAi1/llKHbfaYUW/T0+AgwAJ3C2bQK2EqQ+AG7DQv4sHLXJnQvFZX537grdeHgd0oXmNpdIlJT4C2rj7egERGedYoHfsglkg4PubJAU+ofub8L5MmvGQ2BFggX/JkiUVz/jN2r59+0zzf9n8n86+8rIjO7Ij0QEA/wMATt+8O99z0NpD20JfAET1a/MDnEAABwBBUGBWx4UH4RrDCCDrXd4aJ2XwmCWQ6u+crucUvUbvW3DmIkTHCyAUAUa+AFL5IS64wYyA1Qe8s7QNrW9jkEqSsRJffT37dbJYBVhxK51PbEf6/wMXPadHXzXYUaj6QLDHmYGmuC+L3/2DA/yG6jcZf7ljeqW1adOmdfv373/V/B82/5ezr73syI7sSH0AwLeMYGju+7ma3isO7XfLADggiNoFLdhLjEDhX8QOvLLoIFw/9kBh9HBolOOh83EGrdkAc8bgRGw0JLACmD2g99d1BtF1eMARnUNg2wYtY4Fr/4Vr+gRdDEEQMP3dy5DCPWpJC0VlXs99rKRX7G6dzDgCOl/2y5X63nq6kPHbMoAzdje022W1/y1u/35T35dxUx4vuPcZcd+yZcvKovW19e677+7atWvX4EDk963sKy87siM7yj4A4LiDtdB27Jba+VQIGAQAQedAyAqYEcQI5LVRxPg90zVw28QDcObb7lhd3kqH+/4jCp0GA7HUPwb5PqguH3QPSLoBvKKxxFzEiDQNgb4BDyLiAYZdp/bdRQHEYzLjiux4exsaxctBL6GYrng9V7WfnSrb5gEB9emnA3c4kPLVlPdl1dZLYP225xOr+tOyAmvWrDm0Y8eOKQHdf1z2lZcd2ZEd9VEW+Nm2vfmug9cd2iAJADV9gFYi6P7/t3cusG1d5x3f5qLoAy2QYcUKdFiLIV0NbCgwBw2KAgs6tAGSLemSNU3nbe2avvIYhrZJm7qe1zhtimRuHKfrYid+5CHZcizXtiI/IsuOHFlK6pcsWQ/KepCUZFEUKYoP8U2K+YZzeS55zrnnXFJ2bMfJ/wdcyCQvL8nLS/+/9+nJao2Bh46k6daXywOFxJy+Lf6ieDpD9rJHrqYHdKF9ySAQRFrdxLqAG1wWDDIZH45ZBML2jzv7tN6oLGzOSXZSf7xhX51HrhU2N+ETRNoszsoKfC7hdVO0wO19XWvnZdD/TfIFf0nB6HYKzm+nkbHOtz3c7/P5Tubz+SfYbxPhfgDAZYWIPkxEd5ydLTU19ucDunZAsTbAWSugLC7UY16aeO3xDH19z4IkrLYIq3ME5H59Oawv5trFELxuvoBaqe86HlgoINRV/KupAzFqoBYQfr+lTc5VWz3mhol6yoI0sijK/fKip6oVNkUoXQWwzjG4prn5xhC5ZuleSZSvsfPimbyXJkLrLdEXt8mZvRcd8lejAqOjo0PxeHwT+y2y3yT+2wMAXDGI6GNE9L3jFxb3b+vLxx1evmaegLON0NBhoKQU1p/I0vcOpOgmPl2w4mUreX6xYNA0iU+twrfD/06v35lWUAsHRc9fjDhoCxMNBoq9rT78krxana6SXgmdm4rqdPlsk4CpYfKqqMk5blHgdOLvKJDTzPN3Dd27LM5zLZyXc747aTTwY7ow96wk+jPzjdLf4ZHuS/L4z58/749EIg3st8d+g/gvDwBwtZcbXnXYW+iw1xYwdQI40wO8cLBiLMiPqYWGbL+HX0vTHc08PaDp43fz1HUFgOqUPrm+ICG1GOq8e7UoUH3Mzv3rjBTx9tOd6xTRK+fG6yqoU8Psmn51N09dF863RU5dKKdyX41BOzU3nvvXRgak93HLO/q8DE58i3zBx8oCH22sCL1qANjbRKD1ogr9PB5PIBgMNrPfGpbrBQC8YyCiPySi5ak8PX5wvNi96WyuVHuEsPy4qa3QdIz/eTND32ZRgQZzv7/YEWAc4iMUANYcL+xmYPDN2V1g7miwxx6z/ZpOP6T3Rg0erZvwuubpDQLpFGj9cdy8dd3xK5tD5N2Mgxp596t8Xvq8X6WR6YdoKvyMJfDipob9dduQp/4V/YaGhkIzMzP7eIHfcvZbu9q/dwAAcEBEf0REn53LlJ5sHS2c2CT0/auFfs6WQEPKoKf2QkSrj6Xp7j1JR75dN1VQV9VvF//Zof+Kl+7S9ifNGdCM/DUaAJrxw2w7MvgvSqGa7XG7e6mi0NYSY9vzdhNOrYjboX8XgdT1zJtqAbT7G7xzWbCv7nkZnryP/LNPVDx72+s3efvl+9TbjeSbOlBT+D0eTzgQCLRy4f8s+23hvxwAwLXSMbAilKKnWkcLJ0VDwGEAqDMDJIF3X4ZY3X57Oks/ak/T7bvKhYP2xD5n3t28sI9aJOh8TrW1T0oriPMLpNeThxKJRYN22uHGbXMaoZPby3Q59YveeLGcM4xvPra5GE4Jvwur+VXy7i51AapxIBYYOrcrf15YiH985hEKRF7QevMmr39G2exOANtwGBw8bfT4p6enbeFfgcp+AMA1bQjMZWj9/rHi71lqQGcIMANhKUKvRgikKAM3INjI4QcOJenWnVWPXkwJ6EPyTk9/hctEQPG5OmNDjSCoxYbl5YoTdFvTgEHwbr5oMRNX1tN6xjW8Z9Wbr0dk1Yp9k6jq6gek9rxxTbX+FTwvA/5/o7HA6kpBn1nkRe/fHPIXDQB7804eloR/eHg4IIT6IfwAgHcHRLSMhTGjudK6V73F45vP5rPqiOB6xL68r3mpYl2tASsyZPUC91vGQDkyIAq+qd9f9fAdxX2VGQPy2gCmxYnUVkHR4PhOy1Ep514WztoDZiQBdRFvfT7c2aevPkebL1c8fONxBfGXCv7qmOmvr7q/vOdl0P8NGgv8jKbCG13C+XK+X8r7Kx6+KRVgGwOByA4aGOhlwu/n0/vsUP+yq/17BQCAy1UjsDxfpLVHfcUjz/flY/IsAPeliHWjhO3nmFYlZI+L97PIwH+2pej25gXtLAFbmNU8vRpBEIcMWQZDxRDQGw66dkW7TmF1+w6zRz7OZuubBUyXHxc9dV1O3X7cXCjn7JmXn2sQf01kwTIIlFn8+vejDBSqLNF7+c6LFd4PrLE8/Wq7Xm3xt6v91RY/s/iz++X7pmb3J0KRvsNEtIYX9yHHDwB4z3QNsPbB+7unii2N/flpOYRfFXV9QWDWaBSokwbdigtZzcBPjqZp5b4k/S2fMeBYzEdd6Ger8zbbp7pioFwnYC8YJO5fiRTwY2/oXK+ImL5IztRPL7bF6cTPDqm7CbV6LMemDuhRFvqxPX/xti3UlTSAFBkQxN1+vj0WuI6ZABdzXnq9d5Bn6gHyBn9Bgcjz5QI+pYjPFMo3VvhH5fC+tF9USQ1EmxYjifYzucL0Rnbt898AqvoBAO/pgUJ3nQstNjR78h67HsBt7QDp8Z5yDYG4n/hve4Ei56ZOIMzSY10Zuu9Qir5iFRGKK/9VDQO71U9XHyB5/o5aADlCID53+6mHHX3xOs9b8qA1s+ztEHl1it3NfEEdp+cuCbYistpJfKJHLgi2PM/fpbde00IoDfDRPufWSz4vA/5v0uj0T2kyvEHw3Buknn3Zm68vj1+5zTf7tvP+RgrFdkVjqe7XiqUUG9l7Fwb4AACAc8TwTYFk6TcHxwvdW3vzqXrmAbiH/50pgGrawDmQqDqLIEvPnM5a7YX3tCbplqbqBEJdOF8c9GOnFHSdBNUIgXxf++C/SwvluIe0axfq1Qq3m1IAzhX7bBH++0rI3VH1r3kPaoFdpXLf1N+vC/UrKYB6z8uA/19p5MKPrHa9QORF13C+qZjPOcxHNgyqlf07rE2t+Lf3Dcdf8S1k+n7H8/s3YWQvAADU7hxgOdEHWXpgx2BuQiwSrIi9YSaAahCYigPthYjkx6vHlB7rydL/nuIGwf4U3bJzgf7GsKqfPUKYDRgSvXzdX7b/57ZF3MfXGvLuRkF06323vWO1sM4RUlc9bbFfXj8QSJ9vF47DIxPstU1RAmc0o9Z5uZUG/N+gkQsPcsHfpp3EV3NQjx0N4B57PQWADmPBji5Em3LziSOncoXJZ9k1zK/l9+FHDwAAS4CI/oSIbvNGS5vYYKGtfdWogFHYxfkC6r/d7rONArGewFFwWL1/45ksre3M0ANtKfraniR9sdG5bsANdbQf/kPTkLnYbanjdV2r8wUvvJIicBbMqe139thfsZ5ANyNfNgD0aQfjezYNFlLOC1tW1zN5n9WiNxl6qhzKr2PyXu0CPV4LIBT3OQQ/6n47FNs3mUid2k9UepRds+zaxY8dAAAuESJ6PxH9NfOoTs4s7t7lyY/YeX9jt0AddQRu7YZGI0MXdeD3PX0yS2uOpen+QylrMuGXt1dTB86Fg8rbPfuO1RZ2wWvWefiyJ64TZo2oG+bcu762i6hrRdyl97/Wc/t9X+di/zOamF1H03Nb9QV4LgKvhvl1t11F3q0A0Mrxv5ycX+j4fTZX8fbZNfp+/OABAOAyQER/TERfmsvQk6/5i+2N/bmAKvKm6MCSNlvo1VHEUg0BLyTUpiLKj7NIwS+7MvRge4q+vT9Fd+5eoL9r5OmBLTF6+NWdtUVfEm+zMaAVZpc0wsVs2ql+UrW94L0bPHvJq/d+jYYmvmuF8b0zj9Jk6Gkrd2/05jWib4fva4m9KSKwlDn+bJtLHPQks/127/6X2DWJHzsAAFzZmQJ/TkT/7I+XNrIBQy+ey83pvHht94Bh1cKaXr9xmWOhtqBSn2Cea7CpJ0uPv5Gh/Z5DVi/6+akf0NDEd6jft5J6x29zeuaV0LvZo9cV2ekMAsdfzcI/OiPCzes3efh941+xPhP7bOwzjk3/F/lmn+AL6VRD+KYBO25CrfPadR692Opn8up1Pf1iTUA43uKPp04cLJVSj7Nrjl976N0HAIB3QIrgM0T03ZH5xS0HxwtvvHAuG1HHDVdaBmstUqQ1AOT5BM71DGoYBrrX6clR3/QRrfiwPvWp8G9pYvbXlmc8FlhF5y/8wFqQZmjyHur3r7RWpTs7fps2pK8ryqsKvmg43FxpGZTG8RpSCOy+3vHb6Zz3LkvYByfusUL1Ixd+SKOBVeQNPkoToXXWe2efoZZnrYq7yQhwePyKAVDtu3cP6ZtZ1B6nAAAGZklEQVSKAlWDgRknodieC/FUd3uhOLeBXVv8GkOIHwAA3okQ0QeJ6K+I6N7RaOm5Nl+x86X+XNBR3LeUWQMGQ0E0JsTogDa6IOwnPj4WanEVRr23qopig1UBzybaMeGdDG2wDAff7OPWWvVs8I13Zq21qM34zM9pPPDfVtRhLLDG+js+s4a8wZ+Td+YRa1/2HPZc/+yvaSL0lHVMduzpyFbrtWoJqLiPTsDFcP5SQ/FLOy/mGf56Q6CRwrG9U7FU15FCcfY37Bri19IHr/Z1DQAAYAkQ0Qd4G9a32HyBjsli287BvFcXATB1EujC/hUhV48jGgBKJ4G0ImKlrTFbFS1DAVo9myq09QpgVYjrE2GTZ+7mzWsNAOmz6g2K4JU6L9HGt8Lx1rFE+sTBQnF+PbtW+DXzAfzYAADg3ZMm+BQR3ZEt0WNngou7Xjlf6HnxXD6q9fqV2QNycZ/QIihuS+hCYFtjf6RmCFwVwXK7mtmTrfcYbi10Wi9bmX/v3G9p76kyhlfMz9cRsn87zstsdGcikmg7u5DpbS6V8o+xa4JfGwjvAwDAe6CAkM0Y+AJr35pKlP7v9Yniq7uH88Obz+YyrmKu1hCoXr/OGFBbFvntvcMTZs9XuwBNQ8Vj1he/yd60m8esE3I3D14V7nqEWSvqmtu1Q/OXfF5KoXiLL5Y6flQY0PMFfg2gkA8AAN7jqYK/4ANc1o5FS5s7JopHmj35kS29ZYOACfdmbUqgXBxYb9uhaBQcHhvU5sHdBE8njm7irAt9i8LrJrbq65cFXfMcwfOW8/Eui+iom/LeL+28NLBc/oVosqM7kx9qLFHxF/y7Zd8xQvsAAACMKxV+hOeB/4kZBP54adPxyeLBvefz/S/15yO2mMuLCelrBpzdAtX9uv0n685lOwXcGXp3E3Btnt9oLIihf5faAaGYT9xP+neNXHy9EQu38xKMbi+G4nsnosmOrlR2aHuplP0V/+6W8+8SK+4BAAC4KIOALVR0PRHdQkSro7nSut7ZxaZ2X6Gz2ZMffaEvn6jb8xdu906/phVvt7B3LW/YzXjQheqlXnmDcNcboq8aADvqF3KltkD32eStgWZju+bD8QMD8dQbbenc+Bb2nfDv5nr+XUHwAQAAXLaCwj8lohuIaCWLEsxn6ElmFBzxFzr2jBQGG/pz4c1nc2+5zRkYDb2i9dDt8LdO2HVRgFr71ZNLX8pzaxkApiV1a0U35OOVc/uheHN4LnFgMJY8fjSV9TTwJXVX8nPPvgMU7gEAALjqdQQfJ6IVRPRVIlpTKtGjLH1wYnpxT5u3cPx3npynoT87u+VsZpEZAIH5JkOIv46w+1JC5Bf5uEnY64lYmF9P1zFQ9urnEq2j8wtH31xIn27JFnzPERUf4edyBT+3yN8DAAC4ZpY2/ihvMfs8Ed1NRKtYxGA2GX8unR99MZE+tT+afL0rsnBoYC6+b2o2+nIiGN3+lpunbQ69G8L0mhY+neHx9hgJmhkB5VRDIRhrjoTjLeORRNuZeKqrPZnpezlXmHqGqLSan5vP83PFzhmW0AUAAPCubENkEws/RkSf5i1pdxLRf/AFZtay8bPpvHfbQqZ3dzz1Zlt0oaN7PtHWG060joZje6dnY83zwWhThhkLkvg6euOd7Xay0eAe0tfeXz3uW7PRHelglOXk907NJVrPRxJtPdFkR2cifeJAKtvflC34ny0W4+v4Z7uTf9ZP88/OzgHa8AAAAAAGES3j4ngdEX2CV7PfSEQ3c0/5XjuSwDa2QE2hEH46V5jalM6PPZ/JD29fSPfuTqRPtyTSJw/E02+2xZJdR6PJ149Fk693RheOdc0vdHSzNjm2xZLHumLJY8fZY/FUZwfLt7MCO/bchcyZfclMbzOrrk/nR5/PFaY2ForhDXxRnFX8vdzN39uN/L1+gr939hmW4VsFAAAALk+XwjJemPgh3vZ2HfewWd78z4jok7wHnlXJ/yVf1GY53z7D77ue7/NJ/pyP82Ncx4/5If4a7LVQZQ8AAAAAAAAAAAAAAAAAAAAAAAAAAAAAAAAAAAAAAAAAAAAAAAAAAAAAAAAAAAAAAAAAAAAAAAAAAAAAAAAAAAAAAAAAAAAAAAAAAAAAAAAAAAAAAAAAAAAAAAAAAAAAAAAAAAAAAAAAAAAAAAAAAAAAAAAAAAAAAAD+4HLx//dLViwQu5vTAAAAAElFTkSuQmCC;" parent="7" vertex="1">
                    <mxGeometry x="368" y="110" width="512" height="512" as="geometry"/>
                </mxCell>
                <mxCell id="28" value="" style="html=1;shadow=0;dashed=0;align=center;verticalAlign=middle;shape=mxgraph.arrows2.arrow;dy=0.6;dx=40;flipH=1;notch=0;strokeColor=#000000;fontSize=14;fontColor=#ffffff;fillColor=none;" parent="7" vertex="1">
                    <mxGeometry x="799" y="320" width="100" height="70" as="geometry"/>
                </mxCell>
                <mxCell id="30" value="&lt;font style=&quot;font-size: 20px;&quot;&gt;1&lt;/font&gt;" style="text;html=1;strokeColor=none;fillColor=none;align=center;verticalAlign=middle;whiteSpace=wrap;rounded=0;" parent="7" vertex="1">
                    <mxGeometry x="709" y="290" width="102.5" height="70" as="geometry"/>
                </mxCell>
                <mxCell id="31" value="&lt;font style=&quot;font-size: 20px;&quot;&gt;2&lt;/font&gt;&lt;span style=&quot;color: rgba(0, 0, 0, 0); font-family: monospace; font-size: 0px; text-align: start;&quot;&gt;%3CmxGraphModel%3E%3Croot%3E%3CmxCell%20id%3D%220%22%2F%3E%3CmxCell%20id%3D%221%22%20parent%3D%220%22%2F%3E%3CmxCell%20id%3D%222%22%20value%3D%22%26lt%3Bfont%20style%3D%26quot%3Bfont-size%3A%2020px%3B%26quot%3B%26gt%3B1%26lt%3B%2Ffont%26gt%3B%22%20style%3D%22text%3Bhtml%3D1%3BstrokeColor%3Dnone%3BfillColor%3Dnone%3Balign%3Dcenter%3BverticalAlign%3Dmiddle%3BwhiteSpace%3Dwrap%3Brounded%3D0%3B%22%20vertex%3D%221%22%20parent%3D%221%22%3E%3CmxGeometry%20x%3D%22680%22%20y%3D%22330%22%20width%3D%22102.5%22%20height%3D%2270%22%20as%3D%22geometry%22%2F%3E%3C%2FmxCell%3E%3C%2Froot%3E%3C%2FmxGraphModel%3E&lt;/span&gt;" style="text;html=1;strokeColor=none;fillColor=none;align=center;verticalAlign=middle;whiteSpace=wrap;rounded=0;" parent="7" vertex="1">
                    <mxGeometry x="719" y="370" width="102.5" height="70" as="geometry"/>
                </mxCell>
                <mxCell id="32" value="&lt;font style=&quot;font-size: 20px;&quot;&gt;3&lt;/font&gt;&lt;span style=&quot;color: rgba(0, 0, 0, 0); font-family: monospace; font-size: 0px; text-align: start;&quot;&gt;%3CmxGraphModel%3E%3Croot%3E%3CmxCell%20id%3D%220%22%2F%3E%3CmxCell%20id%3D%221%22%20parent%3D%220%22%2F%3E%3CmxCell%20id%3D%222%22%20value%3D%22%26lt%3Bfont%20style%3D%26quot%3Bfont-size%3A%2020px%3B%26quot%3B%26gt%3B1%26lt%3B%2Ffont%26gt%3B%22%20style%3D%22text%3Bhtml%3D1%3BstrokeColor%3Dnone%3BfillColor%3Dnone%3Balign%3Dcenter%3BverticalAlign%3Dmiddle%3BwhiteSpace%3Dwrap%3Brounded%3D0%3B%22%20vertex%3D%221%22%20parent%3D%221%22%3E%3CmxGeometry%20x%3D%22680%22%20y%3D%22330%22%20width%3D%22102.5%22%20height%3D%2270%22%20as%3D%22geometry%22%2F%3E%3C%2FmxCell%3E%3C%2Froot%3E%3C%2FmxGraphModel%3E&lt;/span&gt;&lt;span style=&quot;color: rgba(0, 0, 0, 0); font-family: monospace; font-size: 0px; text-align: start;&quot;&gt;%3CmxGraphModel%3E%3Croot%3E%3CmxCell%20id%3D%220%22%2F%3E%3CmxCell%20id%3D%221%22%20parent%3D%220%22%2F%3E%3CmxCell%20id%3D%222%22%20value%3D%22%26lt%3Bfont%20style%3D%26quot%3Bfont-size%3A%2020px%3B%26quot%3B%26gt%3B1%26lt%3B%2Ffont%26gt%3B%22%20style%3D%22text%3Bhtml%3D1%3BstrokeColor%3Dnone%3BfillColor%3Dnone%3Balign%3Dcenter%3BverticalAlign%3Dmiddle%3BwhiteSpace%3Dwrap%3Brounded%3D0%3B%22%20vertex%3D%221%22%20parent%3D%221%22%3E%3CmxGeometry%20x%3D%22680%22%20y%3D%22330%22%20width%3D%22102.5%22%20height%3D%2270%22%20as%3D%22geometry%22%2F%3E%3C%2FmxCell%3E%3C%2Froot%3E%3C%2FmxGraphModel%3E&lt;/span&gt;" style="text;html=1;strokeColor=none;fillColor=none;align=center;verticalAlign=middle;whiteSpace=wrap;rounded=0;" parent="7" vertex="1">
                    <mxGeometry x="669" y="440" width="102.5" height="70" as="geometry"/>
                </mxCell>
                <mxCell id="33" value="&lt;font style=&quot;font-size: 20px;&quot;&gt;4&lt;/font&gt;" style="text;html=1;strokeColor=none;fillColor=none;align=center;verticalAlign=middle;whiteSpace=wrap;rounded=0;" parent="7" vertex="1">
                    <mxGeometry x="589" y="480" width="102.5" height="70" as="geometry"/>
                </mxCell>
                <mxCell id="34" value="&lt;font style=&quot;font-size: 20px;&quot;&gt;5&lt;/font&gt;" style="text;html=1;strokeColor=none;fillColor=none;align=center;verticalAlign=middle;whiteSpace=wrap;rounded=0;" parent="7" vertex="1">
                    <mxGeometry x="509" y="475" width="102.5" height="70" as="geometry"/>
                </mxCell>
                <mxCell id="35" value="&lt;font style=&quot;font-size: 20px;&quot;&gt;6&lt;/font&gt;" style="text;html=1;strokeColor=none;fillColor=none;align=center;verticalAlign=middle;whiteSpace=wrap;rounded=0;" parent="7" vertex="1">
                    <mxGeometry x="449" y="410" width="102.5" height="70" as="geometry"/>
                </mxCell>
                <mxCell id="36" value="&lt;font style=&quot;font-size: 20px;&quot;&gt;7&lt;/font&gt;" style="text;html=1;strokeColor=none;fillColor=none;align=center;verticalAlign=middle;whiteSpace=wrap;rounded=0;" parent="7" vertex="1">
                    <mxGeometry x="409" y="331" width="102.5" height="70" as="geometry"/>
                </mxCell>
                <mxCell id="37" value="&lt;font style=&quot;font-size: 20px;&quot;&gt;11&lt;/font&gt;" style="text;html=1;strokeColor=none;fillColor=none;align=center;verticalAlign=middle;whiteSpace=wrap;rounded=0;" parent="7" vertex="1">
                    <mxGeometry x="679" y="210" width="102.5" height="70" as="geometry"/>
                </mxCell>
                <mxCell id="38" value="&lt;font style=&quot;font-size: 20px;&quot;&gt;10&lt;/font&gt;" style="text;html=1;strokeColor=none;fillColor=none;align=center;verticalAlign=middle;whiteSpace=wrap;rounded=0;" parent="7" vertex="1">
                    <mxGeometry x="589" y="170" width="102.5" height="70" as="geometry"/>
                </mxCell>
                <mxCell id="39" value="&lt;span style=&quot;font-size: 20px;&quot;&gt;9&lt;/span&gt;" style="text;html=1;strokeColor=none;fillColor=none;align=center;verticalAlign=middle;whiteSpace=wrap;rounded=0;" parent="7" vertex="1">
                    <mxGeometry x="509" y="200" width="102.5" height="70" as="geometry"/>
                </mxCell>
                <mxCell id="40" value="&lt;font style=&quot;font-size: 20px;&quot;&gt;8&lt;/font&gt;" style="text;html=1;strokeColor=none;fillColor=none;align=center;verticalAlign=middle;whiteSpace=wrap;rounded=0;" parent="7" vertex="1">
                    <mxGeometry x="454" y="250" width="102.5" height="70" as="geometry"/>
                </mxCell>
            </root>
        </mxGraphModel>
    </diagram>
</mxfile>